<svg xmlns="http://www.w3.org/2000/svg"><metadata/><defs><font id="orange_sans55_roman" horiz-adv-x="1286"><font-face ascent="1608" descent="-440" units-per-em="2048"/><glyph d="M186 0v1434h193v-1434h-193zM571 401v74h193q0 -86 12 -151.5t40 -111.5t75 -69.5t121 -23.5q76 0 123 26.5t72.5 73.5t33.5 113.5t8 144.5v957h193v-938q0 -141 -23.5 -242.5t-75 -167.5t-134.5 -97.5t-199 -31.5q-55 0 -130 11.5t-143.5 56.5t-117 134t-48.5 242z" horiz-adv-x="1589" unicode="IJ"/><glyph d="M156 0v1040h180v-1040h-180zM156 1245v189h180v-189h-180zM407 -252q72 12 109 22.5t53.5 28t18.5 47t2 80.5v1114h180v-1136q0 -70 -11.5 -124t-39 -91t-75.5 -56.5t-120 -19.5q-27 0 -62.5 3t-54.5 5v127zM590 1245v189h180v-189h-180z" horiz-adv-x="913" unicode="ij"/><glyph d="M33 913v127h192v142q0 135 67.5 197.5t207.5 62.5q29 0 69.5 -3t63.5 -5v-127q-66 4 -89.5 3t-37.5 -1q-37 0 -57.5 -16.5t-29.5 -39t-11 -47t-2 -41.5v-125h501v-1040h-180v913h-321v-913h-181v913h-192zM727 1245v189h180v-189h-180z" horiz-adv-x="1056" unicode="ﬁ"/><glyph d="M33 913v127h192v142q0 135 67.5 197.5t207.5 62.5q29 0 69.5 -3t63.5 -5v-127q-66 4 -89.5 3t-37.5 -1q-37 0 -57.5 -16.5t-29.5 -39t-11 -47t-2 -41.5v-125h321v394h180v-1434h-180v913h-321v-913h-181v913h-192z" horiz-adv-x="1060" unicode="ﬂ"/><glyph horiz-adv-x="2048"/><glyph horiz-adv-x="2048"/><glyph horiz-adv-x="477"/><glyph horiz-adv-x="477"/><glyph horiz-adv-x="477"/><glyph horiz-adv-x="477"/><glyph d="M223 0v223h203v-223h-203zM223 883v551h203v-551l-51 -471h-101z" horiz-adv-x="649" unicode="!"/><glyph d="M109 1434h270l-82 -394h-107zM494 1434h270l-82 -394h-107z" horiz-adv-x="872" unicode="&quot;"/><glyph d="M-20 365l26 174h275l57 366h-275l27 174h275l53 342h139l-53 -342h293l53 342h139l-53 -342h274l-26 -174h-275l-57 -366h274l-26 -174h-275l-53 -345h-139l53 345h-293l-53 -345h-139l53 345h-274zM420 539h293l57 366h-293z" horiz-adv-x="1187" unicode="#"/><glyph d="M76 426h182q4 -92 35 -151.5t74 -94.5t91 -48t91 -15v545q-145 31 -231.5 74.5t-131.5 97t-59 113t-14 124.5q0 123 46 199t112.5 118t142 56t135.5 14v133h108v-133q53 -2 125 -17.5t135.5 -56.5t106.5 -112.5t39 -186.5h-176q0 45 -16.5 88.5t-46 76t-72.5 53t-95 20.5 v-506q154 -27 244 -77t136 -109.5t59.5 -123t13.5 -114.5q0 -135 -51 -216t-124 -125t-149.5 -59.5t-128.5 -17.5v-165h-108v165q-227 10 -343 117t-130 334zM291 1077q0 -102 63.5 -159.5t194.5 -81.5v487q-33 0 -78 -9t-85 -36t-67.5 -75t-27.5 -126zM657 117 q66 -2 116 21.5t85 61.5t52.5 89t17.5 104q0 70 -28 116t-68.5 74.5t-88 42t-86.5 17.5v-526z" horiz-adv-x="1187" unicode="$"/><glyph d="M117 1038q0 127 36.5 208t90 126t111 61.5t100.5 16.5q41 0 99 -16.5t111.5 -61.5t90.5 -126t37 -208q0 -55 -14.5 -126.5t-52.5 -134t-103.5 -106.5t-167.5 -44t-168 44t-104 106.5t-52 134t-14 126.5zM254 1038q0 -35 7 -85t28.5 -97t60.5 -80t105 -33q63 0 103 33 t60.5 80t27.5 97.5t9 84.5q-2 86 -21.5 143.5t-49 91.5t-64.5 47t-65 13q-31 0 -66 -13t-64.5 -47t-50 -91.5t-20.5 -143.5zM401 0l930 1434h156l-932 -1434h-154zM1085 395q0 127 37 208t90.5 126t110.5 61.5t100 16.5t100.5 -16.5t111 -61.5t90 -126t36.5 -208 q0 -55 -14 -126.5t-52 -135t-103.5 -106.5t-168.5 -43q-102 0 -167.5 43t-103.5 106.5t-52.5 135t-14.5 126.5zM1225 395q0 -35 7 -85t27.5 -97t59.5 -80t104 -33q66 0 105 33t60.5 80t27.5 97t8 85q-2 86 -21.5 143.5t-49 91.5t-64.5 47t-66 13t-65.5 -13t-64 -47 t-49 -91.5t-19.5 -143.5z" horiz-adv-x="1878" unicode="%"/><glyph d="M154 383q0 164 90 266.5t262 179.5q-49 57 -78 105.5t-43 86.5t-17 67.5t-3 50.5q0 70 26.5 125t71.5 93t105.5 57.5t129.5 19.5q78 0 137.5 -25t98.5 -64.5t58.5 -92t19.5 -107.5q0 -68 -25.5 -124t-64.5 -101.5t-86.5 -78t-92.5 -53.5l314 -372q20 33 32.5 77t26.5 134 h162q-16 -94 -40 -173t-79 -163l246 -291h-215l-141 168q-35 -55 -85.5 -94t-109.5 -65.5t-122.5 -39t-127.5 -12.5q-123 0 -209 39t-139 100.5t-77.5 137t-24.5 149.5zM340 385q0 -47 16.5 -95t52 -88t90 -65.5t130.5 -25.5q100 0 187 44t138 130l-354 428 q-78 -31 -128 -70t-80 -82t-41 -88t-11 -88zM532 1143q0 -74 39 -132.5t84 -113.5q80 29 136.5 94.5t56.5 157.5q0 59 -42 104t-110 45q-29 0 -57.5 -8t-52 -26.5t-39 -48t-15.5 -72.5z" horiz-adv-x="1411" unicode="&amp;"/><glyph d="M109 1434h270l-82 -394h-107z" horiz-adv-x="487" unicode="'"/><glyph d="M152 528q0 98 11 192.5t43 200t90 229.5t153 284h135q-139 -270 -194.5 -497.5t-55.5 -408.5q0 -115 19.5 -232.5t53 -234t78.5 -227t99 -211.5h-135q-94 160 -152.5 284t-90.5 229.5t-43 199.5t-11 192z" horiz-adv-x="759" unicode="("/><glyph d="M176 -377q90 174 140.5 317.5t75 257t29.5 196.5t5 134q0 45 -5 126t-29.5 197t-75 262.5t-140.5 320.5h135q100 -160 158.5 -293t89.5 -244t40 -202t9 -167t-9 -167t-40 -202.5t-89 -243.5t-159 -292h-135z" horiz-adv-x="759" unicode=")"/><glyph d="M141 1190l33 96l258 -82v271h103v-271l256 82l32 -96l-254 -82l160 -221l-84 -62l-162 222l-164 -222l-81 62l159 221z" horiz-adv-x="964" unicode="*"/><glyph d="M109 659v136h446v446h135v-446h447v-136h-447v-446h-135v446h-446z" horiz-adv-x="1245" unicode="+"/><glyph d="M223 0v223h203v-286q0 -61 -20.5 -104.5t-51 -71t-65.5 -43t-66 -21.5v113q43 4 73 41.5t30 85.5v63h-103z" horiz-adv-x="649" unicode=","/><glyph d="M133 475v143h561v-143h-561z" horiz-adv-x="827" unicode="-"/><glyph d="M223 0v223h203v-223h-203z" horiz-adv-x="649" unicode="."/><glyph d="M6 -379l731 1813h150l-731 -1813h-150z" horiz-adv-x="892" unicode="/"/><glyph d="M102 717q0 184 30 312t77 212t104.5 131t113.5 70.5t103.5 29t73.5 5.5q27 0 74 -5.5t103.5 -29t113.5 -70.5t104.5 -131t77 -212t29.5 -312t-29.5 -312.5t-77 -212t-104.5 -131t-113.5 -71t-103.5 -28.5t-74 -5t-74 5t-103 28.5t-113.5 71t-104.5 131t-77 211.5t-30 313 zM293 717q0 -123 16.5 -231.5t53 -189.5t96 -129t145.5 -48t145.5 48t96.5 129t53 189.5t16 231.5t-16 231.5t-53 189.5t-96.5 129t-145.5 48t-145.5 -48t-96 -129t-53 -189.5t-16.5 -231.5z" horiz-adv-x="1208" unicode="0"/><glyph d="M276 1077v101h43q63 0 123 18t106 51t75.5 80t38.5 107h135v-1434h-193v1077h-328z" horiz-adv-x="1208" unicode="1"/><glyph d="M127 0q0 129 36 223t101.5 168t154.5 135.5t193 126.5q45 29 96.5 62t95.5 78t72.5 105t28.5 142q0 135 -80 205t-209 70q-137 0 -217 -78t-80 -207v-53h-188v43q0 49 15.5 126t66.5 150.5t148.5 127t261.5 53.5q111 0 198.5 -30t150 -85t96.5 -136t34 -184 q0 -100 -24.5 -171.5t-80 -133t-143.5 -122t-213 -140.5q-145 -92 -213 -163.5t-88 -149.5h758v-162h-971z" horiz-adv-x="1208" unicode="2"/><glyph d="M92 436h184q2 -12 3.5 -23.5t3.5 -23.5q4 -25 15 -72t43 -93t89 -79.5t152 -33.5q111 0 176 34.5t98 82.5t42 99.5t9 86.5q0 119 -70.5 188.5t-191.5 69.5h-147v155h57q23 0 75 4.5t105 28t93 73.5t40 142q0 43 -12 87t-44 80t-87 58.5t-139 22.5q-25 0 -72 -6t-93 -38 t-80 -97.5t-34 -184.5h-178q0 31 3 79t18.5 101.5t45 106.5t81 96t128 70t187.5 27q150 0 240 -46.5t137 -108.5t62.5 -129t15.5 -110q0 -119 -66 -203.5t-170 -113.5v-4q55 -8 104.5 -35t88 -73t61 -109.5t22.5 -145.5q0 -104 -36.5 -187t-103 -139.5t-157 -86 t-196.5 -29.5q-158 0 -254 48t-150.5 120t-75 156t-22.5 155z" horiz-adv-x="1208" unicode="3"/><glyph d="M57 332v162l674 940h195v-940h225v-162h-225v-332h-193v332h-676zM242 494h491v688z" horiz-adv-x="1208" unicode="4"/><glyph d="M104 367h189q4 -35 19.5 -80t49 -84t88 -65.5t138.5 -26.5q37 0 93 8t109.5 43t92.5 105.5t39 197.5q0 94 -28 159.5t-72 104.5t-101 56.5t-115 17.5q-35 0 -77 -8.5t-80.5 -23.5t-71.5 -38.5t-51 -54.5h-181l101 756h774v-162h-633l-57 -424q68 59 146.5 83.5 t176.5 24.5t181.5 -33.5t142.5 -96t92 -153.5t33 -206q0 -109 -31 -201t-93.5 -161.5t-159.5 -108.5t-230 -39q-139 0 -229.5 41t-144.5 102.5t-78.5 133t-31.5 133.5z" horiz-adv-x="1208" unicode="5"/><glyph d="M100 698q0 190 32 323.5t81 219.5t110.5 134t121 70.5t111.5 27t85 4.5q31 0 95.5 -7.5t134 -42t131 -106.5t83.5 -203h-172q-18 76 -55 118t-78 61.5t-81 22.5t-60 3q-113 0 -181.5 -51t-105.5 -130t-49 -172t-12 -177h4q63 84 157.5 117.5t192.5 33.5t182 -32.5 t146.5 -94t97.5 -150.5t35 -204q0 -111 -33 -204t-96.5 -160.5t-154.5 -104.5t-208 -37q-119 0 -214 35t-161.5 120t-102.5 228t-36 358zM303 459q0 -68 19.5 -130.5t58.5 -110.5t99.5 -77.5t142.5 -29.5q80 0 136 29.5t92 79.5t53.5 113.5t17.5 131.5q0 66 -18.5 125 t-56.5 103t-95.5 71t-133.5 27q-152 0 -233.5 -92.5t-81.5 -239.5z" horiz-adv-x="1208" unicode="6"/><glyph d="M80 1272v162h1046v-131q-72 -80 -129 -156t-104 -155t-87 -160.5t-77 -172.5q-35 -84 -59.5 -160.5t-43 -155.5t-31.5 -163t-24 -180h-204q20 156 59 312.5t113 330.5q33 76 74.5 157t92 162.5t108.5 159.5t124 150h-858z" horiz-adv-x="1208" unicode="7"/><glyph d="M121 406q0 61 17.5 121.5t51 109.5t82 86t109.5 53q-98 35 -152.5 124t-54.5 192q0 55 18.5 122.5t66.5 126t132 97.5t213 39t213 -39t132 -97.5t66.5 -126t18.5 -122.5q0 -102 -54 -191.5t-153 -124.5q61 -16 109.5 -53t82.5 -86t51 -109.5t17 -121.5q0 -92 -28.5 -174 t-88 -142.5t-150.5 -96.5t-216 -36t-216 36t-150.5 96.5t-88 142t-28.5 174.5zM305 416q0 -80 26.5 -138.5t69.5 -95.5t96.5 -54t106.5 -17q51 0 104.5 17t96.5 54t70.5 95.5t27.5 138.5q0 45 -13 94t-47 90t-92.5 68.5t-146.5 27.5q-90 0 -147.5 -27.5t-91 -68.5t-47 -90 t-13.5 -94zM350 1085q0 -49 13.5 -92t44 -76.5t78.5 -53t118 -19.5t118 19.5t78.5 53t44 76.5t13.5 92q0 27 -8 68t-35 79t-77 64.5t-134 26.5t-134 -26.5t-76.5 -64.5t-35 -79t-8.5 -68z" horiz-adv-x="1208" unicode="8"/><glyph d="M100 971q0 111 33 204t96.5 160.5t154.5 104.5t208 37q61 0 123.5 -9.5t119 -38t106.5 -79t86 -133t57.5 -200.5t21.5 -282q0 -170 -24.5 -294t-65.5 -211t-96.5 -140t-115 -83t-121.5 -40t-118 -10q-31 0 -95 7t-134 42t-131.5 106.5t-83.5 202.5h172q18 -76 55 -117.5 t78 -61t80 -22.5t61 -3q113 0 181.5 51t105.5 129t49 172t12 178h-4q-63 -84 -157.5 -118t-192.5 -34t-182 33t-146.5 94.5t-97.5 150.5t-35 204zM285 969q0 -66 18.5 -125.5t56 -104.5t95 -70.5t133.5 -25.5q152 0 233.5 92.5t81.5 239.5q0 68 -19.5 130t-58.5 110.5 t-99 78t-142 29.5q-80 0 -136.5 -29.5t-92.5 -80t-53 -114t-17 -130.5z" horiz-adv-x="1208" unicode="9"/><glyph d="M223 0v223h203v-223h-203zM223 817v223h203v-223h-203z" horiz-adv-x="649" unicode=":"/><glyph d="M223 0v223h203v-286q0 -61 -20.5 -104.5t-51 -71t-65.5 -43t-66 -21.5v113q43 4 73 41.5t30 85.5v63h-103zM223 817v223h203v-223h-203z" horiz-adv-x="649" unicode=";"/><glyph d="M129 649v103l1014 583l63 -116l-911 -519l911 -518l-63 -116z" horiz-adv-x="1384" unicode="&lt;"/><glyph d="M109 436v133h1028v-133h-1028zM109 844v133h1028v-133h-1028z" horiz-adv-x="1245" unicode="="/><glyph d="M178 182l912 518l-912 519l64 116l1013 -583v-103l-1013 -583z" horiz-adv-x="1384" unicode="&gt;"/><glyph d="M115 1001q-4 88 15.5 172t70.5 150t142 105.5t232 39.5q100 0 182.5 -24.5t140.5 -71.5t90 -116.5t32 -157.5q0 -59 -13.5 -107.5t-39 -91.5t-65.5 -83t-93 -85q-33 -27 -63.5 -54.5t-55 -60t-40 -70.5t-15.5 -87v-43h-150q-4 33 -2 72.5t11.5 80.5t29 81t54.5 77 q39 41 86 80t85.5 80t65.5 90t27 113q0 33 -12.5 72.5t-43 75.5t-82 59.5t-131.5 23.5q-31 0 -79 -7t-94 -38t-78.5 -95.5t-28.5 -179.5h-178zM457 0v223h202v-223h-202z" horiz-adv-x="1134" unicode="?"/><glyph d="M129 719q0 168 59.5 308t162 239.5t241.5 155t297 55.5q195 0 338 -59.5t237.5 -159t140.5 -228.5t46 -270q0 -80 -24.5 -162t-72 -148.5t-117 -107.5t-159.5 -41q-20 0 -46 3t-50.5 13.5t-48 30t-37.5 51.5q-10 -20 -28.5 -40.5t-47.5 -36t-72 -24.5t-102 -9 q-166 0 -260 109.5t-94 293.5q0 84 22.5 158t66.5 128t107.5 86t142.5 32q102 0 157.5 -34t84.5 -79h6v84h156v-516q0 -80 23.5 -99.5t54.5 -19.5q55 0 95 31t65.5 79t37 105.5t11.5 112.5q0 145 -49.5 257.5t-135.5 189.5t-201.5 116t-246.5 39q-147 0 -264 -53.5 t-198 -142.5t-125 -205.5t-44 -241.5q0 -170 56.5 -292t147.5 -199.5t203.5 -115.5t223.5 -38q117 0 195.5 31.5t125.5 62.5l60 -109q-94 -55 -183.5 -78.5t-197.5 -23.5q-158 0 -296 49t-241.5 146.5t-163 240t-59.5 326.5zM664 690q0 -43 8 -90t30.5 -87t62.5 -65.5 t101 -25.5q63 0 102.5 26.5t61 67.5t28.5 87t7 87q0 121 -47 196t-150 75q-55 0 -94 -23t-63.5 -59.5t-35.5 -86t-11 -102.5z" horiz-adv-x="1779" unicode="@"/><glyph d="M-2 0l543 1434h204l543 -1434h-207l-135 371h-606l-135 -371h-207zM393 532h500l-250 707z" unicode="A"/><glyph d="M180 0v1434h629q131 0 214 -34t130 -86t65.5 -116.5t18.5 -128.5q0 -57 -18.5 -109.5t-51 -93.5t-75.5 -68.5t-95 -35.5v-6q45 -8 97.5 -28.5t97.5 -61.5t75.5 -105.5t30.5 -161.5q0 -78 -22.5 -149.5t-80.5 -126.5t-156.5 -89t-252.5 -34h-606zM373 162h399 q49 0 107.5 7t107.5 32.5t82 76t33 138.5q0 70 -23.5 117t-66.5 75.5t-103.5 42t-136.5 13.5h-399v-502zM373 825h387q80 0 133 18.5t86 49.5t47 71t14 85q0 31 -9 69.5t-37.5 72.5t-83 57.5t-144.5 23.5h-393v-447z" horiz-adv-x="1423" unicode="B"/><glyph d="M98 692q0 190 42 322.5t106.5 219.5t144.5 136t155 72.5t136 29t92 5.5q172 0 282.5 -45.5t177 -116t96.5 -156.5t38 -168h-192q-4 39 -21.5 94.5t-60.5 106.5t-120 87t-200 36q-135 0 -225 -52.5t-144.5 -138.5t-78 -196.5t-23.5 -227.5q0 -125 33 -231.5t96.5 -184 t152.5 -121.5t203 -44q86 0 159 26.5t126 74.5t85 112.5t36 142.5h192q-10 -78 -40.5 -168t-99 -168t-181.5 -130t-285 -52q-160 0 -286.5 50t-213.5 145.5t-134.5 231.5t-47.5 308z" horiz-adv-x="1470" unicode="C"/><glyph d="M180 0v1434h527q37 0 101 -4.5t140 -26t155 -65.5t142.5 -122.5t103.5 -199.5t40 -295q0 -176 -39 -298t-102.5 -202t-144.5 -125t-165 -66.5t-163 -25.5t-140 -4h-455zM373 162h268q276 0 409.5 134t133.5 421q0 162 -42 269.5t-110.5 171t-156 89t-179.5 25.5h-323 v-1110z" horiz-adv-x="1484" unicode="D"/><glyph d="M180 0v1434h1022v-162h-829v-451h751v-162h-751v-497h852v-162h-1045z" horiz-adv-x="1265" unicode="E"/><glyph d="M180 0v1434h963v-162h-770v-467h674v-162h-674v-643h-193z" horiz-adv-x="1175" unicode="F"/><glyph d="M98 731q0 182 49.5 321.5t141.5 233.5t221 142.5t289 48.5q143 0 248.5 -40t176 -105.5t109.5 -149.5t49 -172h-192q-4 49 -24.5 103t-65.5 98t-120 74t-185 30q-113 0 -194 -33t-135 -86t-87 -118.5t-49.5 -131t-21.5 -124t-5 -97.5q0 -27 4 -82t20.5 -121.5 t48.5 -138.5t86 -130t135 -96t196 -38q133 0 217 48t132 118.5t66.5 152.5t18.5 148h-410v162h586v-748h-150v231h-4q-61 -129 -184 -201.5t-293 -72.5q-129 0 -250 40t-215 131t-151.5 239.5t-57.5 363.5z" horiz-adv-x="1527" unicode="G"/><glyph d="M180 0v1434h193v-598h721v598h192v-1434h-192v674h-721v-674h-193z" horiz-adv-x="1466" unicode="H"/><glyph d="M180 0v1434h193v-1434h-193z" horiz-adv-x="552" unicode="I"/><glyph d="M53 401v74h193q0 -86 12 -151.5t40 -111.5t75 -69.5t121 -23.5q76 0 123 26.5t72.5 73.5t33.5 113.5t8 144.5v957h193v-938q0 -141 -23.5 -242.5t-75 -167.5t-134.5 -97.5t-199 -31.5q-55 0 -130 11.5t-143.5 56.5t-117 134t-48.5 242z" horiz-adv-x="1077" unicode="J"/><glyph d="M180 0v1434h193v-711l708 711h260l-598 -590l637 -844h-256l-522 715l-229 -223v-492h-193z" horiz-adv-x="1378" unicode="K"/><glyph d="M180 0v1434h193v-1272h729v-162h-922z" horiz-adv-x="1095" unicode="L"/><glyph d="M180 0v1434h289l449 -1180l448 1180h289v-1434h-193v1149l4 55h-6l-465 -1204h-155l-467 1204h-4l4 -55v-1149h-193z" horiz-adv-x="1835" unicode="M"/><glyph d="M180 0v1434h213l762 -1137v1137h193v-1434h-211l-764 1137v-1137h-193z" horiz-adv-x="1527" unicode="N"/><glyph d="M98 717q0 188 51.5 330.5t141.5 237.5t216 143.5t275 48.5q119 0 241 -37t220 -124t160.5 -233.5t62.5 -365.5q0 -186 -45 -316.5t-113.5 -214.5t-150.5 -130t-157.5 -68.5t-135 -26.5t-82.5 -4t-83 4t-136 26.5t-157.5 68.5t-150.5 130t-113 213.5t-44 317.5zM303 717 q0 -86 17.5 -190.5t68.5 -195.5t145.5 -151.5t247.5 -60.5q25 0 70 4t98.5 22.5t108.5 56.5t100 103.5t74 165.5t29 246q0 127 -29 236.5t-87.5 189.5t-149.5 126t-214 46q-109 0 -187.5 -34t-131.5 -87t-85 -119.5t-48.5 -133.5t-21.5 -126t-5 -98z" horiz-adv-x="1564" unicode="O"/><glyph d="M180 0v1434h584q111 0 200 -22.5t152.5 -72t98 -128t34.5 -189.5q0 -100 -26.5 -183t-86 -142.5t-155.5 -92.5t-236 -33h-372v-571h-193zM373 733h352q172 0 250 72t78 213q0 133 -81 193.5t-247 60.5h-352v-539z" horiz-adv-x="1320" unicode="P"/><glyph d="M98 717q0 61 10.5 141t37 164t74.5 166t124 146.5t183.5 103.5t254.5 39q150 0 276 -48.5t216 -143.5t141 -237.5t51 -330.5q0 -55 -5 -126t-26.5 -148.5t-62.5 -158.5t-112 -157l161 -178l-106 -101l-170 191q-10 -6 -37 -19.5t-72 -28t-108.5 -24.5t-145.5 -10 q-209 0 -341 74.5t-208.5 188.5t-105.5 247t-29 250zM303 717q0 -84 17.5 -187.5t68.5 -194.5t145.5 -153.5t247.5 -62.5q25 0 56.5 3t63.5 9t62.5 17.5t55.5 27.5l-160 178l111 97l162 -183q66 84 97.5 190.5t31.5 258.5q0 201 -54.5 319.5t-130.5 180t-157.5 80 t-137.5 18.5q-39 0 -89 -7.5t-103 -30t-105.5 -62t-92.5 -106.5t-64.5 -163t-24.5 -229z" horiz-adv-x="1564" unicode="Q"/><glyph d="M180 0v1434h635q39 0 89 -3.5t103.5 -16.5t103.5 -37.5t90 -66.5t64.5 -106.5t24.5 -154.5q0 -61 -16.5 -120t-48 -107t-77.5 -81.5t-104 -46.5v-6q72 -27 113 -63.5t61.5 -80.5t25.5 -95.5t7 -106.5q2 -74 3 -125t5.5 -89t15.5 -67.5t34 -60.5h-203q-18 25 -29.5 48.5 t-15.5 57t-6 80.5t-2 117q0 55 -6.5 109.5t-33 98.5t-80.5 70.5t-151 26.5h-409v-608h-193zM373 770h430q35 0 83 9t93 37t75.5 78t30.5 134q0 70 -23.5 117t-64.5 75.5t-98 40t-125 11.5h-401v-502z" horiz-adv-x="1406" unicode="R"/><glyph d="M98 455h193v-10q1 -65 25 -123q26 -62 79.5 -107t130 -70.5t174.5 -25.5q96 0 163 22.5t109 59.5t61.5 85t19.5 99q0 66 -27 110t-67.5 71.5t-93 44t-101.5 26.5q-123 27 -234.5 50.5t-196.5 66.5t-135.5 115.5t-50.5 195.5q0 100 39 178t111 129t172 78t221 27 q133 0 230.5 -34t162 -91.5t98 -133t40.5 -157.5h-193q-10 88 -52 139t-95.5 77t-108.5 32t-88 6q-150 0 -241 -64.5t-91 -175.5q0 -66 30 -105.5t79 -65t113.5 -40t136.5 -28.5q96 -18 193 -42t176 -71t128 -126t49 -208q0 -106 -33.5 -180t-87 -122t-119 -74.5t-128 -39 t-116.5 -14.5t-83 -2q-76 0 -175 14.5t-189 64.5t-155 149.5t-73 269.5z" horiz-adv-x="1355" unicode="S"/><glyph d="M33 1272v162h1124v-162h-465v-1272h-192v1272h-467z" horiz-adv-x="1189" unicode="T"/><glyph d="M154 555v879h192v-854q0 -66 7 -147t44 -150.5t112 -116.5t210 -47q106 0 178 29.5t115 88t61.5 144.5t18.5 199v854h192v-879q0 -145 -30.5 -246.5t-81 -168t-113 -103.5t-126 -54.5t-119.5 -21.5t-95 -4q-131 0 -223.5 27.5t-156 72.5t-100 106.5t-56 127t-24.5 134.5 t-5 130z" horiz-adv-x="1437" unicode="U"/><glyph d="M-2 1434h211l405 -1235l406 1235h211l-502 -1434h-229z" horiz-adv-x="1228" unicode="V"/><glyph d="M0 1434h217l299 -1205l297 1205h221l297 -1205l299 1205h217l-381 -1434h-245l-297 1206l-297 -1206h-246z" horiz-adv-x="1847" unicode="W"/><glyph d="M2 0l502 733l-475 701h239l359 -564l358 564h240l-475 -701l501 -733h-247l-377 596l-377 -596h-248z" horiz-adv-x="1253" unicode="X"/><glyph d="M-2 1434h229l400 -664l397 664h229l-530 -836v-598h-193v598z" horiz-adv-x="1251" unicode="Y"/><glyph d="M59 0v176l842 1096h-797v162h1022v-154l-831 -1118h872v-162h-1108z" horiz-adv-x="1226" unicode="Z"/><glyph d="M223 -379v1813h432v-127h-252v-1559h252v-127h-432z" horiz-adv-x="770" unicode="["/><glyph d="M6 1434h150l731 -1813h-150z" horiz-adv-x="892" unicode="\"/><glyph d="M115 -252h250v1559h-250v127h432v-1813h-432v127z" horiz-adv-x="770" unicode="]"/><glyph d="M121 987l246 447h184l246 -447h-144l-194 359l-195 -359h-143z" horiz-adv-x="917" unicode="^"/><glyph d="M0 -246h1018v-133h-1018v133z" horiz-adv-x="1017" unicode="_"/><glyph d="M92 1434h217l144 -271h-164z" horiz-adv-x="651" unicode="`"/><glyph d="M82 272q0 68 20.5 122.5t78 96t155.5 69.5t256 42q57 4 96 8t62.5 17.5t34 40t10.5 77.5q0 18 -4.5 53.5t-27 70t-69.5 60t-133 25.5q-25 0 -71 -4t-91 -25.5t-77 -65.5q-31 -41 -31 -117v-9h-172q0 51 17.5 112.5t65.5 114t135 87t224 34.5q63 0 136 -12t135 -49 q63 -38 104 -106q39 -65 39 -172v-11l-10 -481q0 -31 1 -54.5t11 -39.5q11 -15 33 -23q18 -6 47 -6h16v-127q-18 -4 -35.5 -6t-46.5 -2q-37 0 -68.5 5t-55 20.5t-39 45t-23.5 80.5q-27 -49 -66 -83.5t-86 -57t-99 -33t-105 -10.5q-164 0 -265.5 75t-101.5 238zM268 279 q0 -92 56.5 -142.5t144.5 -50.5q53 0 107.5 15.5t100.5 55.5t76.5 109.5t37.5 177.5l4 88q-20 -16 -43 -23t-49.5 -11t-60.5 -7.5t-77 -9.5q-59 -10 -113.5 -19t-95.5 -28.5t-64.5 -56.5t-23.5 -98z" horiz-adv-x="1144" unicode="a"/><glyph d="M154 0v1434h180v-529q43 92 136 134t206 42t191.5 -32.5t131 -84t83 -115t45 -125.5t18.5 -115.5t4 -86.5q0 -170 -47 -279.5t-119 -172t-156 -87t-155 -24.5q-66 0 -118 15.5t-94 41t-75 58t-57 69.5h-6v-143h-168zM322 526q0 -123 26.5 -206.5t70.5 -136t99 -75 t115 -22.5q63 0 122.5 22.5t104.5 73.5t71.5 135t26.5 205q0 117 -25.5 199t-68.5 134t-100 75.5t-121 23.5q-66 0 -124 -24.5t-102 -75.5t-69.5 -133t-25.5 -195z" horiz-adv-x="1243" unicode="b"/><glyph d="M94 528q0 90 20.5 188.5t76 179.5t151.5 133t248 52q111 0 192.5 -29.5t137 -80.5t87 -117t40.5 -139h-173q-14 86 -51 135t-80 71.5t-85 27.5t-64 5q-84 0 -143.5 -33.5t-96.5 -91t-53 -135.5t-16 -166t18.5 -167.5t56 -141t99 -97.5t147.5 -36q76 0 128 28.5t85 70.5 t47.5 92.5t16.5 93.5h172q-4 -47 -23.5 -117t-68 -135.5t-135.5 -112.5t-226 -47q-27 0 -74 4t-104 20.5t-115.5 52.5t-105.5 98.5t-78 158.5t-31 235z" horiz-adv-x="1134" unicode="c"/><glyph d="M94 522q0 82 16.5 179.5t67.5 182.5t142.5 141t242.5 56q104 0 191.5 -34.5t150.5 -141.5v529h180v-1434h-167v143h-7q-12 -25 -36.5 -57.5t-65.5 -60t-100.5 -47t-141.5 -19.5q-115 0 -203 41t-147 115.5t-91 178t-32 228.5zM285 522q0 -147 35.5 -234t86 -131 t105.5 -57.5t94 -13.5q59 0 115.5 23.5t99.5 76t70 136.5t27 204q0 113 -26 194t-71 133t-103.5 76.5t-121.5 24.5q-66 0 -122 -24.5t-98 -76.5t-66.5 -134t-24.5 -197z" horiz-adv-x="1239" unicode="d"/><glyph d="M94 516q0 35 4 91.5t20.5 118.5t49.5 125.5t89 115t140 83t205 31.5q156 0 249 -54t143 -136t67.5 -179.5t21.5 -181.5q0 -12 1 -25t1 -26h-800q0 -68 18.5 -137.5t57 -125.5t101 -93t152.5 -37q63 0 114.5 17.5t87.5 47t57.5 68.5t29.5 82h172q-10 -55 -37.5 -115.5 t-80 -110.5t-134.5 -83t-202 -33q-129 0 -218.5 35t-147.5 89t-91 119.5t-48.5 127t-18.5 112t-3 74.5zM285 606h610q-2 51 -14.5 112.5t-44 114t-87 87t-143.5 34.5q-98 0 -161.5 -35.5t-99.5 -89t-48 -114t-12 -109.5z" horiz-adv-x="1179" unicode="e"/><glyph d="M33 913v127h192v142q0 135 67.5 197.5t207.5 62.5q29 0 69.5 -3t63.5 -5v-127q-53 3 -78 3h-11q-24 -1 -38 -1q-37 0 -57.5 -16.5t-29.5 -39t-11 -47t-2 -41.5v-125h227v-127h-227v-913h-181v913h-192z" horiz-adv-x="665" unicode="f"/><glyph d="M102 528q0 25 2 75t14.5 111.5t40 126t78 119t127 88t189.5 33.5q129 0 220 -47t140 -137h7v143h167v-1013q0 -100 -27.5 -170t-70.5 -117t-97 -73.5t-105.5 -41t-96.5 -17.5t-69 -3q-37 0 -102.5 4t-134.5 29.5t-127 82t-83 162.5h172q12 -45 41 -73.5t67 -46t82 -23.5 t85 -6q106 0 163.5 43t85 98t32.5 108.5t5 73.5v113q-37 -59 -71.5 -99t-74.5 -64.5t-86 -36t-104 -11.5q-92 0 -177 33t-149.5 101.5t-103.5 176t-39 258.5zM293 535q0 -158 38 -248t90 -134t106 -55.5t85 -11.5q25 0 76 13.5t102.5 59.5t90.5 134t39 239q0 197 -82 309.5 t-242 112.5q-76 0 -128 -25.5t-86 -64.5t-51.5 -88t-26.5 -95t-10 -86t-1 -60z" horiz-adv-x="1241" unicode="g"/><glyph d="M154 0v1434h180v-539q72 98 159 142t197 44q86 0 145.5 -22.5t97.5 -59t57.5 -81t28.5 -87.5t10 -80.5t1 -58.5v-692h-180v637q0 45 -2 100.5t-22.5 103.5t-64.5 80.5t-128 32.5q-37 0 -88 -12t-98.5 -52t-80 -117t-32.5 -206v-567h-180z" horiz-adv-x="1183" unicode="h"/><glyph d="M150 0v1040h180v-1040h-180zM150 1245v189h180v-189h-180z" horiz-adv-x="479" unicode="i"/><glyph d="M-27 -252q72 12 109 22.5t53.5 28t18.5 47t2 80.5v1114h180v-1136q0 -70 -11.5 -124t-39 -91t-75.5 -56.5t-120 -19.5q-27 0 -62.5 3t-54.5 5v127zM156 1245v189h180v-189h-180z" horiz-adv-x="485" unicode="j"/><glyph d="M154 0v1434h180v-889l495 495h215l-409 -401l450 -639h-208l-367 528l-176 -174v-354h-180z" horiz-adv-x="1083" unicode="k"/><glyph d="M154 0v1434h180v-1434h-180z" horiz-adv-x="487" unicode="l"/><glyph d="M154 0v1040h180v-141l-2 -12q20 45 55 81t78 61.5t91 38.5t97 13q68 0 119 -19.5t87 -51t58.5 -71.5t32.5 -81q14 31 43 69t72 72.5t103.5 58t142.5 23.5q119 0 186.5 -48t100 -113.5t40 -135t7.5 -112.5v-672h-181v659q0 41 -5 92.5t-25.5 96.5t-60.5 75.5t-109 30.5 q-45 0 -94.5 -14t-89.5 -52t-65.5 -102.5t-25.5 -164.5v-621h-180v657q0 57 -8 110.5t-30.5 94.5t-61.5 66.5t-101 25.5q-55 0 -105 -23.5t-88 -66.5t-59.5 -105.5t-21.5 -137.5v-621h-180z" horiz-adv-x="1798" unicode="m"/><glyph d="M154 0v1040h180v-145q53 78 143 132t213 54q102 0 169 -31.5t104.5 -85t53 -124t15.5 -148.5v-692h-180v637q0 41 -3 96t-22.5 104.5t-64.5 83t-129 33.5q-37 0 -88 -12t-98.5 -52t-80 -117t-32.5 -206v-567h-180z" horiz-adv-x="1185" unicode="n"/><glyph d="M94 520q0 104 26.5 204.5t87 179.5t159 128t239.5 49t239.5 -49t159 -128t87 -179t26.5 -205q0 -104 -26.5 -204.5t-87 -179.5t-158.5 -128t-240 -49q-141 0 -239.5 49t-159 128t-87 179.5t-26.5 204.5zM285 522q0 -156 38.5 -244t92 -131t106.5 -52t84 -9t84 9t106.5 52 t92.5 131.5t39 243.5q0 156 -39 244t-92.5 131t-106.5 52t-84 9t-84 -9t-106.5 -52t-92 -131t-38.5 -244z" horiz-adv-x="1212" unicode="o"/><glyph d="M154 -379v1419h168v-143h6q39 59 85 95t92 56.5t89 26.5t78 6q96 0 181 -32.5t149.5 -101t101.5 -175t37 -252.5q0 -152 -39 -258t-104.5 -174t-149.5 -98.5t-172 -30.5q-16 0 -58.5 4t-93.5 23.5t-103 57.5t-87 106v-529h-180zM322 516q0 -121 30.5 -203t78.5 -133 t104.5 -72.5t107.5 -21.5q55 0 109.5 21.5t98.5 71.5t71.5 133t27.5 208q0 201 -82 317.5t-235 116.5q-35 0 -88 -13t-102.5 -58t-85 -132.5t-35.5 -234.5z" horiz-adv-x="1234" unicode="p"/><glyph d="M94 520q0 115 29 216.5t88 178t147 121.5t209 45q129 0 212 -55t130 -129h6v143h168v-1419h-180v526q-8 -16 -29.5 -47.5t-61.5 -62.5t-101.5 -54.5t-149.5 -23.5q-147 0 -239.5 59.5t-142.5 146.5t-67.5 184t-17.5 171zM285 520q0 -125 27.5 -208t71.5 -133t100.5 -71.5 t111.5 -21.5q51 0 107.5 21.5t103.5 71.5t77.5 133t30.5 204q0 129 -28.5 214t-72.5 135t-99.5 69.5t-108.5 19.5q-63 0 -121.5 -23.5t-102.5 -74.5t-70.5 -134t-26.5 -202z" horiz-adv-x="1236" unicode="q"/><glyph d="M154 0v1040h180v-200h4q18 57 54 101t82 73.5t99.5 46t108.5 18.5l53 2v-127q-92 -4 -162.5 -24.5t-121 -63.5t-80 -110.5t-35.5 -165.5q-2 -29 -2 -55v-56v-479h-180z" horiz-adv-x="768" unicode="r"/><glyph d="M80 309h180q2 -61 26.5 -104t64.5 -69.5t90.5 -38t101.5 -11.5q90 0 139 24.5t71.5 57.5t25.5 65.5t3 49.5q0 25 -5 48t-27.5 44.5t-66.5 41t-120 38.5l-110 24q-66 14 -125.5 32.5t-104.5 51.5t-71.5 85t-26.5 134q0 86 35 144.5t92 92.5t127 48t141 14q133 0 214 -32.5 t126 -80.5t61.5 -102.5t20.5 -97.5h-172q-2 23 -11 54.5t-35 61t-73 50t-125 20.5q-8 0 -42.5 -2t-72.5 -17t-69 -49t-31 -95q0 -55 23.5 -88t63.5 -51.5t92.5 -30t107.5 -23.5q80 -18 147.5 -37.5t117.5 -51.5t78 -83t28 -131q0 -82 -29 -138.5t-72 -94t-95 -58t-100 -31 t-84 -12.5t-48 -2q-117 0 -202 27.5t-142.5 76t-86 112t-30.5 134.5z" horiz-adv-x="1048" unicode="s"/><glyph d="M33 913v127h186v312h180v-312h222v-127h-222v-661q0 -29 1 -54.5t10.5 -46t32 -31.5t65.5 -11q29 0 57.5 5t55.5 13v-127q-43 -18 -92.5 -29.5t-96.5 -11.5q-80 0 -124 24.5t-63.5 62.5t-22.5 83t-3 86v698h-186z" horiz-adv-x="667" unicode="t"/><glyph d="M154 350v690h180v-637q0 -98 16.5 -159.5t45 -97t68.5 -48t89 -12.5q113 0 174 50t89 115.5t32 129t4 92.5v567h180v-1040h-180v147h-4q-39 -68 -94.5 -105.5t-107.5 -56t-94 -22.5t-56 -4q-115 0 -183.5 39t-103.5 98.5t-45 127t-10 126.5z" horiz-adv-x="1185" unicode="u"/><glyph d="M-2 1040h195l294 -860l295 860h195l-385 -1040h-209z" horiz-adv-x="974" unicode="v"/><glyph d="M-2 1040h186l254 -833l217 833h176l218 -833l254 833h186l-336 -1040h-192l-218 834l-217 -834h-192z" horiz-adv-x="1486" unicode="w"/><glyph d="M6 0l393 543l-364 497h201l266 -385l266 385h201l-365 -497l393 -543h-200l-295 428l-295 -428h-201z" horiz-adv-x="1003" unicode="x"/><glyph d="M20 1040h216l333 -841l277 841h180l-414 -1163q-12 -37 -28.5 -83t-46 -86t-76.5 -67.5t-121 -27.5q-43 0 -81 2t-66 8v133q41 -6 59 -8t31 -2q39 0 65.5 14.5t45 39t29.5 56t23 66.5l25 78z" horiz-adv-x="1032" unicode="y"/><glyph d="M59 0v127l623 786h-580v127h779v-127l-605 -786h635v-127h-852z" horiz-adv-x="970" unicode="z"/><glyph d="M160 459v135q25 2 56.5 14.5t59 42t47 82.5t19.5 137q0 29 -1 55.5t-3 55.5t-3 54.5t-1 54.5q0 47 9 104t43 107.5t96.5 88t170.5 44.5v-109q-143 -31 -143 -195q0 -53 6 -108q6 -59 6 -117q0 -141 -56 -230t-181 -147v-4q125 -57 181 -146t56 -231q0 -59 -6 -116 q-6 -55 -6 -109q0 -164 143 -194v-109q-109 6 -171 44t-96 88t-43 107.5t-9 104.5q0 29 1 54.5t3 54t3 55.5t1 55q0 84 -19.5 137.5t-47 83t-59.5 41t-56 15.5z" horiz-adv-x="761" unicode="{"/><glyph d="M430 -459v2157h148v-2157h-148z" horiz-adv-x="1007" unicode="|"/><glyph d="M109 -272q143 31 143 194q0 53 -6 109q-6 57 -6 116q0 141 56 230.5t181 146.5v4q-125 57 -181 146.5t-56 230.5q0 57 6 117q6 55 6 108q0 164 -143 195v109q106 -6 169.5 -44t97.5 -88.5t43 -107.5t9 -104q0 -29 -1 -54.5t-3 -54.5t-3 -55.5t-1 -55.5q0 -84 19.5 -137 t47 -82.5t59.5 -42t56 -14.5v-135q-25 -4 -56.5 -15.5t-59 -41t-47 -83t-19.5 -137.5q0 -29 1 -55.5t3 -55t3 -54t1 -54.5q0 -47 -9 -104.5t-43 -107.5t-97.5 -88t-169.5 -44v109z" horiz-adv-x="761" unicode="}"/><glyph d="M109 623q14 39 38.5 86t58.5 87t78 66.5t101 26.5q45 0 93 -14.5t85 -32.5q53 -29 103.5 -55.5t103.5 -55.5q2 -2 35 -15.5t74 -13.5q14 0 35.5 6.5t44 25t47 51t45.5 85.5l88 -36q-14 -41 -38 -87.5t-58.5 -86t-79.5 -66.5t-101 -27q-45 0 -93 14.5t-87 32.5 q-53 29 -104.5 57.5t-104.5 53.5q-23 10 -53.5 18.5t-52.5 8.5q-59 0 -104.5 -49.5t-67.5 -116.5z" horiz-adv-x="1247" unicode="~"/><glyph d="M223 158l51 473h101l51 -473v-537h-203v537zM223 817v223h203v-223h-203z" horiz-adv-x="649" unicode="¡"/><glyph d="M131 528q0 125 32 226.5t91 173t142 111.5t188 42v136h108v-136q72 -4 138.5 -29.5t120 -72.5t88 -113.5t44.5 -150.5h-172q-6 39 -21.5 80t-42 73.5t-65.5 56t-90 29.5v-868q55 8 97 36t70 67.5t42 87t19 94.5h172q-8 -78 -37 -152t-80 -131t-122 -92t-161 -37v-147 h-108v147q-127 2 -213 54.5t-139.5 134t-77 182t-23.5 198.5zM322 528q0 -78 14 -151.5t45 -134t81 -102.5t122 -54v868q-76 -6 -126 -48t-81 -102.5t-43 -133t-12 -142.5z" horiz-adv-x="1208" unicode="¢"/><glyph d="M94 623v125h150q-20 43 -34.5 77.5t-24 66.5t-14.5 65.5t-5 76.5q0 113 32.5 188.5t84 125t112 76t115.5 38t97 13.5t57 2q57 0 133.5 -13.5t147.5 -63.5t121 -147.5t50 -265.5h-182v66q0 57 -16.5 110.5t-50 93t-87 63t-129.5 23.5q-70 0 -125 -24.5t-93 -67.5 t-58.5 -101t-20.5 -128q0 -41 7.5 -71.5t19.5 -61.5t29.5 -64.5t40.5 -76.5h288v-125h-239q10 -33 14 -62t4 -65q0 -70 -23.5 -143.5t-109.5 -151.5l4 -13q33 14 69 18.5t81 4.5q55 0 91 -12.5t77 -28.5q59 -25 98 -36t69 -11q59 0 103.5 30.5t71.5 63.5l90 -123 q-55 -55 -118 -96t-153 -41q-25 0 -82 8t-168 53q-37 16 -70.5 30.5t-101.5 14.5q-43 0 -99 -14t-122 -63l-92 133q94 66 150.5 147.5t56.5 194.5q0 45 -10.5 83t-22.5 79h-213z" horiz-adv-x="1208" unicode="£"/><glyph d="M-104 109l227 227q-59 84 -83 172t-24 168q0 61 19.5 154.5t87.5 185.5l-227 229l135 135l225 -229q88 68 179 92.5t169 24.5q74 0 131.5 -14.5t101.5 -33t72.5 -38t42.5 -31.5l228 229l135 -135l-228 -229q59 -82 84 -170t25 -170q0 -80 -24.5 -168t-84.5 -172l228 -227 l-135 -136l-228 228q-16 -12 -44.5 -31.5t-71.5 -38t-100.5 -32t-131.5 -13.5q-72 0 -130 13.5t-101 32t-73 37.5t-44 32l-225 -228zM168 676q0 -90 34 -170t93 -139.5t139 -94t170 -34.5q92 0 172 34.5t139.5 95t94 139.5t34.5 169t-34.5 170t-95 140.5t-140.5 95 t-170 34.5t-169 -34.5t-138 -95t-94 -140.5t-35 -170z" horiz-adv-x="1208" unicode="¤"/><glyph d="M-25 1434h230l399 -664l397 664h230l-531 -836v-80h215v-94h-215v-66h215v-94h-215v-264h-192v264h-215v94h215v66h-215v94h215v80z" horiz-adv-x="1208" unicode="¥"/><glyph d="M430 422h148v-881h-148v881zM430 817v881h148v-881h-148z" horiz-adv-x="1007" unicode="¦"/><glyph d="M137 643q0 143 71 223t173 103q-59 41 -84 98t-25 141q0 55 20.5 104.5t61.5 88.5t102.5 61.5t145.5 22.5q31 0 87 -7.5t111.5 -40t95.5 -102t36 -194.5h-152q-2 72 -19.5 112.5t-44 62t-57 28t-59.5 6.5q-78 0 -116 -41t-38 -105q0 -57 27 -95t71 -64.5t99 -48 t113 -46.5q72 -31 129 -67.5t96 -82.5t59.5 -104.5t20.5 -134.5q0 -88 -28.5 -146.5t-68.5 -96t-83 -56t-70 -26.5q49 -16 74.5 -50t37 -71t12.5 -68t1 -41q0 -74 -21.5 -125t-55.5 -84t-75 -52t-80.5 -27.5t-73.5 -10.5t-52 -2q-121 0 -190 43t-103.5 101.5t-43 120 t-8.5 98.5l152 -2q-2 -37 7 -77t31.5 -73t59.5 -54.5t92 -21.5q57 0 94.5 14.5t59 37t28.5 50t7 54.5q0 53 -22.5 88t-60.5 60.5t-90 46t-112 45.5q-55 23 -114.5 53t-110.5 78.5t-84 115t-33 160.5zM309 653q0 -76 28 -125t77 -85.5t118.5 -67.5t153.5 -68q31 8 65.5 27.5 t65.5 50.5t50.5 76t19.5 108q0 51 -17.5 94.5t-60.5 80t-117 72.5t-186 77q-109 -31 -153 -97.5t-44 -142.5z" horiz-adv-x="1198" unicode="§"/><glyph d="M109 1245v189h180v-189h-180zM514 1245v189h180v-189h-180z" horiz-adv-x="802" unicode="¨"/><glyph d="M115 717q0 147 55 278t152.5 228.5t227.5 154t281 56.5q150 0 281 -56.5t228.5 -154t152.5 -228.5t55 -278t-55 -278.5t-152.5 -228.5t-228.5 -153.5t-281 -56.5q-152 0 -281.5 56.5t-227 153.5t-152.5 228.5t-55 278.5zM250 717q0 -127 45 -237.5t124 -193.5t184.5 -130 t227.5 -47q123 0 228.5 47t184.5 130t124 193.5t45 237.5t-45 237.5t-124 193.5t-184.5 130t-228.5 47t-228 -47t-184 -130t-124 -193.5t-45 -237.5zM500 719q0 117 32.5 191.5t82 117.5t107.5 59.5t109 16.5q43 0 92.5 -11.5t92.5 -38t71.5 -72.5t28.5 -114h-127 q-2 16 -8 40t-23.5 44.5t-47 34.5t-79.5 14q-66 0 -103.5 -30.5t-58 -74.5t-25.5 -92t-5 -85q0 -29 7 -74t28.5 -87t61.5 -72.5t106 -30.5q47 0 76.5 17t47 41t24.5 50.5t9 44.5h136q-14 -82 -45 -132t-71 -77.5t-87 -37t-92 -9.5q-104 0 -171 38t-105 93.5t-51 119 t-13 116.5z" horiz-adv-x="1662" unicode="©"/><glyph d="M82 662v63h612v-63h-612zM98 991q0 68 35 105t83 56t100.5 25.5t89.5 10.5q33 2 55 4t36.5 10t21.5 24.5t7 47.5q0 8 -2 28.5t-14 42t-41 39t-82 17.5q-25 0 -52.5 -3t-51 -17.5t-41 -41t-19.5 -71.5h-102q0 33 10 69.5t39 67.5t81 51.5t136 20.5q92 0 142.5 -26 t74 -61.5t27.5 -70.5t4 -53l-6 -289q0 -35 8 -56.5t57 -17.5v-76q-10 -2 -21 -3t-28 -1q-16 0 -34.5 2t-35 10.5t-28.5 27t-15 50.5q-35 -59 -94 -84.5t-119 -25.5q-45 0 -84.5 9t-70.5 30.5t-48.5 58.5t-17.5 90zM211 995q0 -57 34 -86.5t87 -29.5q31 0 63.5 9t60 33.5 t47 65.5t21.5 107l2 53q-8 -8 -16 -11t-22.5 -5.5t-38 -5.5t-60.5 -9t-68.5 -11t-56 -17.5t-39 -34t-14.5 -58.5z" horiz-adv-x="765" unicode="ª"/><glyph d="M133 473v168l305 268v-168l-217 -184l217 -184v-168zM494 473v168l305 268v-168l-217 -184l217 -184v-168z" horiz-adv-x="958" unicode="«"/><glyph d="M106 659v136h1027v-420h-136v284h-891z" horiz-adv-x="1241" unicode="¬"/><glyph d="M168 461v174h541v-174h-541z" horiz-adv-x="876" unicode="­"/><glyph d="M115 717q0 147 55 278t152.5 228.5t227.5 154t281 56.5q150 0 281 -56.5t228.5 -154t152.5 -228.5t55 -278t-55 -278.5t-152.5 -228.5t-228.5 -153.5t-281 -56.5q-152 0 -281.5 56.5t-227 153.5t-152.5 228.5t-55 278.5zM250 717q0 -127 45 -237.5t124 -193.5t184.5 -130 t227.5 -47q123 0 228.5 47t184.5 130t124 193.5t45 237.5t-45 237.5t-124 193.5t-184.5 130t-228.5 47t-228 -47t-184 -130t-124 -193.5t-45 -237.5zM569 365v716h318q29 0 68.5 -6t76.5 -27.5t63.5 -62.5t26.5 -111q0 -18 -4 -39.5t-16 -44t-37 -43t-64 -36.5v-4 q35 -6 54.5 -24.5t30 -42.5t13.5 -51.5t5 -53.5q2 -41 3 -68t3 -44t7 -30.5t16 -27.5h-138q-10 10 -14 20t-6 27.5t-3 44t-3 71.5q0 25 -4 48.5t-19.5 43t-46.5 31t-88 11.5h-109v-297h-133zM702 760h154q41 0 66.5 10t40 27.5t19.5 38t5 38.5q0 66 -40 87.5t-105 21.5h-140 v-223z" horiz-adv-x="1662" unicode="®"/><glyph d="M109 1255v123h647v-123h-324h-323z" horiz-adv-x="864" unicode="¯"/><glyph d="M82 1239q0 82 57.5 139.5t139.5 57.5t139 -57.5t57 -139.5t-57.5 -139.5t-138.5 -57.5q-82 0 -139.5 57.5t-57.5 139.5zM176 1239q0 -41 31 -71.5t72 -30.5t71.5 30.5t30.5 71.5t-31 71.5t-71 30.5q-41 0 -72 -30.5t-31 -71.5z" horiz-adv-x="557" unicode="°"/><glyph d="M109 164v133h1028v-133h-1028zM109 793v133h446v405h135v-405h447v-133h-447v-365h-135v365h-446z" horiz-adv-x="1245" unicode="±"/><glyph d="M82 573q2 78 22.5 133.5t58.5 99.5t91 81t119 78q37 23 68.5 46t55 49.5t38 60.5t14.5 77q0 25 -7 53.5t-25.5 53t-52.5 41t-87 16.5q-86 0 -132 -46t-46 -124v-33h-115v27q0 18 7 64t37 92.5t88 82t163 35.5q129 0 209 -67.5t80 -194.5q0 -70 -25 -120t-64.5 -89 t-89 -69.5t-98.5 -61.5q-96 -61 -134 -102t-46 -84h455v-99h-584z" horiz-adv-x="749" unicode="²"/><glyph d="M76 836h110q0 -59 20.5 -96.5t49.5 -59t59.5 -28.5t55.5 -7q16 0 48 4t62.5 21.5t54 52.5t23.5 98q0 72 -41 112t-110 40h-89v98h35q14 0 45 3t62 16.5t54.5 43t23.5 85.5q0 20 -7.5 45.5t-26 47t-51 36t-81.5 14.5q-86 0 -125 -49t-43 -142h-107q0 45 11.5 96.5t42 94.5 t85 70.5t140.5 27.5q125 0 198.5 -63.5t73.5 -173.5q0 -43 -13 -76t-33.5 -55.5t-45.5 -37t-49 -22.5v-6q66 -10 116 -62.5t50 -150.5q0 -125 -81 -195.5t-216 -70.5q-92 0 -150.5 29.5t-91.5 72.5t-45 93.5t-14 93.5z" horiz-adv-x="749" unicode="³"/><glyph d="M199 1163l143 271h217l-197 -271h-163z" horiz-adv-x="651" unicode="´"/><glyph d="M180 -379v1419h180v-567q0 -29 3.5 -90t25 -123.5t70.5 -110t141 -47.5q88 0 136 43t70.5 102.5t28 122t5.5 103.5v567h180v-790q0 -23 2 -46.5t10 -42t25.5 -29.5t50.5 -7l20 2v-127q-31 -4 -51 -6t-37 -2q-63 0 -102 12t-60.5 31.5t-29.5 43t-8 48.5q-27 -51 -57.5 -84 t-62.5 -51.5t-62.5 -25.5t-57.5 -7q-68 0 -133.5 38t-106.5 109v-485h-180z" horiz-adv-x="1200" unicode="µ"/><glyph d="M88 1096q0 70 26.5 132t72.5 107t107.5 72t131.5 27h127v-1813h-127v1137q-72 2 -133.5 27.5t-106.5 70.5t-71.5 105.5t-26.5 134.5zM748 -379v1813h126v-1813h-126z" horiz-adv-x="1017" unicode="¶"/><glyph d="M162 436v226h203v-226h-203z" horiz-adv-x="524" unicode="·"/><glyph d="M94 -475l35 115q16 -6 45 -11.5t82 -5.5q70 0 99.5 21.5t29.5 54.5q0 31 -18.5 46t-45 22.5t-57.5 7.5h-55h-35l31 106h65q88 0 141.5 -19.5t83 -49t39 -65.5t9.5 -66q0 -27 -10.5 -57t-39 -55.5t-80 -43t-132.5 -17.5q-23 0 -69 3.5t-118 13.5z" horiz-adv-x="622" unicode="¸"/><glyph d="M180 1221v59h25q78 0 137 41t70 113h80v-861h-115v648h-197z" horiz-adv-x="749" unicode="¹"/><glyph d="M94 662v63h613v-63h-613zM94 1141q0 55 13.5 114.5t48 108.5t94 81t149.5 32q92 0 151.5 -32t94.5 -81t48.5 -108.5t13.5 -114.5t-13.5 -114.5t-48.5 -110t-94 -82t-152 -31.5q-90 0 -149.5 31.5t-94 82t-48 110t-13.5 114.5zM209 1141q0 -18 3 -62.5t21.5 -88.5 t57.5 -77.5t108 -33.5q70 0 109 33.5t57.5 78.5t22.5 88t4 62q0 94 -23.5 146t-54.5 78t-63.5 31t-51.5 5q-18 0 -50 -5t-62.5 -31t-54 -78t-23.5 -146z" horiz-adv-x="800" unicode="º"/><glyph d="M160 205v168l217 184l-217 184v168l305 -268v-168zM520 205v168l217 184l-217 184v168l305 -268v-168z" horiz-adv-x="958" unicode="»"/><glyph d="M180 1221v59h25q78 0 137 41t70 113h80v-861h-115v648h-197zM369 0l921 1434h115l-922 -1434h-114zM989 199v98l404 563h116v-563h136v-98h-136v-199h-114v199h-406zM1100 297h295v412z" horiz-adv-x="1691" unicode="¼"/><glyph d="M180 1221v59h25q78 0 137 41t70 113h80v-861h-115v648h-197zM287 0l921 1434h115l-922 -1434h-114zM1024 0q2 78 22.5 133t58.5 99t91 81t119 78q37 23 68.5 46.5t55 50t38 60.5t14.5 77q0 25 -7 53.5t-25.5 53t-52.5 40.5t-87 16q-86 0 -132 -46t-46 -124v-32h-115v26 q0 18 7 64.5t37 92.5t88.5 82t162.5 36q129 0 209 -67.5t80 -194.5q0 -70 -24.5 -120t-64.5 -89t-89.5 -70t-98.5 -61q-96 -61 -134 -102.5t-46 -84.5h455v-98h-584z" horiz-adv-x="1691" unicode="½"/><glyph d="M76 836h110q0 -59 20.5 -96.5t49.5 -59t59.5 -28.5t55.5 -7q16 0 48 4t62.5 21.5t54 52.5t23.5 98q0 72 -41 112t-110 40h-89v98h35q14 0 45 3t62 16.5t54.5 43t23.5 85.5q0 20 -7.5 45.5t-26 47t-51 36t-81.5 14.5q-86 0 -125 -49t-43 -142h-107q0 45 11.5 96.5t42 94.5 t85 70.5t140.5 27.5q125 0 198.5 -63.5t73.5 -173.5q0 -43 -13 -76t-33.5 -55.5t-45.5 -37t-49 -22.5v-6q66 -10 116 -62.5t50 -150.5q0 -125 -81 -195.5t-216 -70.5q-92 0 -150.5 29.5t-91.5 72.5t-45 93.5t-14 93.5zM410 0l921 1434h115l-922 -1434h-114zM989 199v98 l404 563h116v-563h136v-98h-136v-199h-114v199h-406zM1100 297h295v412z" horiz-adv-x="1691" unicode="¾"/><glyph d="M115 -43q0 61 13 108.5t40 90.5t66.5 83t93.5 85q29 25 59.5 52t56 61t42 74t16.5 87v29h147q10 -82 -15.5 -164t-74.5 -135q-41 -43 -88 -81t-86 -79t-64.5 -90t-25.5 -113q0 -35 12 -75t44 -74.5t85 -58t137 -23.5q92 0 146.5 33.5t83 83t36 104.5t3.5 98h178 q4 -154 -40 -246t-111.5 -141t-147.5 -64.5t-150 -15.5q-102 0 -186 24.5t-143.5 73t-93 117t-33.5 156.5zM475 817v223h203v-223h-203z" horiz-adv-x="1134" unicode="¿"/><glyph d="M-2 0l543 1434h204l543 -1434h-207l-135 371h-606l-135 -371h-207zM393 532h500l-250 707zM397 1843h230l153 -287h-172z" unicode="À"/><glyph d="M-2 0l543 1434h204l543 -1434h-207l-135 371h-606l-135 -371h-207zM393 532h500l-250 707zM506 1556l151 287h230l-209 -287h-172z" unicode="Á"/><glyph d="M-2 0l543 1434h204l543 -1434h-207l-135 371h-606l-135 -371h-207zM242 1556l256 287h290l256 -287h-192l-209 216l-209 -216h-192zM393 532h500l-250 707z" unicode="Â"/><glyph d="M-2 0l543 1434h204l543 -1434h-207l-135 371h-606l-135 -371h-207zM242 1579q6 41 25.5 80t50 68.5t72.5 48t93 18.5q66 0 101.5 -16.5t58.5 -30.5q47 -29 86 -44t74 -15t70.5 20.5t45.5 69.5h125q-6 -39 -22.5 -79t-46 -72t-71.5 -51.5t-97 -19.5t-92 15.5t-88 40.5 q-41 20 -72 35.5t-72 15.5q-43 0 -75.5 -21.5t-38.5 -62.5h-127zM393 532h500l-250 707z" unicode="Ã"/><glyph d="M-2 0l543 1434h204l543 -1434h-207l-135 371h-606l-135 -371h-207zM326 1581v162h192v-162h-192zM393 532h500l-250 707zM768 1581v162h192v-162h-192z" unicode="Ä"/><glyph d="M-2 0l543 1434h204l543 -1434h-207l-135 371h-606l-135 -371h-207zM393 532h500l-250 707zM443 1683q0 84 58 142.5t142 58.5t142.5 -58.5t58.5 -142.5t-58.5 -142t-142.5 -58t-142 58t-58 142zM529 1683q0 -47 33.5 -80.5t80.5 -33.5t81 33.5t34 80.5t-34 81t-81 34 t-80.5 -34t-33.5 -81z" unicode="Å"/><glyph d="M-2 0l799 1434h1194v-162h-830v-451h750v-162h-750v-497h850v-162h-1042v371h-541l-203 -371h-227zM514 532h455v740h-56z" horiz-adv-x="2052" unicode="Æ"/><glyph d="M98 692q0 190 42 322.5t106.5 219.5t144.5 136t155 72.5t136 29t92 5.5q172 0 282.5 -45.5t177 -116t96.5 -156.5t38 -168h-192q-4 39 -21.5 94.5t-60.5 106.5t-120 87t-200 36q-135 0 -225 -52.5t-144.5 -138.5t-78 -196.5t-23.5 -227.5q0 -125 33 -231.5t96.5 -184 t152.5 -121.5t203 -44q86 0 159 26.5t126 74.5t85 112.5t36 142.5h192q-10 -78 -40.5 -168t-99 -168t-181.5 -130t-285 -52q-160 0 -286.5 50t-213.5 145.5t-134.5 231.5t-47.5 308zM518 -475l35 115q16 -6 45 -11.5t82 -5.5q70 0 99.5 21.5t29.5 54.5q0 31 -18.5 46 t-45 22.5t-57.5 7.5h-55h-35l31 106h65q88 0 141.5 -19.5t83 -49t39 -65.5t9.5 -66q0 -27 -10.5 -57t-39 -55.5t-80 -43t-132.5 -17.5q-23 0 -69 3.5t-118 13.5z" horiz-adv-x="1470" unicode="Ç"/><glyph d="M180 0v1434h1022v-162h-829v-451h751v-162h-751v-497h852v-162h-1045zM387 1843h230l153 -287h-172z" horiz-adv-x="1265" unicode="È"/><glyph d="M180 0v1434h1022v-162h-829v-451h751v-162h-751v-497h852v-162h-1045zM496 1556l151 287h230l-209 -287h-172z" horiz-adv-x="1265" unicode="É"/><glyph d="M180 0v1434h1022v-162h-829v-451h751v-162h-751v-497h852v-162h-1045zM283 1556l256 287h290l256 -287h-192l-209 216l-209 -216h-192z" horiz-adv-x="1265" unicode="Ê"/><glyph d="M180 0v1434h1022v-162h-829v-451h751v-162h-751v-497h852v-162h-1045zM355 1581v162h192v-162h-192zM797 1581v162h192v-162h-192z" horiz-adv-x="1265" unicode="Ë"/><glyph d="M37 1843h230l153 -287h-172zM180 0v1434h193v-1434h-193z" horiz-adv-x="552" unicode="Ì"/><glyph d="M144 1556l151 287h230l-209 -287h-172zM180 0v1434h193v-1434h-193z" horiz-adv-x="552" unicode="Í"/><glyph d="M-120 1556l256 287h290l256 -287h-192l-209 216l-209 -216h-192zM180 0v1434h193v-1434h-193z" horiz-adv-x="552" unicode="Î"/><glyph d="M-36 1581v162h192v-162h-192zM180 0v1434h193v-1434h-193zM406 1581v162h192v-162h-192z" horiz-adv-x="552" unicode="Ï"/><glyph d="M6 750v127h193v557h526q37 0 101.5 -4.5t140 -26t154.5 -65.5t142.5 -122.5t103.5 -199.5t40 -295q0 -176 -39 -298t-102.5 -202t-144.5 -125t-165 -66.5t-162.5 -25.5t-140.5 -4h-454v750h-193zM391 162h268q276 0 409.5 134t133.5 421q0 162 -42 269.5t-110.5 171 t-155.5 89t-179 25.5h-324v-395h406v-127h-406v-588z" horiz-adv-x="1503" unicode="Ð"/><glyph d="M180 0v1434h213l762 -1137v1137h193v-1434h-211l-764 1137v-1137h-193zM363 1579q6 41 25.5 80t50 68.5t72.5 48t93 18.5q66 0 101.5 -16.5t58.5 -30.5q47 -29 86 -44t74 -15t70.5 20.5t45.5 69.5h125q-6 -39 -22.5 -79t-46 -72t-71.5 -51.5t-97 -19.5t-92 15.5t-88 40.5 q-41 20 -72 35.5t-72 15.5q-43 0 -75.5 -21.5t-38.5 -62.5h-127z" horiz-adv-x="1527" unicode="Ñ"/><glyph d="M98 717q0 188 51.5 330.5t141.5 237.5t216 143.5t275 48.5q119 0 241 -37t220 -124t160.5 -233.5t62.5 -365.5q0 -186 -45 -316.5t-113.5 -214.5t-150.5 -130t-157.5 -68.5t-135 -26.5t-82.5 -4t-83 4t-136 26.5t-157.5 68.5t-150.5 130t-113 213.5t-44 317.5zM303 717 q0 -86 17.5 -190.5t68.5 -195.5t145.5 -151.5t247.5 -60.5q25 0 70 4t98.5 22.5t108.5 56.5t100 103.5t74 165.5t29 246q0 127 -29 236.5t-87.5 189.5t-149.5 126t-214 46q-109 0 -187.5 -34t-131.5 -87t-85 -119.5t-48.5 -133.5t-21.5 -126t-5 -98zM536 1843h230l153 -287 h-172z" horiz-adv-x="1564" unicode="Ò"/><glyph d="M98 717q0 188 51.5 330.5t141.5 237.5t216 143.5t275 48.5q119 0 241 -37t220 -124t160.5 -233.5t62.5 -365.5q0 -186 -45 -316.5t-113.5 -214.5t-150.5 -130t-157.5 -68.5t-135 -26.5t-82.5 -4t-83 4t-136 26.5t-157.5 68.5t-150.5 130t-113 213.5t-44 317.5zM303 717 q0 -86 17.5 -190.5t68.5 -195.5t145.5 -151.5t247.5 -60.5q25 0 70 4t98.5 22.5t108.5 56.5t100 103.5t74 165.5t29 246q0 127 -29 236.5t-87.5 189.5t-149.5 126t-214 46q-109 0 -187.5 -34t-131.5 -87t-85 -119.5t-48.5 -133.5t-21.5 -126t-5 -98zM645 1556l151 287h230 l-209 -287h-172z" horiz-adv-x="1564" unicode="Ó"/><glyph d="M98 717q0 188 51.5 330.5t141.5 237.5t216 143.5t275 48.5q119 0 241 -37t220 -124t160.5 -233.5t62.5 -365.5q0 -186 -45 -316.5t-113.5 -214.5t-150.5 -130t-157.5 -68.5t-135 -26.5t-82.5 -4t-83 4t-136 26.5t-157.5 68.5t-150.5 130t-113 213.5t-44 317.5zM303 717 q0 -86 17.5 -190.5t68.5 -195.5t145.5 -151.5t247.5 -60.5q25 0 70 4t98.5 22.5t108.5 56.5t100 103.5t74 165.5t29 246q0 127 -29 236.5t-87.5 189.5t-149.5 126t-214 46q-109 0 -187.5 -34t-131.5 -87t-85 -119.5t-48.5 -133.5t-21.5 -126t-5 -98zM381 1556l256 287h290 l256 -287h-192l-209 216l-209 -216h-192z" horiz-adv-x="1564" unicode="Ô"/><glyph d="M98 717q0 188 51.5 330.5t141.5 237.5t216 143.5t275 48.5q119 0 241 -37t220 -124t160.5 -233.5t62.5 -365.5q0 -186 -45 -316.5t-113.5 -214.5t-150.5 -130t-157.5 -68.5t-135 -26.5t-82.5 -4t-83 4t-136 26.5t-157.5 68.5t-150.5 130t-113 213.5t-44 317.5zM303 717 q0 -86 17.5 -190.5t68.5 -195.5t145.5 -151.5t247.5 -60.5q25 0 70 4t98.5 22.5t108.5 56.5t100 103.5t74 165.5t29 246q0 127 -29 236.5t-87.5 189.5t-149.5 126t-214 46q-109 0 -187.5 -34t-131.5 -87t-85 -119.5t-48.5 -133.5t-21.5 -126t-5 -98zM381 1579q6 41 25.5 80 t50 68.5t72.5 48t93 18.5q66 0 101.5 -16.5t58.5 -30.5q47 -29 86 -44t74 -15t70.5 20.5t45.5 69.5h125q-6 -39 -22.5 -79t-46 -72t-71.5 -51.5t-97 -19.5t-92 15.5t-88 40.5q-41 20 -72 35.5t-72 15.5q-43 0 -75.5 -21.5t-38.5 -62.5h-127z" horiz-adv-x="1564" unicode="Õ"/><glyph d="M98 717q0 188 51.5 330.5t141.5 237.5t216 143.5t275 48.5q119 0 241 -37t220 -124t160.5 -233.5t62.5 -365.5q0 -186 -45 -316.5t-113.5 -214.5t-150.5 -130t-157.5 -68.5t-135 -26.5t-82.5 -4t-83 4t-136 26.5t-157.5 68.5t-150.5 130t-113 213.5t-44 317.5zM303 717 q0 -86 17.5 -190.5t68.5 -195.5t145.5 -151.5t247.5 -60.5q25 0 70 4t98.5 22.5t108.5 56.5t100 103.5t74 165.5t29 246q0 127 -29 236.5t-87.5 189.5t-149.5 126t-214 46q-109 0 -187.5 -34t-131.5 -87t-85 -119.5t-48.5 -133.5t-21.5 -126t-5 -98zM465 1581v162h192v-162 h-192zM907 1581v162h192v-162h-192z" horiz-adv-x="1564" unicode="Ö"/><glyph d="M154 354l372 373l-372 373l96 96l373 -373l372 373l97 -96l-373 -373l373 -373l-97 -96l-372 373l-373 -373z" horiz-adv-x="1245" unicode="×"/><glyph d="M51 -53l203 241q-23 29 -49.5 73t-50 108.5t-40 150.5t-16.5 197q0 188 51.5 330.5t141.5 237.5t216 143.5t275 48.5q115 0 235 -34t197 -106l166 199l101 -70l-181 -215q27 -33 55.5 -78t53.5 -109.5t41 -149.5t16 -197q0 -186 -45 -316.5t-113.5 -214.5t-150.5 -130 t-157.5 -68.5t-135 -26.5t-82.5 -4q-41 0 -96 4t-115.5 19.5t-121 44t-113.5 77.5l-193 -231zM303 717q0 -84 9.5 -145.5t21.5 -106.5t25.5 -75t23.5 -48l715 856q-29 29 -69 51.5t-83 36.5t-87 21.5t-77 7.5q-39 0 -89 -7.5t-103 -30t-105.5 -62t-92.5 -106.5t-64.5 -163 t-24.5 -229zM455 244q14 -16 39.5 -38t65.5 -41.5t95.5 -32.5t126.5 -13q25 0 70 4t98.5 22.5t108.5 56.5t100 103.5t74 165.5t29 246q0 96 -18.5 190t-72.5 191z" horiz-adv-x="1564" unicode="Ø"/><glyph d="M154 555v879h192v-854q0 -66 7 -147t44 -150.5t112 -116.5t210 -47q106 0 178 29.5t115 88t61.5 144.5t18.5 199v854h192v-879q0 -145 -30.5 -246.5t-81 -168t-113 -103.5t-126 -54.5t-119.5 -21.5t-95 -4q-131 0 -223.5 27.5t-156 72.5t-100 106.5t-56 127t-24.5 134.5 t-5 130zM473 1843h230l153 -287h-172z" horiz-adv-x="1437" unicode="Ù"/><glyph d="M154 555v879h192v-854q0 -66 7 -147t44 -150.5t112 -116.5t210 -47q106 0 178 29.5t115 88t61.5 144.5t18.5 199v854h192v-879q0 -145 -30.5 -246.5t-81 -168t-113 -103.5t-126 -54.5t-119.5 -21.5t-95 -4q-131 0 -223.5 27.5t-156 72.5t-100 106.5t-56 127t-24.5 134.5 t-5 130zM582 1556l151 287h230l-209 -287h-172z" horiz-adv-x="1437" unicode="Ú"/><glyph d="M154 555v879h192v-854q0 -66 7 -147t44 -150.5t112 -116.5t210 -47q106 0 178 29.5t115 88t61.5 144.5t18.5 199v854h192v-879q0 -145 -30.5 -246.5t-81 -168t-113 -103.5t-126 -54.5t-119.5 -21.5t-95 -4q-131 0 -223.5 27.5t-156 72.5t-100 106.5t-56 127t-24.5 134.5 t-5 130zM318 1556l256 287h290l256 -287h-192l-209 216l-209 -216h-192z" horiz-adv-x="1437" unicode="Û"/><glyph d="M154 555v879h192v-854q0 -66 7 -147t44 -150.5t112 -116.5t210 -47q106 0 178 29.5t115 88t61.5 144.5t18.5 199v854h192v-879q0 -145 -30.5 -246.5t-81 -168t-113 -103.5t-126 -54.5t-119.5 -21.5t-95 -4q-131 0 -223.5 27.5t-156 72.5t-100 106.5t-56 127t-24.5 134.5 t-5 130zM402 1581v162h192v-162h-192zM844 1581v162h192v-162h-192z" horiz-adv-x="1437" unicode="Ü"/><glyph d="M-2 1434h229l400 -664l397 664h229l-530 -836v-598h-193v598zM488 1556l151 287h230l-209 -287h-172z" horiz-adv-x="1251" unicode="Ý"/><glyph d="M180 0v1434h193v-285h391q111 0 200 -22.5t152.5 -71.5t98 -128t34.5 -190q0 -100 -26.5 -183t-86 -142.5t-155.5 -92t-236 -32.5h-372v-287h-193zM373 449h352q172 0 250 71.5t78 212.5q0 133 -81 193.5t-247 60.5h-352v-538z" horiz-adv-x="1320" unicode="Þ"/><glyph d="M154 0v932q0 86 10 178t53 167t130 124t241 49q98 0 170.5 -26.5t121 -72.5t72 -110.5t23.5 -138.5q0 -49 -14.5 -96.5t-39 -85t-59.5 -64.5t-78 -37v-6q63 -12 117.5 -44t93.5 -82t61.5 -116.5t22.5 -148.5q0 -106 -27.5 -180t-71.5 -122t-96.5 -76t-100.5 -40t-88 -15 t-56 -3q-45 0 -82 4t-72 10v133q33 -12 60.5 -15t60.5 -3q20 0 67.5 7t96.5 37.5t86 93t37 173.5q0 109 -39 170t-94 92t-116.5 38t-106.5 7h-52v125l64 -2q25 0 65.5 4t80.5 27.5t70 71t30 131.5q0 37 -9.5 78.5t-33 75.5t-63.5 56.5t-103 22.5q-53 0 -98.5 -11.5t-80 -48 t-54 -109.5t-19.5 -196v-958h-180z" horiz-adv-x="1159" unicode="ß"/><glyph d="M82 272q0 68 20.5 122.5t78 96t155.5 69.5t256 42q57 4 96 8t62.5 17.5t34 40t10.5 77.5q0 18 -4.5 53.5t-27 70t-69.5 60t-133 25.5q-25 0 -71 -4t-91 -25.5t-77.5 -65.5t-30.5 -126h-172q0 51 17.5 112.5t65.5 114t135 87t224 34.5q63 0 136 -12t135.5 -49 t103.5 -105.5t39 -183.5l-10 -481q0 -31 1 -54.5t11 -39t32.5 -23.5t63.5 -6v-127q-18 -4 -35.5 -6t-46.5 -2q-37 0 -68.5 5t-55 20.5t-39 45t-23.5 80.5q-27 -49 -66 -83.5t-86 -57t-99 -33t-105 -10.5q-164 0 -265.5 75t-101.5 238zM268 279q0 -92 56.5 -142.5 t144.5 -50.5q53 0 107.5 15.5t100.5 55.5t76.5 109.5t37.5 177.5l4 88q-20 -16 -43 -23t-49.5 -11t-60.5 -7.5t-77 -9.5q-59 -10 -113.5 -19t-95.5 -28.5t-64.5 -56.5t-23.5 -98zM338 1434h217l144 -271h-164z" horiz-adv-x="1144" unicode="à"/><glyph d="M82 272q0 68 20.5 122.5t78 96t155.5 69.5t256 42q57 4 96 8t62.5 17.5t34 40t10.5 77.5q0 18 -4.5 53.5t-27 70t-69.5 60t-133 25.5q-25 0 -71 -4t-91 -25.5t-77.5 -65.5t-30.5 -126h-172q0 51 17.5 112.5t65.5 114t135 87t224 34.5q63 0 136 -12t135.5 -49 t103.5 -105.5t39 -183.5l-10 -481q0 -31 1 -54.5t11 -39t32.5 -23.5t63.5 -6v-127q-18 -4 -35.5 -6t-46.5 -2q-37 0 -68.5 5t-55 20.5t-39 45t-23.5 80.5q-27 -49 -66 -83.5t-86 -57t-99 -33t-105 -10.5q-164 0 -265.5 75t-101.5 238zM268 279q0 -92 56.5 -142.5 t144.5 -50.5q53 0 107.5 15.5t100.5 55.5t76.5 109.5t37.5 177.5l4 88q-20 -16 -43 -23t-49.5 -11t-60.5 -7.5t-77 -9.5q-59 -10 -113.5 -19t-95.5 -28.5t-64.5 -56.5t-23.5 -98zM445 1163l143 271h217l-197 -271h-163z" horiz-adv-x="1144" unicode="á"/><glyph d="M82 272q0 68 20.5 122.5t78 96t155.5 69.5t256 42q57 4 96 8t62.5 17.5t34 40t10.5 77.5q0 18 -4.5 53.5t-27 70t-69.5 60t-133 25.5q-25 0 -71 -4t-91 -25.5t-77.5 -65.5t-30.5 -126h-172q0 51 17.5 112.5t65.5 114t135 87t224 34.5q63 0 136 -12t135.5 -49 t103.5 -105.5t39 -183.5l-10 -481q0 -31 1 -54.5t11 -39t32.5 -23.5t63.5 -6v-127q-18 -4 -35.5 -6t-46.5 -2q-37 0 -68.5 5t-55 20.5t-39 45t-23.5 80.5q-27 -49 -66 -83.5t-86 -57t-99 -33t-105 -10.5q-164 0 -265.5 75t-101.5 238zM193 1163l243 271h271l243 -271h-180 l-199 203l-198 -203h-180zM268 279q0 -92 56.5 -142.5t144.5 -50.5q53 0 107.5 15.5t100.5 55.5t76.5 109.5t37.5 177.5l4 88q-20 -16 -43 -23t-49.5 -11t-60.5 -7.5t-77 -9.5q-59 -10 -113.5 -19t-95.5 -28.5t-64.5 -56.5t-23.5 -98z" horiz-adv-x="1144" unicode="â"/><glyph d="M82 272q0 68 20.5 122.5t78 96t155.5 69.5t256 42q57 4 96 8t62.5 17.5t34 40t10.5 77.5q0 18 -4.5 53.5t-27 70t-69.5 60t-133 25.5q-25 0 -71 -4t-91 -25.5t-77.5 -65.5t-30.5 -126h-172q0 51 17.5 112.5t65.5 114t135 87t224 34.5q63 0 136 -12t135.5 -49 t103.5 -105.5t39 -183.5l-10 -481q0 -31 1 -54.5t11 -39t32.5 -23.5t63.5 -6v-127q-18 -4 -35.5 -6t-46.5 -2q-37 0 -68.5 5t-55 20.5t-39 45t-23.5 80.5q-27 -49 -66 -83.5t-86 -57t-99 -33t-105 -10.5q-164 0 -265.5 75t-101.5 238zM193 1245q14 80 71.5 142.5t155.5 62.5 q43 0 75.5 -10t75.5 -35q29 -16 68 -36.5t84 -20.5q39 0 68.5 24.5t40.5 61.5h118q-6 -31 -20.5 -68t-41 -68.5t-67.5 -52t-98 -20.5q-49 0 -89 16t-79 37q-33 16 -66.5 32.5t-70.5 16.5q-33 0 -67 -17.5t-38 -64.5h-120zM268 279q0 -92 56.5 -142.5t144.5 -50.5 q53 0 107.5 15.5t100.5 55.5t76.5 109.5t37.5 177.5l4 88q-20 -16 -43 -23t-49.5 -11t-60.5 -7.5t-77 -9.5q-59 -10 -113.5 -19t-95.5 -28.5t-64.5 -56.5t-23.5 -98z" horiz-adv-x="1144" unicode="ã"/><glyph d="M82 272q0 68 20.5 122.5t78 96t155.5 69.5t256 42q57 4 96 8t62.5 17.5t34 40t10.5 77.5q0 18 -4.5 53.5t-27 70t-69.5 60t-133 25.5q-25 0 -71 -4t-91 -25.5t-77.5 -65.5t-30.5 -126h-172q0 51 17.5 112.5t65.5 114t135 87t224 34.5q63 0 136 -12t135.5 -49 t103.5 -105.5t39 -183.5l-10 -481q0 -31 1 -54.5t11 -39t32.5 -23.5t63.5 -6v-127q-18 -4 -35.5 -6t-46.5 -2q-37 0 -68.5 5t-55 20.5t-39 45t-23.5 80.5q-27 -49 -66 -83.5t-86 -57t-99 -33t-105 -10.5q-164 0 -265.5 75t-101.5 238zM268 279q0 -92 56.5 -142.5 t144.5 -50.5q53 0 107.5 15.5t100.5 55.5t76.5 109.5t37.5 177.5l4 88q-20 -16 -43 -23t-49.5 -11t-60.5 -7.5t-77 -9.5q-59 -10 -113.5 -19t-95.5 -28.5t-64.5 -56.5t-23.5 -98zM279 1245v189h180v-189h-180zM684 1245v189h180v-189h-180z" horiz-adv-x="1144" unicode="ä"/><glyph d="M82 272q0 68 20.5 122.5t78 96t155.5 69.5t256 42q57 4 96 8t62.5 17.5t34 40t10.5 77.5q0 18 -4.5 53.5t-27 70t-69.5 60t-133 25.5q-25 0 -71 -4t-91 -25.5t-77.5 -65.5t-30.5 -126h-172q0 51 17.5 112.5t65.5 114t135 87t224 34.5q63 0 136 -12t135.5 -49 t103.5 -105.5t39 -183.5l-10 -481q0 -31 1 -54.5t11 -39t32.5 -23.5t63.5 -6v-127q-18 -4 -35.5 -6t-46.5 -2q-37 0 -68.5 5t-55 20.5t-39 45t-23.5 80.5q-27 -49 -66 -83.5t-86 -57t-99 -33t-105 -10.5q-164 0 -265.5 75t-101.5 238zM268 279q0 -92 56.5 -142.5 t144.5 -50.5q53 0 107.5 15.5t100.5 55.5t76.5 109.5t37.5 177.5l4 88q-20 -16 -43 -23t-49.5 -11t-60.5 -7.5t-77 -9.5q-59 -10 -113.5 -19t-95.5 -28.5t-64.5 -56.5t-23.5 -98zM383 1352q0 39 14 73.5t39.5 60t60.5 40t74 14.5t74 -14.5t60.5 -40t39.5 -60t14 -73.5 t-14 -74t-39.5 -60.5t-60.5 -40t-74 -14.5t-74 14.5t-60.5 40t-39.5 60.5t-14 74zM464 1352q0 -45 31 -76t76 -31t75.5 31t30.5 76t-30.5 75.5t-75.5 30.5t-76 -30.5t-31 -75.5z" horiz-adv-x="1144" unicode="å"/><glyph d="M82 272q0 68 21.5 122.5t78 96t156.5 70.5t260 41q59 4 99 8t63.5 17.5t34 40t10.5 77.5q0 18 -4 53.5t-26.5 70t-70 60t-133.5 25.5q-25 0 -70.5 -4t-90.5 -25.5t-78 -65.5t-31 -126h-172q-2 70 22.5 132.5t79 110.5t138.5 76.5t200 28.5q33 0 84.5 -4t103.5 -22.5 t98 -53t71 -96.5q41 63 95 99t107.5 53.5t100.5 20.5t71 3q70 0 155 -17t160 -74.5t125 -166t50 -293.5v-51h-805q0 -59 15.5 -127.5t52.5 -128t100.5 -98.5t159.5 -39q68 0 116 17.5t82.5 47t55 68.5t32.5 82h173q-10 -55 -38 -115.5t-79 -110.5t-132 -83t-198 -33 q-49 0 -107.5 5t-117 27.5t-113.5 67.5t-98 125q-41 -72 -91 -115.5t-102.5 -68.5t-106.5 -33t-106 -8q-47 0 -115.5 6t-132 37t-108.5 94.5t-45 175.5zM268 279q0 -33 11.5 -68t36 -62.5t64.5 -45t99 -17.5q102 0 166 39t99.5 95t48 117.5t12.5 106.5v88q-23 -16 -44.5 -23 t-49 -11t-61.5 -7.5t-79 -9.5q-59 -10 -114.5 -19t-97.5 -28.5t-66.5 -56.5t-24.5 -98zM985 606h619q2 53 -9.5 113.5t-45 113t-92 87t-150.5 34.5q-84 0 -144.5 -29.5t-100.5 -77.5t-58.5 -110.5t-18.5 -130.5z" horiz-adv-x="1884" unicode="æ"/><glyph d="M94 528q0 90 20.5 188.5t76 179.5t151.5 133t248 52q111 0 192.5 -29.5t137 -80.5t87 -117t40.5 -139h-173q-14 86 -51 135t-80 71.5t-85 27.5t-64 5q-84 0 -143.5 -33.5t-96.5 -91t-53 -135.5t-16 -166t18.5 -167.5t56 -141t99 -97.5t147.5 -36q76 0 128 28.5t85 70.5 t47.5 92.5t16.5 93.5h172q-4 -47 -23.5 -117t-68 -135.5t-135.5 -112.5t-226 -47q-27 0 -74 4t-104 20.5t-115.5 52.5t-105.5 98.5t-78 158.5t-31 235zM350 -475l35 115q16 -6 45 -11.5t82 -5.5q70 0 99.5 21.5t29.5 54.5q0 31 -18.5 46t-45 22.5t-57.5 7.5h-55h-35l31 106 h65q88 0 141.5 -19.5t83 -49t39 -65.5t9.5 -66q0 -27 -10.5 -57t-39 -55.5t-80 -43t-132.5 -17.5q-23 0 -69 3.5t-118 13.5z" horiz-adv-x="1134" unicode="ç"/><glyph d="M94 516q0 35 4 91.5t20.5 118.5t49.5 125.5t89 115t140 83t205 31.5q156 0 249 -54t143 -136t67.5 -179.5t21.5 -181.5q0 -12 1 -25t1 -26h-800q0 -68 18.5 -137.5t57 -125.5t101 -93t152.5 -37q63 0 114.5 17.5t87.5 47t57.5 68.5t29.5 82h172q-10 -55 -37.5 -115.5 t-80 -110.5t-134.5 -83t-202 -33q-129 0 -218.5 35t-147.5 89t-91 119.5t-48.5 127t-18.5 112t-3 74.5zM285 606h610q-2 51 -14.5 112.5t-44 114t-87 87t-143.5 34.5q-98 0 -161.5 -35.5t-99.5 -89t-48 -114t-12 -109.5zM356 1434h217l144 -271h-164z" horiz-adv-x="1179" unicode="è"/><glyph d="M94 516q0 35 4 91.5t20.5 118.5t49.5 125.5t89 115t140 83t205 31.5q156 0 249 -54t143 -136t67.5 -179.5t21.5 -181.5q0 -12 1 -25t1 -26h-800q0 -68 18.5 -137.5t57 -125.5t101 -93t152.5 -37q63 0 114.5 17.5t87.5 47t57.5 68.5t29.5 82h172q-10 -55 -37.5 -115.5 t-80 -110.5t-134.5 -83t-202 -33q-129 0 -218.5 35t-147.5 89t-91 119.5t-48.5 127t-18.5 112t-3 74.5zM285 606h610q-2 51 -14.5 112.5t-44 114t-87 87t-143.5 34.5q-98 0 -161.5 -35.5t-99.5 -89t-48 -114t-12 -109.5zM463 1163l143 271h217l-197 -271h-163z" horiz-adv-x="1179" unicode="é"/><glyph d="M94 516q0 35 4 91.5t20.5 118.5t49.5 125.5t89 115t140 83t205 31.5q156 0 249 -54t143 -136t67.5 -179.5t21.5 -181.5q0 -12 1 -25t1 -26h-800q0 -68 18.5 -137.5t57 -125.5t101 -93t152.5 -37q63 0 114.5 17.5t87.5 47t57.5 68.5t29.5 82h172q-10 -55 -37.5 -115.5 t-80 -110.5t-134.5 -83t-202 -33q-129 0 -218.5 35t-147.5 89t-91 119.5t-48.5 127t-18.5 112t-3 74.5zM211 1163l243 271h271l243 -271h-180l-199 203l-198 -203h-180zM285 606h610q-2 51 -14.5 112.5t-44 114t-87 87t-143.5 34.5q-98 0 -161.5 -35.5t-99.5 -89t-48 -114 t-12 -109.5z" horiz-adv-x="1179" unicode="ê"/><glyph d="M94 516q0 35 4 91.5t20.5 118.5t49.5 125.5t89 115t140 83t205 31.5q156 0 249 -54t143 -136t67.5 -179.5t21.5 -181.5q0 -12 1 -25t1 -26h-800q0 -68 18.5 -137.5t57 -125.5t101 -93t152.5 -37q63 0 114.5 17.5t87.5 47t57.5 68.5t29.5 82h172q-10 -55 -37.5 -115.5 t-80 -110.5t-134.5 -83t-202 -33q-129 0 -218.5 35t-147.5 89t-91 119.5t-48.5 127t-18.5 112t-3 74.5zM285 606h610q-2 51 -14.5 112.5t-44 114t-87 87t-143.5 34.5q-98 0 -161.5 -35.5t-99.5 -89t-48 -114t-12 -109.5zM297 1245v189h180v-189h-180zM702 1245v189h180v-189 h-180z" horiz-adv-x="1179" unicode="ë"/><glyph d="M16 1434h217l144 -271h-164zM154 0v1040h182v-1040h-182z" horiz-adv-x="489" unicode="ì"/><glyph d="M123 1163l143 271h217l-197 -271h-163zM154 0v1040h182v-1040h-182z" horiz-adv-x="489" unicode="í"/><glyph d="M-129 1163l243 271h271l243 -271h-180l-199 203l-198 -203h-180zM154 0v1040h182v-1040h-182z" horiz-adv-x="489" unicode="î"/><glyph d="M-43 1245v189h180v-189h-180zM154 0v1040h182v-1040h-182zM362 1245v189h180v-189h-180z" horiz-adv-x="489" unicode="ï"/><glyph d="M102 483q0 113 27 213.5t87 177t154.5 121.5t229.5 45q43 0 98.5 -8t110.5 -32.5t106.5 -70.5t85.5 -124h7q-6 72 -26.5 140.5t-59.5 131t-99.5 115.5t-144.5 94l-285 -172l-53 66l244 147q-139 57 -271 78l27 96q100 -16 189 -42.5t167 -61.5l174 104l54 -65l-138 -82 q113 -57 182.5 -133t107.5 -165t50.5 -189.5t12.5 -204.5q0 -152 -24.5 -263.5t-65.5 -189.5t-95.5 -127t-115 -75.5t-121 -37t-115.5 -10.5q-115 0 -207 36t-157.5 103.5t-100.5 164.5t-35 220zM293 471q0 -129 33.5 -206t83 -116.5t105.5 -51t103 -11.5q33 0 88.5 9 t109.5 51t93 126t39 234q0 39 -8 107.5t-41 135t-98.5 115.5t-182.5 49q-115 0 -179 -51t-97 -121.5t-41 -146.5t-8 -123z" horiz-adv-x="1251" unicode="ð"/><glyph d="M154 0v1040h180v-145q53 78 143 132t213 54q102 0 169 -31.5t104.5 -85t53 -124t15.5 -148.5v-692h-180v637q0 41 -3 96t-22.5 104.5t-64.5 83t-129 33.5q-37 0 -88 -12t-98.5 -52t-80 -117t-32.5 -206v-567h-180zM213 1245q14 80 71.5 142.5t155.5 62.5q43 0 75.5 -10 t75.5 -35q29 -16 68 -36.5t84 -20.5q39 0 68.5 24.5t40.5 61.5h118q-6 -31 -20.5 -68t-41 -68.5t-67.5 -52t-98 -20.5q-49 0 -89 16t-79 37q-33 16 -66.5 32.5t-70.5 16.5q-33 0 -67 -17.5t-38 -64.5h-120z" horiz-adv-x="1185" unicode="ñ"/><glyph d="M94 520q0 104 26.5 204.5t87 179.5t159 128t239.5 49t239.5 -49t159 -128t87 -179t26.5 -205q0 -104 -26.5 -204.5t-87 -179.5t-158.5 -128t-240 -49q-141 0 -239.5 49t-159 128t-87 179.5t-26.5 204.5zM285 522q0 -156 38.5 -244t92 -131t106.5 -52t84 -9t84 9t106.5 52 t92.5 131.5t39 243.5q0 156 -39 244t-92.5 131t-106.5 52t-84 9t-84 -9t-106.5 -52t-92 -131t-38.5 -244zM373 1434h217l144 -271h-164z" horiz-adv-x="1212" unicode="ò"/><glyph d="M94 520q0 104 26.5 204.5t87 179.5t159 128t239.5 49t239.5 -49t159 -128t87 -179t26.5 -205q0 -104 -26.5 -204.5t-87 -179.5t-158.5 -128t-240 -49q-141 0 -239.5 49t-159 128t-87 179.5t-26.5 204.5zM285 522q0 -156 38.5 -244t92 -131t106.5 -52t84 -9t84 9t106.5 52 t92.5 131.5t39 243.5q0 156 -39 244t-92.5 131t-106.5 52t-84 9t-84 -9t-106.5 -52t-92 -131t-38.5 -244zM480 1163l143 271h217l-197 -271h-163z" horiz-adv-x="1212" unicode="ó"/><glyph d="M94 520q0 104 26.5 204.5t87 179.5t159 128t239.5 49t239.5 -49t159 -128t87 -179t26.5 -205q0 -104 -26.5 -204.5t-87 -179.5t-158.5 -128t-240 -49q-141 0 -239.5 49t-159 128t-87 179.5t-26.5 204.5zM228 1163l243 271h271l243 -271h-180l-199 203l-198 -203h-180z M285 522q0 -156 38.5 -244t92 -131t106.5 -52t84 -9t84 9t106.5 52t92.5 131.5t39 243.5q0 156 -39 244t-92.5 131t-106.5 52t-84 9t-84 -9t-106.5 -52t-92 -131t-38.5 -244z" horiz-adv-x="1212" unicode="ô"/><glyph d="M94 520q0 104 26.5 204.5t87 179.5t159 128t239.5 49t239.5 -49t159 -128t87 -179t26.5 -205q0 -104 -26.5 -204.5t-87 -179.5t-158.5 -128t-240 -49q-141 0 -239.5 49t-159 128t-87 179.5t-26.5 204.5zM228 1245q14 80 71.5 142.5t155.5 62.5q43 0 75.5 -10t75.5 -35 q29 -16 68 -36.5t84 -20.5q39 0 68.5 24.5t40.5 61.5h118q-6 -31 -20.5 -68t-41 -68.5t-67.5 -52t-98 -20.5q-49 0 -89 16t-79 37q-33 16 -66.5 32.5t-70.5 16.5q-33 0 -67 -17.5t-38 -64.5h-120zM285 522q0 -156 38.5 -244t92 -131t106.5 -52t84 -9t84 9t106.5 52 t92.5 131.5t39 243.5q0 156 -39 244t-92.5 131t-106.5 52t-84 9t-84 -9t-106.5 -52t-92 -131t-38.5 -244z" horiz-adv-x="1212" unicode="õ"/><glyph d="M94 520q0 104 26.5 204.5t87 179.5t159 128t239.5 49t239.5 -49t159 -128t87 -179t26.5 -205q0 -104 -26.5 -204.5t-87 -179.5t-158.5 -128t-240 -49q-141 0 -239.5 49t-159 128t-87 179.5t-26.5 204.5zM285 522q0 -156 38.5 -244t92 -131t106.5 -52t84 -9t84 9t106.5 52 t92.5 131.5t39 243.5q0 156 -39 244t-92.5 131t-106.5 52t-84 9t-84 -9t-106.5 -52t-92 -131t-38.5 -244zM314 1245v189h180v-189h-180zM719 1245v189h180v-189h-180z" horiz-adv-x="1212" unicode="ö"/><glyph d="M109 604v127h1024v-127h-1024zM498 311q0 20 7 42t22.5 40.5t38 29.5t55.5 11t55 -11t37.5 -29.5t22.5 -40t7 -42.5q0 -20 -7 -41.5t-22.5 -40t-38 -30t-54.5 -11.5q-33 0 -55.5 11.5t-38 30t-22.5 40t-7 41.5zM498 1024q0 20 7 41.5t22.5 40t38 30t55.5 11.5t55 -11.5 t37.5 -30t22.5 -40t7 -41.5t-7 -41.5t-22.5 -40t-38 -30t-54.5 -11.5q-33 0 -55.5 11.5t-38 30t-22.5 40t-7 41.5z" horiz-adv-x="1241" unicode="÷"/><glyph d="M94 0l115 135q-59 82 -87 185.5t-28 201.5q0 121 31 223.5t93.5 177t158.5 116.5t227 42q129 0 204 -30.5t116 -65.5l112 133l90 -78l-118 -141q14 -23 33.5 -55.5t35 -79.5t26.5 -107.5t11 -134.5q0 -92 -22.5 -191.5t-80 -182t-156.5 -136t-251 -53.5 q-111 0 -183.5 23.5t-125.5 68.5l-109 -129zM285 522q0 -23 2 -55.5t6 -67t12 -67.5t21 -58l497 592q-49 55 -107.5 71.5t-111.5 16.5q-104 0 -167.5 -45t-97.5 -111.5t-44 -141t-10 -134.5zM393 170q55 -53 103.5 -68.5t107.5 -15.5q29 0 82 9t106.5 52t92.5 131.5 t39 243.5q0 109 -12.5 162t-22.5 76z" horiz-adv-x="1208" unicode="ø"/><glyph d="M154 350v690h180v-637q0 -98 16.5 -159.5t45 -97t68.5 -48t89 -12.5q113 0 174 50t89 115.5t32 129t4 92.5v567h180v-1040h-180v147h-4q-39 -68 -94.5 -105.5t-107.5 -56t-94 -22.5t-56 -4q-115 0 -183.5 39t-103.5 98.5t-45 127t-10 126.5zM358 1434h217l144 -271h-164z" horiz-adv-x="1185" unicode="ù"/><glyph d="M154 350v690h180v-637q0 -98 16.5 -159.5t45 -97t68.5 -48t89 -12.5q113 0 174 50t89 115.5t32 129t4 92.5v567h180v-1040h-180v147h-4q-39 -68 -94.5 -105.5t-107.5 -56t-94 -22.5t-56 -4q-115 0 -183.5 39t-103.5 98.5t-45 127t-10 126.5zM465 1163l143 271h217 l-197 -271h-163z" horiz-adv-x="1185" unicode="ú"/><glyph d="M154 350v690h180v-637q0 -98 16.5 -159.5t45 -97t68.5 -48t89 -12.5q113 0 174 50t89 115.5t32 129t4 92.5v567h180v-1040h-180v147h-4q-39 -68 -94.5 -105.5t-107.5 -56t-94 -22.5t-56 -4q-115 0 -183.5 39t-103.5 98.5t-45 127t-10 126.5zM213 1163l243 271h271 l243 -271h-180l-199 203l-198 -203h-180z" horiz-adv-x="1185" unicode="û"/><glyph d="M154 350v690h180v-637q0 -98 16.5 -159.5t45 -97t68.5 -48t89 -12.5q113 0 174 50t89 115.5t32 129t4 92.5v567h180v-1040h-180v147h-4q-39 -68 -94.5 -105.5t-107.5 -56t-94 -22.5t-56 -4q-115 0 -183.5 39t-103.5 98.5t-45 127t-10 126.5zM299 1245v189h180v-189h-180z M704 1245v189h180v-189h-180z" horiz-adv-x="1185" unicode="ü"/><glyph d="M20 1040h216l333 -841l277 841h180l-414 -1163q-12 -37 -28.5 -83t-46 -86t-76.5 -67.5t-121 -27.5q-43 0 -81 2t-66 8v133q41 -6 59 -8t31 -2q39 0 65.5 14.5t45 39t29.5 56t23 66.5l25 78zM389 1163l143 271h217l-197 -271h-163z" horiz-adv-x="1032" unicode="ý"/><glyph d="M154 -379v1813h180v-537q47 88 140 136t198 48q117 0 205 -42t146 -116.5t88 -178t30 -224.5q0 -152 -39 -258t-104.5 -174t-149.5 -98.5t-172 -30.5q-16 0 -58.5 4t-93.5 23.5t-103 57.5t-87 106v-529h-180zM322 516q0 -121 30.5 -203t78.5 -133t104.5 -72.5 t107.5 -21.5q55 0 109.5 21.5t98.5 71.5t71.5 133t27.5 208q0 201 -82 317.5t-235 116.5q-35 0 -88 -13t-102.5 -58t-85 -132.5t-35.5 -234.5z" horiz-adv-x="1234" unicode="þ"/><glyph d="M20 1040h216l333 -841l277 841h180l-414 -1163q-12 -37 -28.5 -83t-46 -86t-76.5 -67.5t-121 -27.5q-43 0 -81 2t-66 8v133q41 -6 59 -8t31 -2q39 0 65.5 14.5t45 39t29.5 56t23 66.5l25 78zM224 1245v189h180v-189h-180zM629 1245v189h180v-189h-180z" horiz-adv-x="1032" unicode="ÿ"/><glyph d="M-2 0l543 1434h204l543 -1434h-207l-135 371h-606l-135 -371h-207zM320 1581v123h647v-123h-324h-323zM393 532h500l-250 707z" unicode="Ā"/><glyph d="M82 272q0 68 20.5 122.5t78 96t155.5 69.5t256 42q57 4 96 8t62.5 17.5t34 40t10.5 77.5q0 18 -4.5 53.5t-27 70t-69.5 60t-133 25.5q-25 0 -71 -4t-91 -25.5t-77.5 -65.5t-30.5 -126h-172q0 51 17.5 112.5t65.5 114t135 87t224 34.5q63 0 136 -12t135.5 -49 t103.5 -105.5t39 -183.5l-10 -481q0 -31 1 -54.5t11 -39t32.5 -23.5t63.5 -6v-127q-18 -4 -35.5 -6t-46.5 -2q-37 0 -68.5 5t-55 20.5t-39 45t-23.5 80.5q-27 -49 -66 -83.5t-86 -57t-99 -33t-105 -10.5q-164 0 -265.5 75t-101.5 238zM248 1255v123h647v-123h-324h-323z M268 279q0 -92 56.5 -142.5t144.5 -50.5q53 0 107.5 15.5t100.5 55.5t76.5 109.5t37.5 177.5l4 88q-20 -16 -43 -23t-49.5 -11t-60.5 -7.5t-77 -9.5q-59 -10 -113.5 -19t-95.5 -28.5t-64.5 -56.5t-23.5 -98z" horiz-adv-x="1144" unicode="ā"/><glyph d="M-2 0l543 1434h204l543 -1434h-207l-135 371h-606l-135 -371h-207zM269 1843h159q2 -80 62.5 -126t152.5 -46t144.5 38t70.5 134h160q-8 -43 -28.5 -93t-63.5 -93t-110.5 -72t-172.5 -29q-104 0 -171.5 29t-110.5 72t-63.5 93t-28.5 93zM393 532h500l-250 707z" unicode="Ă"/><glyph d="M82 272q0 68 20.5 122.5t78 96t155.5 69.5t256 42q57 4 96 8t62.5 17.5t34 40t10.5 77.5q0 18 -4.5 53.5t-27 70t-69.5 60t-133 25.5q-25 0 -71 -4t-91 -25.5t-77.5 -65.5t-30.5 -126h-172q0 51 17.5 112.5t65.5 114t135 87t224 34.5q63 0 136 -12t135.5 -49 t103.5 -105.5t39 -183.5l-10 -481q0 -31 1 -54.5t11 -39t32.5 -23.5t63.5 -6v-127q-18 -4 -35.5 -6t-46.5 -2q-37 0 -68.5 5t-55 20.5t-39 45t-23.5 80.5q-27 -49 -66 -83.5t-86 -57t-99 -33t-105 -10.5q-164 0 -265.5 75t-101.5 238zM220 1434h151q4 -61 51 -111.5 t150 -50.5q102 0 149 50t52 112h151q-6 -41 -26.5 -88.5t-61.5 -88t-105.5 -67.5t-158.5 -27q-96 0 -159.5 27t-104.5 67.5t-61.5 88t-26.5 88.5zM268 279q0 -92 56.5 -142.5t144.5 -50.5q53 0 107.5 15.5t100.5 55.5t76.5 109.5t37.5 177.5l4 88q-20 -16 -43 -23t-49.5 -11 t-60.5 -7.5t-77 -9.5q-59 -10 -113.5 -19t-95.5 -28.5t-64.5 -56.5t-23.5 -98z" horiz-adv-x="1144" unicode="ă"/><glyph d="M-2 0l543 1434h204l543 -1434q-53 -41 -87 -99.5t-34 -111.5q0 -47 22.5 -84t72.5 -37q27 0 43 11.5t26 26.5t15.5 33.5t5.5 35.5h151q-2 -41 -18.5 -83t-47 -76t-76.5 -54.5t-110 -20.5q-117 0 -192.5 56.5t-75.5 152.5q0 78 44 143.5t97 106.5h-43l-135 371h-606 l-135 -371h-207zM393 532h500l-250 707z" unicode="Ą"/><glyph d="M82 272q0 68 20.5 122.5t78 96t155.5 69.5t256 42q57 4 96 8t62.5 17.5t34 40t10.5 77.5q0 18 -4.5 53.5t-27 70t-69.5 60t-133 25.5q-25 0 -71 -4t-91 -25.5t-77.5 -65.5t-30.5 -126h-172q0 51 17.5 112.5t65.5 114t135 87t224 34.5q63 0 136 -12t135.5 -49 t103.5 -105.5t39 -183.5l-10 -481q0 -43 5 -67.5t16 -37t27.5 -15.5t37.5 -3h22v-127q-53 -41 -87 -99.5t-34 -111.5q0 -47 22.5 -84t72.5 -37q27 0 43 11.5t26 26.5t15.5 33.5t5.5 35.5h151q-2 -41 -18.5 -83t-47 -76t-76.5 -54.5t-110 -20.5q-117 0 -192.5 56.5 t-75.5 152.5q0 78 44 143.5t97 106.5q-47 10 -70.5 44t-33.5 99q-27 -49 -66 -83.5t-86 -57t-99 -33t-105 -10.5q-164 0 -265.5 75t-101.5 238zM268 279q0 -23 7.5 -56t29 -63.5t60 -52t104.5 -21.5q53 0 107.5 15.5t100.5 55.5t76.5 109.5t37.5 177.5l4 88q-20 -16 -43 -23 t-49.5 -11t-60.5 -7.5t-77 -9.5q-57 -8 -110.5 -18t-95.5 -30.5t-66.5 -56.5t-24.5 -97z" horiz-adv-x="1144" unicode="ą"/><glyph d="M98 692q0 190 42 322.5t106.5 219.5t144.5 136t155 72.5t136 29t92 5.5q172 0 282.5 -45.5t177 -116t96.5 -156.5t38 -168h-192q-4 39 -21.5 94.5t-60.5 106.5t-120 87t-200 36q-135 0 -225 -52.5t-144.5 -138.5t-78 -196.5t-23.5 -227.5q0 -125 33 -231.5t96.5 -184 t152.5 -121.5t203 -44q86 0 159 26.5t126 74.5t85 112.5t36 142.5h192q-10 -78 -40.5 -168t-99 -168t-181.5 -130t-285 -52q-160 0 -286.5 50t-213.5 145.5t-134.5 231.5t-47.5 308zM598 1556l151 287h230l-209 -287h-172z" horiz-adv-x="1470" unicode="Ć"/><glyph d="M94 528q0 90 20.5 188.5t76 179.5t151.5 133t248 52q111 0 192.5 -29.5t137 -80.5t87 -117t40.5 -139h-173q-14 86 -51 135t-80 71.5t-85 27.5t-64 5q-84 0 -143.5 -33.5t-96.5 -91t-53 -135.5t-16 -166t18.5 -167.5t56 -141t99 -97.5t147.5 -36q76 0 128 28.5t85 70.5 t47.5 92.5t16.5 93.5h172q-4 -47 -23.5 -117t-68 -135.5t-135.5 -112.5t-226 -47q-27 0 -74 4t-104 20.5t-115.5 52.5t-105.5 98.5t-78 158.5t-31 235zM441 1163l143 271h217l-197 -271h-163z" horiz-adv-x="1134" unicode="ć"/><glyph d="M98 692q0 190 42 322.5t106.5 219.5t144.5 136t155 72.5t136 29t92 5.5q172 0 282.5 -45.5t177 -116t96.5 -156.5t38 -168h-192q-4 39 -21.5 94.5t-60.5 106.5t-120 87t-200 36q-135 0 -225 -52.5t-144.5 -138.5t-78 -196.5t-23.5 -227.5q0 -125 33 -231.5t96.5 -184 t152.5 -121.5t203 -44q86 0 159 26.5t126 74.5t85 112.5t36 142.5h192q-10 -78 -40.5 -168t-99 -168t-181.5 -130t-285 -52q-160 0 -286.5 50t-213.5 145.5t-134.5 231.5t-47.5 308zM334 1556l256 287h290l256 -287h-192l-209 216l-209 -216h-192z" horiz-adv-x="1470" unicode="Ĉ"/><glyph d="M94 528q0 90 20.5 188.5t76 179.5t151.5 133t248 52q111 0 192.5 -29.5t137 -80.5t87 -117t40.5 -139h-173q-14 86 -51 135t-80 71.5t-85 27.5t-64 5q-84 0 -143.5 -33.5t-96.5 -91t-53 -135.5t-16 -166t18.5 -167.5t56 -141t99 -97.5t147.5 -36q76 0 128 28.5t85 70.5 t47.5 92.5t16.5 93.5h172q-4 -47 -23.5 -117t-68 -135.5t-135.5 -112.5t-226 -47q-27 0 -74 4t-104 20.5t-115.5 52.5t-105.5 98.5t-78 158.5t-31 235zM189 1163l243 271h271l243 -271h-180l-199 203l-198 -203h-180z" horiz-adv-x="1134" unicode="ĉ"/><glyph d="M98 692q0 190 42 322.5t106.5 219.5t144.5 136t155 72.5t136 29t92 5.5q172 0 282.5 -45.5t177 -116t96.5 -156.5t38 -168h-192q-4 39 -21.5 94.5t-60.5 106.5t-120 87t-200 36q-135 0 -225 -52.5t-144.5 -138.5t-78 -196.5t-23.5 -227.5q0 -125 33 -231.5t96.5 -184 t152.5 -121.5t203 -44q86 0 159 26.5t126 74.5t85 112.5t36 142.5h192q-10 -78 -40.5 -168t-99 -168t-181.5 -130t-285 -52q-160 0 -286.5 50t-213.5 145.5t-134.5 231.5t-47.5 308zM639 1581v162h192v-162h-192z" horiz-adv-x="1470" unicode="Ċ"/><glyph d="M94 528q0 90 20.5 188.5t76 179.5t151.5 133t248 52q111 0 192.5 -29.5t137 -80.5t87 -117t40.5 -139h-173q-14 86 -51 135t-80 71.5t-85 27.5t-64 5q-84 0 -143.5 -33.5t-96.5 -91t-53 -135.5t-16 -166t18.5 -167.5t56 -141t99 -97.5t147.5 -36q76 0 128 28.5t85 70.5 t47.5 92.5t16.5 93.5h172q-4 -47 -23.5 -117t-68 -135.5t-135.5 -112.5t-226 -47q-27 0 -74 4t-104 20.5t-115.5 52.5t-105.5 98.5t-78 158.5t-31 235zM476 1245v189h188v-189h-188z" horiz-adv-x="1134" unicode="ċ"/><glyph d="M98 692q0 190 42 322.5t106.5 219.5t144.5 136t155 72.5t136 29t92 5.5q172 0 282.5 -45.5t177 -116t96.5 -156.5t38 -168h-192q-4 39 -21.5 94.5t-60.5 106.5t-120 87t-200 36q-135 0 -225 -52.5t-144.5 -138.5t-78 -196.5t-23.5 -227.5q0 -125 33 -231.5t96.5 -184 t152.5 -121.5t203 -44q86 0 159 26.5t126 74.5t85 112.5t36 142.5h192q-10 -78 -40.5 -168t-99 -168t-181.5 -130t-285 -52q-160 0 -286.5 50t-213.5 145.5t-134.5 231.5t-47.5 308zM334 1843h192l209 -215l209 215h192l-256 -287h-290z" horiz-adv-x="1470" unicode="Č"/><glyph d="M94 528q0 90 20.5 188.5t76 179.5t151.5 133t248 52q111 0 192.5 -29.5t137 -80.5t87 -117t40.5 -139h-173q-14 86 -51 135t-80 71.5t-85 27.5t-64 5q-84 0 -143.5 -33.5t-96.5 -91t-53 -135.5t-16 -166t18.5 -167.5t56 -141t99 -97.5t147.5 -36q76 0 128 28.5t85 70.5 t47.5 92.5t16.5 93.5h172q-4 -47 -23.5 -117t-68 -135.5t-135.5 -112.5t-226 -47q-27 0 -74 4t-104 20.5t-115.5 52.5t-105.5 98.5t-78 158.5t-31 235zM189 1434h180l198 -203l199 203h180l-243 -271h-271z" horiz-adv-x="1134" unicode="č"/><glyph d="M180 0v1434h527q37 0 101 -4.5t140 -26t155 -65.5t142.5 -122.5t103.5 -199.5t40 -295q0 -176 -39 -298t-102.5 -202t-144.5 -125t-165 -66.5t-163 -25.5t-140 -4h-455zM340 1843h192l209 -215l209 215h192l-256 -287h-290zM373 162h268q276 0 409.5 134t133.5 421 q0 162 -42 269.5t-110.5 171t-156 89t-179.5 25.5h-323v-1110z" horiz-adv-x="1484" unicode="Ď"/><glyph d="M94 522q0 82 16.5 179.5t67.5 182.5t142.5 141t242.5 56q104 0 191.5 -34.5t150.5 -141.5v529h180v-1434h-167v143h-7q-12 -25 -36.5 -57.5t-65.5 -60t-100.5 -47t-141.5 -19.5q-115 0 -203 41t-147 115.5t-91 178t-32 228.5zM285 522q0 -147 35.5 -234t86 -131 t105.5 -57.5t94 -13.5q59 0 115.5 23.5t99.5 76t70 136.5t27 204q0 113 -26 194t-71 133t-103.5 76.5t-121.5 24.5q-66 0 -122 -24.5t-98 -76.5t-66.5 -134t-24.5 -197zM1278 907v113q43 4 72.5 42t29.5 85v63h-102v224h202v-287q0 -61 -20.5 -104.5t-51 -71t-65.5 -43 t-65 -21.5z" horiz-adv-x="1501" unicode="ď"/><glyph d="M6 750v127h193v557h526q37 0 101.5 -4.5t140 -26t154.5 -65.5t142.5 -122.5t103.5 -199.5t40 -295q0 -176 -39 -298t-102.5 -202t-144.5 -125t-165 -66.5t-162.5 -25.5t-140.5 -4h-454v750h-193zM391 162h268q276 0 409.5 134t133.5 421q0 162 -42 269.5t-110.5 171 t-155.5 89t-179 25.5h-324v-395h406v-127h-406v-588z" horiz-adv-x="1503" unicode="Đ"/><glyph d="M94 522q0 82 16.5 179.5t67.5 182.5t142.5 141t242.5 56q104 0 191.5 -34.5t150.5 -141.5v285h-377v110h377v134h180v-134h175v-110h-175v-1190h-170v143h-4q-12 -25 -36.5 -57.5t-65.5 -60t-100.5 -47t-141.5 -19.5q-115 0 -203 41t-147 115.5t-91 178t-32 228.5z M285 522q0 -147 35.5 -234t86 -131t105.5 -57.5t94 -13.5q16 0 46 4t64 17.5t69.5 42t64.5 76.5t47 122t18 178q0 113 -25.5 194t-68.5 133t-101 76.5t-124 24.5t-122 -24.5t-98 -76.5t-66.5 -134t-24.5 -197z" horiz-adv-x="1239" unicode="đ"/><glyph d="M180 0v1434h1022v-162h-829v-451h751v-162h-751v-497h852v-162h-1045zM347 1581v123h647v-123h-324h-323z" horiz-adv-x="1265" unicode="Ē"/><glyph d="M94 516q0 35 4 91.5t20.5 118.5t49.5 125.5t89 115t140 83t205 31.5q156 0 249 -54t143 -136t67.5 -179.5t21.5 -181.5q0 -12 1 -25t1 -26h-800q0 -68 18.5 -137.5t57 -125.5t101 -93t152.5 -37q63 0 114.5 17.5t87.5 47t57.5 68.5t29.5 82h172q-10 -55 -37.5 -115.5 t-80 -110.5t-134.5 -83t-202 -33q-129 0 -218.5 35t-147.5 89t-91 119.5t-48.5 127t-18.5 112t-3 74.5zM267 1255v123h647v-123h-324h-323zM285 606h610q-2 51 -14.5 112.5t-44 114t-87 87t-143.5 34.5q-98 0 -161.5 -35.5t-99.5 -89t-48 -114t-12 -109.5z" horiz-adv-x="1179" unicode="ē"/><glyph d="M180 0v1434h1022v-162h-829v-451h751v-162h-751v-497h852v-162h-1045zM537 1581v162h192v-162h-192z" horiz-adv-x="1265" unicode="Ė"/><glyph d="M94 516q0 35 4 91.5t20.5 118.5t49.5 125.5t89 115t140 83t205 31.5q156 0 249 -54t143 -136t67.5 -179.5t21.5 -181.5q0 -12 1 -25t1 -26h-800q0 -68 18.5 -137.5t57 -125.5t101 -93t152.5 -37q63 0 114.5 17.5t87.5 47t57.5 68.5t29.5 82h172q-10 -55 -37.5 -115.5 t-80 -110.5t-134.5 -83t-202 -33q-129 0 -218.5 35t-147.5 89t-91 119.5t-48.5 127t-18.5 112t-3 74.5zM285 606h610q-2 51 -14.5 112.5t-44 114t-87 87t-143.5 34.5q-98 0 -161.5 -35.5t-99.5 -89t-48 -114t-12 -109.5zM496 1245v189h188v-189h-188z" horiz-adv-x="1179" unicode="ė"/><glyph d="M180 0v1434h1022v-162h-829v-451h751v-162h-751v-497h852v-162h-103q-61 -35 -96 -93.5t-35 -117.5q0 -47 21.5 -84t72.5 -37q27 0 43.5 11.5t26.5 26.5t15.5 33.5t5.5 35.5h151q-2 -41 -18.5 -83t-47 -76t-76.5 -54.5t-110 -20.5q-117 0 -192.5 56.5t-75.5 152.5 q0 78 44 143.5t97 106.5h-768z" horiz-adv-x="1265" unicode="Ę"/><glyph d="M94 516q0 35 4 91.5t20.5 118.5t49.5 125.5t90 115t143 83t209 31.5q127 0 213 -34.5t142.5 -90t85 -125t42 -136t13.5 -126.5q0 -57 -2 -92h-815q6 -111 35.5 -185.5t75.5 -119.5t104.5 -64.5t118.5 -19.5q53 0 101 14.5t87 41t65.5 65.5t34.5 88h183q-10 -45 -38 -99.5 t-66 -101.5t-84 -78.5t-89 -31.5h-2q-43 -35 -75.5 -88.5t-32.5 -106.5q0 -45 21.5 -81t68.5 -36q43 0 65.5 31t20.5 72h145q-6 -100 -72.5 -161.5t-167.5 -61.5q-111 0 -184.5 54t-73.5 146q0 66 33 120t64 85q-109 -8 -205 22.5t-169 100.5t-116 178.5t-43 255.5zM291 608 h620q-2 51 -14 111.5t-45 113t-90 87t-148 34.5q-86 0 -146 -29.5t-100 -77.5t-58.5 -110.5t-18.5 -128.5z" horiz-adv-x="1200" unicode="ę"/><glyph d="M180 0v1434h1022v-162h-829v-451h751v-162h-751v-497h852v-162h-1045zM261 1843h192l209 -215l209 215h192l-256 -287h-290z" horiz-adv-x="1265" unicode="Ě"/><glyph d="M94 516q0 35 4 91.5t20.5 118.5t49.5 125.5t89 115t140 83t205 31.5q156 0 249 -54t143 -136t67.5 -179.5t21.5 -181.5q0 -12 1 -25t1 -26h-800q0 -68 18.5 -137.5t57 -125.5t101 -93t152.5 -37q63 0 114.5 17.5t87.5 47t57.5 68.5t29.5 82h172q-10 -55 -37.5 -115.5 t-80 -110.5t-134.5 -83t-202 -33q-129 0 -218.5 35t-147.5 89t-91 119.5t-48.5 127t-18.5 112t-3 74.5zM211 1434h180l198 -203l199 203h180l-243 -271h-271zM285 606h610q-2 51 -14.5 112.5t-44 114t-87 87t-143.5 34.5q-98 0 -161.5 -35.5t-99.5 -89t-48 -114t-12 -109.5z" horiz-adv-x="1179" unicode="ě"/><glyph d="M98 731q0 182 49.5 321.5t141.5 233.5t221 142.5t289 48.5q143 0 248.5 -40t176 -105.5t109.5 -149.5t49 -172h-192q-4 49 -24.5 103t-65.5 98t-120 74t-185 30q-113 0 -194 -33t-135 -86t-87 -118.5t-49.5 -131t-21.5 -124t-5 -97.5q0 -27 4 -82t20.5 -121.5 t48.5 -138.5t86 -130t135 -96t196 -38q133 0 217 48t132 118.5t66.5 152.5t18.5 148h-410v162h586v-748h-150v231h-4q-61 -129 -184 -201.5t-293 -72.5q-129 0 -250 40t-215 131t-151.5 239.5t-57.5 363.5zM363 1556l256 287h290l256 -287h-192l-209 216l-209 -216h-192z" horiz-adv-x="1527" unicode="Ĝ"/><glyph d="M102 528q0 25 2 75t14.5 111.5t40 126t78 119t127 88t189.5 33.5q129 0 220 -47t140 -137h7v143h167v-1013q0 -100 -27.5 -170t-70.5 -117t-97 -73.5t-105.5 -41t-96.5 -17.5t-69 -3q-37 0 -102.5 4t-134.5 29.5t-127 82t-83 162.5h172q12 -45 41 -73.5t67 -46t82 -23.5 t85 -6q106 0 163.5 43t85 98t32.5 108.5t5 73.5v113q-37 -59 -71.5 -99t-74.5 -64.5t-86 -36t-104 -11.5q-92 0 -177 33t-149.5 101.5t-103.5 176t-39 258.5zM201 1163l243 271h271l243 -271h-180l-199 203l-198 -203h-180zM293 535q0 -158 38 -248t90 -134t106 -55.5 t85 -11.5q25 0 76 13.5t102.5 59.5t90.5 134t39 239q0 197 -82 309.5t-242 112.5q-76 0 -128 -25.5t-86 -64.5t-51.5 -88t-26.5 -95t-10 -86t-1 -60z" horiz-adv-x="1241" unicode="ĝ"/><glyph d="M98 731q0 182 49.5 321.5t141.5 233.5t221 142.5t289 48.5q143 0 248.5 -40t176 -105.5t109.5 -149.5t49 -172h-192q-4 49 -24.5 103t-65.5 98t-120 74t-185 30q-113 0 -194 -33t-135 -86t-87 -118.5t-49.5 -131t-21.5 -124t-5 -97.5q0 -27 4 -82t20.5 -121.5 t48.5 -138.5t86 -130t135 -96t196 -38q133 0 217 48t132 118.5t66.5 152.5t18.5 148h-410v162h586v-748h-150v231h-4q-61 -129 -184 -201.5t-293 -72.5q-129 0 -250 40t-215 131t-151.5 239.5t-57.5 363.5zM390 1843h159q2 -80 62.5 -126t152.5 -46t144.5 38t70.5 134h160 q-8 -43 -28.5 -93t-63.5 -93t-110.5 -72t-172.5 -29q-104 0 -171.5 29t-110.5 72t-63.5 93t-28.5 93z" horiz-adv-x="1527" unicode="Ğ"/><glyph d="M102 528q0 25 2 75t14.5 111.5t40 126t78 119t127 88t189.5 33.5q129 0 220 -47t140 -137h7v143h167v-1013q0 -100 -27.5 -170t-70.5 -117t-97 -73.5t-105.5 -41t-96.5 -17.5t-69 -3q-37 0 -102.5 4t-134.5 29.5t-127 82t-83 162.5h172q12 -45 41 -73.5t67 -46t82 -23.5 t85 -6q106 0 163.5 43t85 98t32.5 108.5t5 73.5v113q-37 -59 -71.5 -99t-74.5 -64.5t-86 -36t-104 -11.5q-92 0 -177 33t-149.5 101.5t-103.5 176t-39 258.5zM181 1434h151q4 -61 51 -111.5t150 -50.5q102 0 149 50t52 112h151q-6 -41 -26.5 -88.5t-61.5 -88t-105.5 -67.5 t-158.5 -27q-96 0 -159.5 27t-104.5 67.5t-61.5 88t-26.5 88.5zM293 535q0 -158 38 -248t90 -134t106 -55.5t85 -11.5q25 0 76 13.5t102.5 59.5t90.5 134t39 239q0 197 -82 309.5t-242 112.5q-76 0 -128 -25.5t-86 -64.5t-51.5 -88t-26.5 -95t-10 -86t-1 -60z" horiz-adv-x="1241" unicode="ğ"/><glyph d="M98 731q0 182 49.5 321.5t141.5 233.5t221 142.5t289 48.5q143 0 248.5 -40t176 -105.5t109.5 -149.5t49 -172h-192q-4 49 -24.5 103t-65.5 98t-120 74t-185 30q-113 0 -194 -33t-135 -86t-87 -118.5t-49.5 -131t-21.5 -124t-5 -97.5q0 -27 4 -82t20.5 -121.5 t48.5 -138.5t86 -130t135 -96t196 -38q133 0 217 48t132 118.5t66.5 152.5t18.5 148h-410v162h586v-748h-150v231h-4q-61 -129 -184 -201.5t-293 -72.5q-129 0 -250 40t-215 131t-151.5 239.5t-57.5 363.5zM670 1581v162h192v-162h-192z" horiz-adv-x="1527" unicode="Ġ"/><glyph d="M102 528q0 25 2 75t14.5 111.5t40 126t78 119t127 88t189.5 33.5q129 0 220 -47t140 -137h7v143h167v-1013q0 -100 -27.5 -170t-70.5 -117t-97 -73.5t-105.5 -41t-96.5 -17.5t-69 -3q-37 0 -102.5 4t-134.5 29.5t-127 82t-83 162.5h172q12 -45 41 -73.5t67 -46t82 -23.5 t85 -6q106 0 163.5 43t85 98t32.5 108.5t5 73.5v113q-37 -59 -71.5 -99t-74.5 -64.5t-86 -36t-104 -11.5q-92 0 -177 33t-149.5 101.5t-103.5 176t-39 258.5zM293 535q0 -158 38 -248t90 -134t106 -55.5t85 -11.5q25 0 76 13.5t102.5 59.5t90.5 134t39 239q0 197 -82 309.5 t-242 112.5q-76 0 -128 -25.5t-86 -64.5t-51.5 -88t-26.5 -95t-10 -86t-1 -60zM463 1245v189h188v-189h-188z" horiz-adv-x="1241" unicode="ġ"/><glyph d="M98 731q0 182 49.5 321.5t141.5 233.5t221 142.5t289 48.5q143 0 248.5 -40t176 -105.5t109.5 -149.5t49 -172h-192q-4 49 -24.5 103t-65.5 98t-120 74t-185 30q-113 0 -194 -33t-135 -86t-87 -118.5t-49.5 -131t-21.5 -124t-5 -97.5q0 -27 4 -82t20.5 -121.5 t48.5 -138.5t86 -130t135 -96t196 -38q133 0 217 48t132 118.5t66.5 152.5t18.5 148h-410v162h586v-748h-150v231h-4q-61 -129 -184 -201.5t-293 -72.5q-129 0 -250 40t-215 131t-151.5 239.5t-57.5 363.5zM662 -123h202v-207q0 -53 -20.5 -90t-51 -59.5t-66.5 -34.5 t-64 -18v112q43 4 72.5 29.5t29.5 60.5v23h-102v184z" horiz-adv-x="1527" unicode="Ģ"/><glyph d="M102 528q0 25 2 75t14.5 111.5t40 126t78 119t127 88t189.5 33.5q129 0 220 -47t140 -137h7v143h167v-1013q0 -100 -27.5 -170t-70.5 -117t-97 -73.5t-105.5 -41t-96.5 -17.5t-69 -3q-37 0 -102.5 4t-134.5 29.5t-127 82t-83 162.5h172q12 -45 41 -73.5t67 -46t82 -23.5 t85 -6q106 0 163.5 43t85 98t32.5 108.5t5 73.5v113q-37 -59 -71.5 -99t-74.5 -64.5t-86 -36t-104 -11.5q-92 0 -177 33t-149.5 101.5t-103.5 176t-39 258.5zM293 535q0 -158 38 -248t90 -134t106 -55.5t85 -11.5q25 0 76 13.5t102.5 59.5t90.5 134t39 239q0 197 -82 309.5 t-242 112.5q-76 0 -128 -25.5t-86 -64.5t-51.5 -88t-26.5 -95t-10 -86t-1 -60zM502 1227v207q0 53 20.5 90t51 59.5t66.5 34.5t64 18v-112q-43 -4 -72.5 -29.5t-29.5 -60.5v-23h102v-184h-202z" horiz-adv-x="1241" unicode="ģ"/><glyph d="M180 0v1434h193v-598h721v598h192v-1434h-192v674h-721v-674h-193zM332 1556l256 287h290l256 -287h-192l-209 216l-209 -216h-192z" horiz-adv-x="1466" unicode="Ĥ"/><glyph d="M-135 1536l243 271h271l243 -271h-180l-199 203l-198 -203h-180zM154 0v1434h180v-539q72 98 159 142t197 44q86 0 145.5 -22.5t97.5 -59t57.5 -81t28.5 -87.5t10 -80.5t1 -58.5v-692h-180v637q0 45 -2 100.5t-22.5 103.5t-64.5 80.5t-128 32.5q-37 0 -88 -12t-98.5 -52 t-80 -117t-32.5 -206v-567h-180z" horiz-adv-x="1183" unicode="ĥ"/><glyph d="M-12 1122v127h192v185h193v-185h721v185h192v-185h193v-127h-193v-1122h-192v674h-721v-674h-193v1122h-192zM373 836h721v286h-721v-286z" horiz-adv-x="1466" unicode="Ħ"/><glyph d="M6 1178v127h164v129h180v-129h432v-127h-432v-324q29 37 68 76t82 61q45 25 100 37q51 12 107 12q43 0 98 -11t106.5 -44t88 -92t44.5 -154q2 -23 2.5 -44t0.5 -44v-651h-181v596q0 43 -1 88t-17 92q-27 82 -105 117q-43 20 -96 20q-49 0 -98 -17t-90 -53t-70 -87 t-35 -119q-4 -29 -4 -55.5v-55.5v-526h-180v1178h-164z" horiz-adv-x="1200" unicode="ħ"/><glyph d="M-120 1579q6 41 25.5 80t50 68.5t72.5 48t93 18.5q66 0 101.5 -16.5t58.5 -30.5q47 -29 86 -44t74 -15t70.5 20.5t45.5 69.5h125q-6 -39 -22.5 -79t-46 -72t-71.5 -51.5t-97 -19.5t-92 15.5t-88 40.5q-41 20 -72 35.5t-72 15.5q-43 0 -75.5 -21.5t-38.5 -62.5h-127z M180 0v1434h193v-1434h-193z" horiz-adv-x="552" unicode="Ĩ"/><glyph d="M-131 1245q14 80 71.5 142.5t155.5 62.5q43 0 75.5 -10t75.5 -35q29 -16 68 -36.5t84 -20.5q39 0 68.5 24.5t40.5 61.5h118q-6 -31 -20.5 -68t-41 -68.5t-67.5 -52t-98 -20.5q-49 0 -89 16t-79 37q-33 16 -66.5 32.5t-70.5 16.5q-33 0 -67 -17.5t-38 -64.5h-120zM154 0 v1040h182v-1040h-182z" horiz-adv-x="489" unicode="ĩ"/><glyph d="M-43 1581v123h647v-123h-324h-323zM180 0v1434h193v-1434h-193z" horiz-adv-x="552" unicode="Ī"/><glyph d="M-73 1255v123h647v-123h-324h-323zM154 0v1040h182v-1040h-182z" horiz-adv-x="489" unicode="ī"/><glyph d="M49 -250q0 59 22.5 106.5t51.5 80.5l32.5 32.5t34.5 30.5h-10v1434h193v-1434h-8q-59 -35 -95.5 -94.5t-36.5 -116.5q0 -47 23 -84t72 -37q27 0 43 11.5t26.5 26.5t15.5 33.5t5 35.5h151q-2 -41 -18 -83t-47 -76t-77 -54.5t-110 -20.5q-117 0 -192.5 56.5t-75.5 152.5z" horiz-adv-x="552" unicode="Į"/><glyph d="M10 -250q0 29 5 56.5t18 52.5q14 31 32.5 55.5t37 42.5t31.5 29.5t18 13.5h-2v1040h180v-1040h-4q-37 -20 -64 -51q-25 -29 -46 -74t-21 -86q0 -47 22.5 -84t71.5 -37q27 0 43 11.5t26.5 26.5t15.5 33.5t5 35.5h151q-2 -41 -18 -83t-47 -76t-77 -54.5t-109 -20.5 q-117 0 -193 56.5t-76 152.5zM150 1245v189h180v-189h-180z" horiz-adv-x="479" unicode="į"/><glyph d="M154 0v1434h192v-1434h-192zM154 1581v162h192v-162h-192z" horiz-adv-x="499" unicode="İ"/><glyph d="M154 0v1040h182v-1040h-182z" horiz-adv-x="489" unicode="ı"/><glyph d="M53 401v74h193q0 -86 12 -151.5t40 -111.5t75 -69.5t121 -23.5q76 0 123 26.5t72.5 73.5t33.5 113.5t8 144.5v957h193v-938q0 -141 -23.5 -242.5t-75 -167.5t-134.5 -97.5t-199 -31.5q-55 0 -130 11.5t-143.5 56.5t-117 134t-48.5 242zM424 1556l256 287h290l256 -287 h-192l-209 216l-209 -216h-192z" horiz-adv-x="1077" unicode="Ĵ"/><glyph d="M-143 1163l245 271h271l243 -271h-180l-198 203l-199 -203h-182zM-33 -252q72 12 109 22.5t53 28t18.5 47t2.5 80.5v1114h180v-1136q0 -70 -11.5 -124t-39 -91t-75.5 -56.5t-120 -19.5q-27 0 -62.5 3t-54.5 5v127z" horiz-adv-x="473" unicode="ĵ"/><glyph d="M180 0v1434h193v-711l708 711h260l-598 -590l637 -844h-256l-522 715l-229 -223v-492h-193zM588 -123h202v-207q0 -53 -20.5 -90t-51 -59.5t-66.5 -34.5t-64 -18v112q43 4 72.5 29.5t29.5 60.5v23h-102v184z" horiz-adv-x="1378" unicode="Ķ"/><glyph d="M154 0v1434h180v-889l495 495h215l-409 -401l450 -639h-208l-367 528l-176 -174v-354h-180zM482 -123h202v-207q0 -53 -20.5 -90t-51 -59.5t-66.5 -34.5t-64 -18v112q43 4 72.5 29.5t29.5 60.5v23h-102v184z" horiz-adv-x="1083" unicode="ķ"/><glyph d="M180 0v1434h193v-1272h729v-162h-922zM410 1556l151 287h230l-209 -287h-172z" horiz-adv-x="1095" unicode="Ĺ"/><glyph d="M154 0v1434h180v-1434h-180zM162 1538l143 271h217l-197 -271h-163z" horiz-adv-x="487" unicode="ĺ"/><glyph d="M180 0v1434h193v-1272h729v-162h-922zM566 -123h202v-207q0 -53 -20.5 -90t-51 -59.5t-66.5 -34.5t-64 -18v112q43 4 72.5 29.5t29.5 60.5v23h-102v184z" horiz-adv-x="1095" unicode="Ļ"/><glyph d="M142 -123h202v-207q0 -53 -20.5 -90t-51 -59.5t-66.5 -34.5t-64 -18v112q43 4 72.5 29.5t29.5 60.5v23h-102v184zM154 0v1434h180v-1434h-180z" horiz-adv-x="487" unicode="ļ"/><glyph d="M180 0v1434h193v-1272h729v-162h-922zM861 907v113q43 4 72.5 42t29.5 85v63h-102v224h202v-287q0 -61 -20.5 -104.5t-51 -71t-65.5 -43t-65 -21.5z" horiz-adv-x="1095" unicode="Ľ"/><glyph d="M146 0v1434h180v-1434h-180zM463 907v113q43 4 72.5 42t29.5 85v63h-102v224h202v-287q0 -61 -20.5 -104.5t-51 -71t-65.5 -43t-65 -21.5z" horiz-adv-x="641" unicode="ľ"/><glyph d="M180 0v1434h193v-1272h729v-162h-922zM723 676v189h188v-189h-188z" horiz-adv-x="1095" unicode="Ŀ"/><glyph d="M146 0v1434h180v-1434h-180zM469 594v189h188v-189h-188z" horiz-adv-x="651" unicode="ŀ"/><glyph d="M27 242v172l157 155v865h193v-713l409 409v-172l-409 -409v-387h729v-162h-922v397z" horiz-adv-x="1099" unicode="Ł"/><glyph d="M-35 506v143l252 172v613h180v-506l252 174v-144l-252 -174v-784h-180v678z" horiz-adv-x="614" unicode="ł"/><glyph d="M180 0v1434h213l762 -1137v1137h193v-1434h-211l-764 1137v-1137h-193zM627 1556l151 287h230l-209 -287h-172z" horiz-adv-x="1527" unicode="Ń"/><glyph d="M154 0v1040h180v-145q53 78 143 132t213 54q102 0 169 -31.5t104.5 -85t53 -124t15.5 -148.5v-692h-180v637q0 41 -3 96t-22.5 104.5t-64.5 83t-129 33.5q-37 0 -88 -12t-98.5 -52t-80 -117t-32.5 -206v-567h-180zM465 1163l143 271h217l-197 -271h-163z" horiz-adv-x="1185" unicode="ń"/><glyph d="M180 0v1434h213l762 -1137v1137h193v-1434h-211l-764 1137v-1137h-193zM662 -123h202v-207q0 -53 -20.5 -90t-51 -59.5t-66.5 -34.5t-64 -18v112q43 4 72.5 29.5t29.5 60.5v23h-102v184z" horiz-adv-x="1527" unicode="Ņ"/><glyph d="M154 0v1040h180v-145q53 78 143 132t213 54q102 0 169 -31.5t104.5 -85t53 -124t15.5 -148.5v-692h-180v637q0 41 -3 96t-22.5 104.5t-64.5 83t-129 33.5q-37 0 -88 -12t-98.5 -52t-80 -117t-32.5 -206v-567h-180zM492 -123h202v-207q0 -53 -20.5 -90t-51 -59.5 t-66.5 -34.5t-64 -18v112q43 4 72.5 29.5t29.5 60.5v23h-102v184z" horiz-adv-x="1185" unicode="ņ"/><glyph d="M180 0v1434h213l762 -1137v1137h193v-1434h-211l-764 1137v-1137h-193zM363 1843h192l209 -215l209 215h192l-256 -287h-290z" horiz-adv-x="1527" unicode="Ň"/><glyph d="M154 0v1040h180v-145q53 78 143 132t213 54q102 0 169 -31.5t104.5 -85t53 -124t15.5 -148.5v-692h-180v637q0 41 -3 96t-22.5 104.5t-64.5 83t-129 33.5q-37 0 -88 -12t-98.5 -52t-80 -117t-32.5 -206v-567h-180zM213 1434h180l198 -203l199 203h180l-243 -271h-271z" horiz-adv-x="1185" unicode="ň"/><glyph d="M98 717q0 188 51.5 330.5t141.5 237.5t216 143.5t275 48.5q119 0 241 -37t220 -124t160.5 -233.5t62.5 -365.5q0 -186 -45 -316.5t-113.5 -214.5t-150.5 -130t-157.5 -68.5t-135 -26.5t-82.5 -4t-83 4t-136 26.5t-157.5 68.5t-150.5 130t-113 213.5t-44 317.5zM303 717 q0 -86 17.5 -190.5t68.5 -195.5t145.5 -151.5t247.5 -60.5q25 0 70 4t98.5 22.5t108.5 56.5t100 103.5t74 165.5t29 246q0 127 -29 236.5t-87.5 189.5t-149.5 126t-214 46q-109 0 -187.5 -34t-131.5 -87t-85 -119.5t-48.5 -133.5t-21.5 -126t-5 -98zM459 1581v123h647v-123 h-324h-323z" horiz-adv-x="1564" unicode="Ō"/><glyph d="M94 520q0 104 26.5 204.5t87 179.5t159 128t239.5 49t239.5 -49t159 -128t87 -179t26.5 -205q0 -104 -26.5 -204.5t-87 -179.5t-158.5 -128t-240 -49q-141 0 -239.5 49t-159 128t-87 179.5t-26.5 204.5zM283 1255v123h647v-123h-324h-323zM285 522q0 -156 38.5 -244 t92 -131t106.5 -52t84 -9t84 9t106.5 52t92.5 131.5t39 243.5q0 156 -39 244t-92.5 131t-106.5 52t-84 9t-84 -9t-106.5 -52t-92 -131t-38.5 -244z" horiz-adv-x="1212" unicode="ō"/><glyph d="M98 717q0 188 51.5 330.5t141.5 237.5t216 143.5t275 48.5q119 0 241 -37t220 -124t160.5 -233.5t62.5 -365.5q0 -186 -45 -316.5t-113.5 -214.5t-150.5 -130t-157.5 -68.5t-135 -26.5t-82.5 -4t-83 4t-136 26.5t-157.5 68.5t-150.5 130t-113 213.5t-44 317.5zM303 717 q0 -86 17.5 -190.5t68.5 -195.5t145.5 -151.5t247.5 -60.5q25 0 70 4t98.5 22.5t108.5 56.5t100 103.5t74 165.5t29 246q0 127 -29 236.5t-87.5 189.5t-149.5 126t-214 46q-109 0 -187.5 -34t-131.5 -87t-85 -119.5t-48.5 -133.5t-21.5 -126t-5 -98zM445 1556l143 287h217 l-197 -287h-163zM758 1556l143 287h217l-196 -287h-164z" horiz-adv-x="1564" unicode="Ő"/><glyph d="M94 520q0 104 26.5 204.5t87 179.5t159 128t239.5 49t239.5 -49t159 -128t87 -179t26.5 -205q0 -104 -26.5 -204.5t-87 -179.5t-158.5 -128t-240 -49q-141 0 -239.5 49t-159 128t-87 179.5t-26.5 204.5zM269 1163l143 271h217l-197 -271h-163zM285 522q0 -156 38.5 -244 t92 -131t106.5 -52t84 -9t84 9t106.5 52t92.5 131.5t39 243.5q0 156 -39 244t-92.5 131t-106.5 52t-84 9t-84 -9t-106.5 -52t-92 -131t-38.5 -244zM582 1163l143 271h217l-196 -271h-164z" horiz-adv-x="1212" unicode="ő"/><glyph d="M98 717q0 141 34 278.5t113 244t210 172t325 65.5q45 0 107.5 -6.5t129 -30t131 -71.5t114.5 -132v197h1022v-162h-830v-451h752v-162h-752v-497h854v-162h-1046v172q-25 -35 -64 -72t-96.5 -69.5t-136 -53t-183.5 -20.5q-180 0 -310 61.5t-213 165t-122 241.5t-39 292z M303 717q0 -86 17.5 -190.5t68.5 -195.5t145 -151.5t248 -60.5q25 0 70 4t98.5 22.5t108.5 56.5t100 103.5t74 165.5t29 246q0 133 -26 229t-66 163t-92 106.5t-105 62t-103.5 30t-87.5 7.5q-59 0 -141 -18.5t-156.5 -80t-128 -180t-53.5 -319.5z" horiz-adv-x="2349" unicode="Œ"/><glyph d="M94 524q0 41 5 97.5t23.5 119t52.5 123t91.5 109.5t142.5 78.5t203 29.5q39 0 91.5 -5t107.5 -24.5t107.5 -60.5t95.5 -114q45 70 98 110.5t108.5 62t106.5 26.5t94 5q117 0 199 -30.5t136 -79.5t85 -110.5t46.5 -122t18.5 -116t3 -90.5v-51h-805q0 -68 17.5 -138.5 t56.5 -127.5t101 -93t153 -36q68 0 117.5 18.5t85.5 49t58.5 69.5t32.5 80h172q-27 -113 -81 -180.5t-120.5 -104t-135 -48t-123.5 -11.5q-43 0 -98.5 4t-114 24.5t-113.5 63.5t-98 121q-39 -74 -91.5 -116t-109.5 -63.5t-111.5 -27.5t-97.5 -6q-131 0 -227 44t-158.5 120 t-93.5 179.5t-31 221.5zM285 524q0 -104 18.5 -177t47 -122t64.5 -76.5t71.5 -42t66.5 -17.5t51 -3q104 0 167 46t96.5 113.5t45 143.5t11.5 135q0 57 -11.5 132t-45 141.5t-96 111.5t-167.5 45q-29 0 -82 -9t-106.5 -52t-92 -129t-38.5 -240zM1104 608h614 q-10 86 -28.5 150.5t-52 108.5t-86 65.5t-126.5 21.5q-98 0 -160.5 -35.5t-97 -88t-48 -113t-15.5 -109.5z" horiz-adv-x="2002" unicode="œ"/><glyph d="M180 0v1434h635q39 0 89 -3.5t103.5 -16.5t103.5 -37.5t90 -66.5t64.5 -106.5t24.5 -154.5q0 -61 -16.5 -120t-48 -107t-77.5 -81.5t-104 -46.5v-6q72 -27 113 -63.5t61.5 -80.5t25.5 -95.5t7 -106.5q2 -74 3 -125t5.5 -89t15.5 -67.5t34 -60.5h-203q-18 25 -29.5 48.5 t-15.5 57t-6 80.5t-2 117q0 55 -6.5 109.5t-33 98.5t-80.5 70.5t-151 26.5h-409v-608h-193zM373 770h430q35 0 83 9t93 37t75.5 78t30.5 134q0 70 -23.5 117t-64.5 75.5t-98 40t-125 11.5h-401v-502zM566 1556l151 287h230l-209 -287h-172z" horiz-adv-x="1406" unicode="Ŕ"/><glyph d="M154 0v1040h180v-200h4q18 57 54 101t82 73.5t99.5 46t108.5 18.5l53 2v-127q-92 -4 -162.5 -24.5t-121 -63.5t-80 -110.5t-35.5 -165.5q-2 -29 -2 -55v-56v-479h-180zM256 1163l143 271h217l-197 -271h-163z" horiz-adv-x="768" unicode="ŕ"/><glyph d="M180 0v1434h635q39 0 89 -3.5t103.5 -16.5t103.5 -37.5t90 -66.5t64.5 -106.5t24.5 -154.5q0 -61 -16.5 -120t-48 -107t-77.5 -81.5t-104 -46.5v-6q72 -27 113 -63.5t61.5 -80.5t25.5 -95.5t7 -106.5q2 -74 3 -125t5.5 -89t15.5 -67.5t34 -60.5h-203q-18 25 -29.5 48.5 t-15.5 57t-6 80.5t-2 117q0 55 -6.5 109.5t-33 98.5t-80.5 70.5t-151 26.5h-409v-608h-193zM373 770h430q35 0 83 9t93 37t75.5 78t30.5 134q0 70 -23.5 117t-64.5 75.5t-98 40t-125 11.5h-401v-502zM603 -123h202v-207q0 -53 -20.5 -90t-51 -59.5t-66.5 -34.5t-64 -18v112 q43 4 72.5 29.5t29.5 60.5v23h-102v184z" horiz-adv-x="1406" unicode="Ŗ"/><glyph d="M152 -123h202v-207q0 -53 -20.5 -90t-51 -59.5t-66.5 -34.5t-64 -18v112q43 4 72.5 29.5t29.5 60.5v23h-102v184zM154 0v1040h180v-200h4q18 57 54 101t82 73.5t99.5 46t108.5 18.5l53 2v-127q-92 -4 -162.5 -24.5t-121 -63.5t-80 -110.5t-35.5 -165.5q-2 -29 -2 -55v-56 v-479h-180z" horiz-adv-x="768" unicode="ŗ"/><glyph d="M180 0v1434h635q39 0 89 -3.5t103.5 -16.5t103.5 -37.5t90 -66.5t64.5 -106.5t24.5 -154.5q0 -61 -16.5 -120t-48 -107t-77.5 -81.5t-104 -46.5v-6q72 -27 113 -63.5t61.5 -80.5t25.5 -95.5t7 -106.5q2 -74 3 -125t5.5 -89t15.5 -67.5t34 -60.5h-203q-18 25 -29.5 48.5 t-15.5 57t-6 80.5t-2 117q0 55 -6.5 109.5t-33 98.5t-80.5 70.5t-151 26.5h-409v-608h-193zM302 1843h192l209 -215l209 215h192l-256 -287h-290zM373 770h430q35 0 83 9t93 37t75.5 78t30.5 134q0 70 -23.5 117t-64.5 75.5t-98 40t-125 11.5h-401v-502z" horiz-adv-x="1406" unicode="Ř"/><glyph d="M11 1434h180l198 -203l199 203h180l-243 -271h-271zM154 0v1040h180v-200h4q18 57 54 101t82 73.5t99.5 46t108.5 18.5l53 2v-127q-92 -4 -162.5 -24.5t-121 -63.5t-80 -110.5t-35.5 -165.5q-2 -29 -2 -55v-56v-479h-180z" horiz-adv-x="768" unicode="ř"/><glyph d="M98 455h193q-2 -72 24.5 -133.5t80 -106.5t130 -70.5t174.5 -25.5q96 0 163 22.5t109 59.5t61.5 85t19.5 99q0 66 -27 110t-67.5 71.5t-93 44t-101.5 26.5q-123 27 -234.5 50.5t-196.5 66.5t-135.5 115.5t-50.5 195.5q0 100 39 178t111 129t172 78t221 27 q133 0 230.5 -34t162 -91.5t98 -133t40.5 -157.5h-193q-10 88 -52 139t-95.5 77t-108.5 32t-88 6q-150 0 -241 -64.5t-91 -175.5q0 -66 30 -105.5t79 -65t113.5 -40t136.5 -28.5q96 -18 193 -42t176 -71t128 -126t49 -208q0 -106 -33.5 -180t-87 -122t-119 -74.5t-128 -39 t-116.5 -14.5t-83 -2q-76 0 -175 14.5t-189 64.5t-155 149.5t-73 269.5zM541 1556l151 287h230l-209 -287h-172z" horiz-adv-x="1355" unicode="Ś"/><glyph d="M80 309h180q2 -61 26.5 -104t64.5 -69.5t90.5 -38t101.5 -11.5q90 0 139 24.5t71.5 57.5t25.5 65.5t3 49.5q0 25 -5 48t-27.5 44.5t-66.5 41t-120 38.5l-110 24q-66 14 -125.5 32.5t-104.5 51.5t-71.5 85t-26.5 134q0 86 35 144.5t92 92.5t127 48t141 14q133 0 214 -32.5 t126 -80.5t61.5 -102.5t20.5 -97.5h-172q-2 23 -11 54.5t-35 61t-73 50t-125 20.5q-8 0 -42.5 -2t-72.5 -17t-69 -49t-31 -95q0 -55 23.5 -88t63.5 -51.5t92.5 -30t107.5 -23.5q80 -18 147.5 -37.5t117.5 -51.5t78 -83t28 -131q0 -82 -29 -138.5t-72 -94t-95 -58t-100 -31 t-84 -12.5t-48 -2q-117 0 -202 27.5t-142.5 76t-86 112t-30.5 134.5zM398 1163l143 271h217l-197 -271h-163z" horiz-adv-x="1048" unicode="ś"/><glyph d="M98 455h193q-2 -72 24.5 -133.5t80 -106.5t130 -70.5t174.5 -25.5q96 0 163 22.5t109 59.5t61.5 85t19.5 99q0 66 -27 110t-67.5 71.5t-93 44t-101.5 26.5q-123 27 -234.5 50.5t-196.5 66.5t-135.5 115.5t-50.5 195.5q0 100 39 178t111 129t172 78t221 27 q133 0 230.5 -34t162 -91.5t98 -133t40.5 -157.5h-193q-10 88 -52 139t-95.5 77t-108.5 32t-88 6q-150 0 -241 -64.5t-91 -175.5q0 -66 30 -105.5t79 -65t113.5 -40t136.5 -28.5q96 -18 193 -42t176 -71t128 -126t49 -208q0 -106 -33.5 -180t-87 -122t-119 -74.5t-128 -39 t-116.5 -14.5t-83 -2q-76 0 -175 14.5t-189 64.5t-155 149.5t-73 269.5zM277 1556l256 287h290l256 -287h-192l-209 216l-209 -216h-192z" horiz-adv-x="1355" unicode="Ŝ"/><glyph d="M80 309h180q2 -61 26.5 -104t64.5 -69.5t90.5 -38t101.5 -11.5q90 0 139 24.5t71.5 57.5t25.5 65.5t3 49.5q0 25 -5 48t-27.5 44.5t-66.5 41t-120 38.5l-110 24q-66 14 -125.5 32.5t-104.5 51.5t-71.5 85t-26.5 134q0 86 35 144.5t92 92.5t127 48t141 14q133 0 214 -32.5 t126 -80.5t61.5 -102.5t20.5 -97.5h-172q-2 23 -11 54.5t-35 61t-73 50t-125 20.5q-8 0 -42.5 -2t-72.5 -17t-69 -49t-31 -95q0 -55 23.5 -88t63.5 -51.5t92.5 -30t107.5 -23.5q80 -18 147.5 -37.5t117.5 -51.5t78 -83t28 -131q0 -82 -29 -138.5t-72 -94t-95 -58t-100 -31 t-84 -12.5t-48 -2q-117 0 -202 27.5t-142.5 76t-86 112t-30.5 134.5zM146 1163l243 271h271l243 -271h-180l-199 203l-198 -203h-180z" horiz-adv-x="1048" unicode="ŝ"/><glyph d="M98 455h193q-2 -72 24.5 -133.5t80 -106.5t130 -70.5t174.5 -25.5q96 0 163 22.5t109 59.5t61.5 85t19.5 99q0 66 -27 110t-67.5 71.5t-93 44t-101.5 26.5q-123 27 -234.5 50.5t-196.5 66.5t-135.5 115.5t-50.5 195.5q0 100 39 178t111 129t172 78t221 27 q133 0 230.5 -34t162 -91.5t98 -133t40.5 -157.5h-193q-10 88 -52 139t-95.5 77t-108.5 32t-88 6q-150 0 -241 -64.5t-91 -175.5q0 -66 30 -105.5t79 -65t113.5 -40t136.5 -28.5q96 -18 193 -42t176 -71t128 -126t49 -208q0 -106 -33.5 -180t-87 -122t-119 -74.5t-128 -39 t-116.5 -14.5t-83 -2q-76 0 -175 14.5t-189 64.5t-155 149.5t-73 269.5zM461 -475l35 115q16 -6 45 -11.5t82 -5.5q70 0 99.5 21.5t29.5 54.5q0 31 -18.5 46t-45 22.5t-57.5 7.5h-55h-35l31 106h65q88 0 141.5 -19.5t83 -49t39 -65.5t9.5 -66q0 -27 -10.5 -57t-39 -55.5 t-80 -43t-132.5 -17.5q-23 0 -69 3.5t-118 13.5z" horiz-adv-x="1355" unicode="Ş"/><glyph d="M80 309h180q2 -61 26.5 -104t64.5 -69.5t90.5 -38t101.5 -11.5q90 0 139 24.5t71.5 57.5t25.5 65.5t3 49.5q0 25 -5 48t-27.5 44.5t-66.5 41t-120 38.5l-110 24q-66 14 -125.5 32.5t-104.5 51.5t-71.5 85t-26.5 134q0 86 35 144.5t92 92.5t127 48t141 14q133 0 214 -32.5 t126 -80.5t61.5 -102.5t20.5 -97.5h-172q-2 23 -11 54.5t-35 61t-73 50t-125 20.5q-8 0 -42.5 -2t-72.5 -17t-69 -49t-31 -95q0 -55 23.5 -88t63.5 -51.5t92.5 -30t107.5 -23.5q80 -18 147.5 -37.5t117.5 -51.5t78 -83t28 -131q0 -82 -29 -138.5t-72 -94t-95 -58t-100 -31 t-84 -12.5t-48 -2q-117 0 -202 27.5t-142.5 76t-86 112t-30.5 134.5zM307 -475l35 115q16 -6 45 -11.5t82 -5.5q70 0 99.5 21.5t29.5 54.5q0 31 -18.5 46t-45 22.5t-57.5 7.5h-55h-35l31 106h65q88 0 141.5 -19.5t83 -49t39 -65.5t9.5 -66q0 -27 -10.5 -57t-39 -55.5 t-80 -43t-132.5 -17.5q-23 0 -69 3.5t-118 13.5z" horiz-adv-x="1048" unicode="ş"/><glyph d="M98 455h193q-2 -72 24.5 -133.5t80 -106.5t130 -70.5t174.5 -25.5q96 0 163 22.5t109 59.5t61.5 85t19.5 99q0 66 -27 110t-67.5 71.5t-93 44t-101.5 26.5q-123 27 -234.5 50.5t-196.5 66.5t-135.5 115.5t-50.5 195.5q0 100 39 178t111 129t172 78t221 27 q133 0 230.5 -34t162 -91.5t98 -133t40.5 -157.5h-193q-10 88 -52 139t-95.5 77t-108.5 32t-88 6q-150 0 -241 -64.5t-91 -175.5q0 -66 30 -105.5t79 -65t113.5 -40t136.5 -28.5q96 -18 193 -42t176 -71t128 -126t49 -208q0 -106 -33.5 -180t-87 -122t-119 -74.5t-128 -39 t-116.5 -14.5t-83 -2q-76 0 -175 14.5t-189 64.5t-155 149.5t-73 269.5zM277 1843h192l209 -215l209 215h192l-256 -287h-290z" horiz-adv-x="1355" unicode="Š"/><glyph d="M80 309h180q2 -61 26.5 -104t64.5 -69.5t90.5 -38t101.5 -11.5q90 0 139 24.5t71.5 57.5t25.5 65.5t3 49.5q0 25 -5 48t-27.5 44.5t-66.5 41t-120 38.5l-110 24q-66 14 -125.5 32.5t-104.5 51.5t-71.5 85t-26.5 134q0 86 35 144.5t92 92.5t127 48t141 14q133 0 214 -32.5 t126 -80.5t61.5 -102.5t20.5 -97.5h-172q-2 23 -11 54.5t-35 61t-73 50t-125 20.5q-8 0 -42.5 -2t-72.5 -17t-69 -49t-31 -95q0 -55 23.5 -88t63.5 -51.5t92.5 -30t107.5 -23.5q80 -18 147.5 -37.5t117.5 -51.5t78 -83t28 -131q0 -82 -29 -138.5t-72 -94t-95 -58t-100 -31 t-84 -12.5t-48 -2q-117 0 -202 27.5t-142.5 76t-86 112t-30.5 134.5zM146 1434h180l198 -203l199 203h180l-243 -271h-271z" horiz-adv-x="1048" unicode="š"/><glyph d="M33 1272v162h1124v-162h-465v-1272h-192v1272h-467zM377 -475l35 115q16 -6 45 -11.5t82 -5.5q70 0 99.5 21.5t29.5 54.5q0 31 -18.5 46t-45 22.5t-57.5 7.5h-55h-35l31 106h65q88 0 141.5 -19.5t83 -49t39 -65.5t9.5 -66q0 -27 -10.5 -57t-39 -55.5t-80 -43 t-132.5 -17.5q-23 0 -69 3.5t-118 13.5z" horiz-adv-x="1189" unicode="Ţ"/><glyph d="M33 913v127h186v312h180v-312h222v-127h-222v-661q0 -29 1 -54.5t10.5 -46t32 -31.5t65.5 -11q29 0 57.5 5t55.5 13v-127q-43 -18 -92.5 -29.5t-96.5 -11.5q-80 0 -124 24.5t-63.5 62.5t-22.5 83t-3 86v698h-186zM176 -475l35 115q16 -6 45 -11.5t82 -5.5q70 0 99.5 21.5 t29.5 54.5q0 31 -18.5 46t-45 22.5t-57.5 7.5h-55h-35l31 106h65q88 0 141.5 -19.5t83 -49t39 -65.5t9.5 -66q0 -27 -10.5 -57t-39 -55.5t-80 -43t-132.5 -17.5q-23 0 -69 3.5t-118 13.5z" horiz-adv-x="667" unicode="ţ"/><glyph d="M33 1272v162h1124v-162h-465v-1272h-192v1272h-467zM193 1843h192l209 -215l209 215h192l-256 -287h-290z" horiz-adv-x="1189" unicode="Ť"/><glyph d="M33 913v127h186v312h180v-312h222v-127h-222v-661q0 -29 1 -54.5t10.5 -46t32 -31.5t65.5 -11q29 0 57.5 5t55.5 13v-127q-43 -18 -92.5 -29.5t-96.5 -11.5q-80 0 -124 24.5t-63.5 62.5t-22.5 83t-3 86v698h-186zM736 907v113q43 4 72.5 42t29.5 85v63h-102v224h202v-287 q0 -61 -20.5 -104.5t-51 -71t-65.5 -43t-65 -21.5z" horiz-adv-x="929" unicode="ť"/><glyph d="M33 1272v162h1124v-162h-465v-320h307v-143h-307v-809h-192v809h-312v143h312v320h-467z" horiz-adv-x="1189" unicode="Ŧ"/><glyph d="M33 555v127h186v231h-186v127h186v312h180v-312h222v-127h-222v-231h222v-127h-222v-303q0 -29 1 -54.5t10.5 -46t32 -31.5t65.5 -11q29 0 57.5 5t55.5 13v-127q-43 -18 -92.5 -29.5t-96.5 -11.5q-80 0 -124 24.5t-63.5 62.5t-22.5 83t-3 86v340h-186z" horiz-adv-x="667" unicode="ŧ"/><glyph d="M154 555v879h192v-854q0 -66 7 -147t44 -150.5t112 -116.5t210 -47q106 0 178 29.5t115 88t61.5 144.5t18.5 199v854h192v-879q0 -145 -30.5 -246.5t-81 -168t-113 -103.5t-126 -54.5t-119.5 -21.5t-95 -4q-131 0 -223.5 27.5t-156 72.5t-100 106.5t-56 127t-24.5 134.5 t-5 130zM328 1579q6 41 25.5 80t50 68.5t72.5 48t93 18.5q66 0 101.5 -16.5t58.5 -30.5q47 -29 86 -44t74 -15t70.5 20.5t45.5 69.5h125q-6 -39 -22.5 -79t-46 -72t-71.5 -51.5t-97 -19.5t-92 15.5t-88 40.5q-41 20 -72 35.5t-72 15.5q-43 0 -75.5 -21.5t-38.5 -62.5h-127z" horiz-adv-x="1437" unicode="Ũ"/><glyph d="M154 350v690h180v-637q0 -98 16.5 -159.5t45 -97t68.5 -48t89 -12.5q113 0 174 50t89 115.5t32 129t4 92.5v567h180v-1040h-180v147h-4q-39 -68 -94.5 -105.5t-107.5 -56t-94 -22.5t-56 -4q-115 0 -183.5 39t-103.5 98.5t-45 127t-10 126.5zM213 1245q14 80 71.5 142.5 t155.5 62.5q43 0 75.5 -10t75.5 -35q29 -16 68 -36.5t84 -20.5q39 0 68.5 24.5t40.5 61.5h118q-6 -31 -20.5 -68t-41 -68.5t-67.5 -52t-98 -20.5q-49 0 -89 16t-79 37q-33 16 -66.5 32.5t-70.5 16.5q-33 0 -67 -17.5t-38 -64.5h-120z" horiz-adv-x="1185" unicode="ũ"/><glyph d="M154 555v879h192v-854q0 -66 7 -147t44 -150.5t112 -116.5t210 -47q106 0 178 29.5t115 88t61.5 144.5t18.5 199v854h192v-879q0 -145 -30.5 -246.5t-81 -168t-113 -103.5t-126 -54.5t-119.5 -21.5t-95 -4q-131 0 -223.5 27.5t-156 72.5t-100 106.5t-56 127t-24.5 134.5 t-5 130zM396 1581v123h647v-123h-324h-323z" horiz-adv-x="1437" unicode="Ū"/><glyph d="M154 350v690h180v-637q0 -98 16.5 -159.5t45 -97t68.5 -48t89 -12.5q113 0 174 50t89 115.5t32 129t4 92.5v567h180v-1040h-180v147h-4q-39 -68 -94.5 -105.5t-107.5 -56t-94 -22.5t-56 -4q-115 0 -183.5 39t-103.5 98.5t-45 127t-10 126.5zM269 1255v123h647v-123h-324 h-323z" horiz-adv-x="1185" unicode="ū"/><glyph d="M154 555v879h192v-854q0 -66 7 -147t44 -150.5t112 -116.5t210 -47q106 0 178 29.5t115 88t61.5 144.5t18.5 199v854h192v-879q0 -145 -30.5 -246.5t-81 -168t-113 -103.5t-126 -54.5t-119.5 -21.5t-95 -4q-131 0 -223.5 27.5t-156 72.5t-100 106.5t-56 127t-24.5 134.5 t-5 130zM345 1843h159q2 -80 62.5 -126t152.5 -46t144.5 38t70.5 134h160q-8 -43 -28.5 -93t-63.5 -93t-110.5 -72t-172.5 -29q-104 0 -171.5 29t-110.5 72t-63.5 93t-28.5 93z" horiz-adv-x="1437" unicode="Ŭ"/><glyph d="M154 350v690h180v-637q0 -98 16.5 -159.5t45 -97t68.5 -48t89 -12.5q113 0 174 50t89 115.5t32 129t4 92.5v567h180v-1040h-180v147h-4q-39 -68 -94.5 -105.5t-107.5 -56t-94 -22.5t-56 -4q-115 0 -183.5 39t-103.5 98.5t-45 127t-10 126.5zM240 1434h151 q4 -61 51 -111.5t150 -50.5q102 0 149 50t52 112h151q-6 -41 -26.5 -88.5t-61.5 -88t-105.5 -67.5t-158.5 -27q-96 0 -159.5 27t-104.5 67.5t-61.5 88t-26.5 88.5z" horiz-adv-x="1185" unicode="ŭ"/><glyph d="M154 555v879h192v-854q0 -66 7 -147t44 -150.5t112 -116.5t210 -47q106 0 178 29.5t115 88t61.5 144.5t18.5 199v854h192v-879q0 -145 -30.5 -246.5t-81 -168t-113 -103.5t-126 -54.5t-119.5 -21.5t-95 -4q-131 0 -223.5 27.5t-156 72.5t-100 106.5t-56 127t-24.5 134.5 t-5 130zM519 1683q0 84 58 142.5t142 58.5t142.5 -58.5t58.5 -142.5t-58.5 -142t-142.5 -58t-142 58t-58 142zM605 1683q0 -47 33.5 -80.5t80.5 -33.5t81 33.5t34 80.5t-34 81t-81 34t-80.5 -34t-33.5 -81z" horiz-adv-x="1437" unicode="Ů"/><glyph d="M154 350v690h180v-637q0 -98 16.5 -159.5t45 -97t68.5 -48t89 -12.5q113 0 174 50t89 115.5t32 129t4 92.5v567h180v-1040h-180v147h-4q-39 -68 -94.5 -105.5t-107.5 -56t-94 -22.5t-56 -4q-115 0 -183.5 39t-103.5 98.5t-45 127t-10 126.5zM404 1352q0 39 14 73.5 t39.5 60t60.5 40t74 14.5t74 -14.5t60.5 -40t39.5 -60t14 -73.5t-14 -74t-39.5 -60.5t-60.5 -40t-74 -14.5t-74 14.5t-60.5 40t-39.5 60.5t-14 74zM485 1352q0 -45 31 -76t76 -31t75.5 31t30.5 76t-30.5 75.5t-75.5 30.5t-76 -30.5t-31 -75.5z" horiz-adv-x="1185" unicode="ů"/><glyph d="M154 555v879h192v-854q0 -66 7 -147t44 -150.5t112 -116.5t210 -47q106 0 178 29.5t115 88t61.5 144.5t18.5 199v854h192v-879q0 -145 -30.5 -246.5t-81 -168t-113 -103.5t-126 -54.5t-119.5 -21.5t-95 -4q-131 0 -223.5 27.5t-156 72.5t-100 106.5t-56 127t-24.5 134.5 t-5 130zM422 1556l143 287h217l-197 -287h-163zM735 1556l143 287h217l-196 -287h-164z" horiz-adv-x="1437" unicode="Ű"/><glyph d="M154 350v690h180v-637q0 -98 16.5 -159.5t45 -97t68.5 -48t89 -12.5q113 0 174 50t89 115.5t32 129t4 92.5v567h180v-1040h-180v147h-4q-39 -68 -94.5 -105.5t-107.5 -56t-94 -22.5t-56 -4q-115 0 -183.5 39t-103.5 98.5t-45 127t-10 126.5zM297 1163l143 271h217 l-197 -271h-163zM610 1163l143 271h217l-196 -271h-164z" horiz-adv-x="1185" unicode="ű"/><glyph d="M154 555v879h192v-854q0 -66 7 -147t44 -150.5t112 -116.5t210 -47q106 0 178 29.5t115 88t61.5 144.5t18.5 199v854h192v-879q0 -129 -25.5 -224t-67.5 -162t-96.5 -109t-112.5 -64.5t-115.5 -30.5t-106.5 -8q-33 -31 -54.5 -80t-21.5 -88q0 -47 22.5 -84t71.5 -37 q27 0 43.5 11.5t26.5 26.5t15 33.5t5 35.5h152q-2 -41 -18.5 -83t-47 -76t-77 -54.5t-109.5 -20.5q-117 0 -192.5 56.5t-75.5 152.5q0 45 19.5 99.5t78.5 113.5q-154 16 -243 82t-133 154t-56 184t-12 172z" horiz-adv-x="1437" unicode="Ų"/><glyph d="M154 350v690h180v-637q0 -98 16.5 -159.5t45 -97t68.5 -48t89 -12.5q113 0 174 50t89 115.5t32 129t4 92.5v567h180v-1040h-6q-59 -35 -95 -94.5t-36 -116.5q0 -47 22.5 -84t71.5 -37q27 0 43.5 11.5t26.5 26.5t15 33.5t5 35.5h152q-2 -41 -18.5 -83t-47 -76t-77 -54.5 t-109.5 -20.5q-117 0 -192.5 56.5t-75.5 152.5q0 29 5 56.5t17 52.5q14 31 32.5 55.5t37 42.5t32 29.5t17.5 13.5v147h-4q-39 -68 -94.5 -105.5t-107.5 -56t-94 -22.5t-56 -4q-115 0 -183.5 39t-103.5 98.5t-45 127t-10 126.5z" horiz-adv-x="1185" unicode="ų"/><glyph d="M-72 1434h217l299 -1205l297 1205h221l297 -1205l299 1205h217l-381 -1434h-245l-297 1206l-297 -1206h-246zM447 1556l256 287h290l256 -287h-192l-209 216l-209 -216h-192z" horiz-adv-x="1695" unicode="Ŵ"/><glyph d="M-2 1040h186l254 -833l217 833h176l218 -833l254 833h186l-336 -1040h-192l-218 834l-217 -834h-192zM365 1163l243 271h271l243 -271h-180l-199 203l-198 -203h-180z" horiz-adv-x="1486" unicode="ŵ"/><glyph d="M-2 1434h229l400 -664l397 664h229l-530 -836v-598h-193v598zM224 1556l256 287h290l256 -287h-192l-209 216l-209 -216h-192z" horiz-adv-x="1251" unicode="Ŷ"/><glyph d="M20 1040h216l333 -841l277 841h180l-414 -1163q-12 -37 -28.5 -83t-46 -86t-76.5 -67.5t-121 -27.5q-43 0 -81 2t-66 8v133q41 -6 59 -8t31 -2q39 0 65.5 14.5t45 39t29.5 56t23 66.5l25 78zM138 1163l243 271h271l243 -271h-180l-199 203l-198 -203h-180z" horiz-adv-x="1032" unicode="ŷ"/><glyph d="M-2 1434h229l400 -664l397 664h229l-530 -836v-598h-193v598zM308 1581v162h192v-162h-192zM750 1581v162h192v-162h-192z" horiz-adv-x="1251" unicode="Ÿ"/><glyph d="M59 0v176l842 1096h-797v162h1022v-154l-831 -1118h872v-162h-1108zM475 1556l151 287h230l-209 -287h-172z" horiz-adv-x="1226" unicode="Ź"/><glyph d="M59 0v127l623 786h-580v127h779v-127l-605 -786h635v-127h-852zM359 1163l143 271h217l-197 -271h-163z" horiz-adv-x="970" unicode="ź"/><glyph d="M59 0v176l842 1096h-797v162h1022v-154l-831 -1118h872v-162h-1108zM517 1581v162h192v-162h-192z" horiz-adv-x="1226" unicode="Ż"/><glyph d="M59 0v127l623 786h-580v127h779v-127l-605 -786h635v-127h-852zM392 1245v189h188v-189h-188z" horiz-adv-x="970" unicode="ż"/><glyph d="M59 0v176l842 1096h-797v162h1022v-154l-831 -1118h872v-162h-1108zM211 1843h192l209 -215l209 215h192l-256 -287h-290z" horiz-adv-x="1226" unicode="Ž"/><glyph d="M59 0v127l623 786h-580v127h779v-127l-605 -786h635v-127h-852zM109 1434h180l198 -203l199 203h180l-243 -271h-271z" horiz-adv-x="970" unicode="ž"/><glyph d="M104 739h1164q-2 125 -26.5 215t-65.5 155t-91.5 104.5t-103.5 62t-103.5 31t-89.5 8.5q-33 0 -101.5 -7.5t-142 -39t-137 -96t-85.5 -181.5h-199q25 123 85 214t147 151.5t197 90.5t236 30q150 0 276 -48.5t217 -143.5t141.5 -237.5t50.5 -330.5q0 -186 -45.5 -316.5 t-114 -214.5t-150.5 -130t-157.5 -68.5t-135 -26.5t-82.5 -4q-137 0 -242.5 36t-181 96.5t-127 139t-82 165.5t-42 176t-9.5 169zM313 569q6 -59 32 -137t79 -147.5t142 -117.5t222 -48q115 0 201 39t144.5 102.5t90 144t38.5 164.5h-949z" horiz-adv-x="1576" unicode="Ə"/><glyph d="M80 -379l29 133q10 -2 28 -2q86 0 125 37t60 133l208 991h-190l27 127h190l31 142q55 252 332 252q70 0 127 -15l-25 -123q-23 4 -63.5 7.5t-63.5 3.5q-39 0 -63.5 -17.5t-38 -41t-19.5 -47t-8 -36.5l-27 -125h224l-27 -127h-223l-211 -1003q-10 -43 -24.5 -95.5 t-47.5 -97.5t-89 -74.5t-148 -29.5q-31 0 -67 3t-46 5z" horiz-adv-x="1208" unicode="ƒ"/><glyph d="M98 717q0 188 51.5 330.5t141.5 237.5t216 143.5t275 48.5q98 0 198.5 -25t190.5 -84q47 -10 84 -10q84 0 115 51t31 125q0 37 -9.5 79t-31.5 79h192q37 -84 37 -160q0 -117 -70.5 -190.5t-201.5 -73.5h-27q78 -90 127 -224.5t49 -326.5q0 -186 -45 -316.5t-113.5 -214.5 t-150.5 -130t-157.5 -68.5t-135 -26.5t-82.5 -4t-83 4t-136 26.5t-157.5 68.5t-150.5 130t-113 213.5t-44 317.5zM303 717q0 -86 17.5 -190.5t68.5 -195.5t145.5 -151.5t247.5 -60.5q25 0 70 4t98.5 22.5t108.5 56.5t100 103.5t74 165.5t29 246q0 127 -29 236.5t-87.5 189.5 t-149.5 126t-214 46q-109 0 -187.5 -34t-131.5 -87t-85 -119.5t-48.5 -133.5t-21.5 -126t-5 -98z" horiz-adv-x="1615" unicode="Ơ"/><glyph d="M94 520q0 104 26.5 204.5t87 179.5t159 128t239.5 49q68 0 125 -11t105 -34h45q90 0 142 40t52 138q0 49 -16 105h188q16 -61 17 -107q0 -117 -71 -191.5t-202 -74.5h-24q82 -82 116.5 -194.5t34.5 -231.5q0 -104 -26.5 -204.5t-87 -179.5t-158.5 -128t-240 -49 q-141 0 -239.5 49t-159 128t-87 179.5t-26.5 204.5zM285 522q0 -158 38.5 -245t92 -130t106.5 -52t84 -9t84 9t106.5 52t92.5 130.5t39 244.5q0 156 -39 244t-92.5 131t-106.5 52t-84 9t-84 -9t-106.5 -52t-92 -131t-38.5 -244z" horiz-adv-x="1269" unicode="ơ"/><glyph d="M154 555v879h192v-854q0 -66 7 -147t44 -150.5t112 -116.5t210 -47q106 0 178 29.5t115 88t61.5 144.5t18.5 199v854h180q168 0 168 176q0 23 -7.5 56.5t-17.5 68.5h189q12 -29 18 -67t6 -60q0 -117 -70.5 -192t-201.5 -75h-34.5t-37.5 2v-788q0 -145 -30.5 -246.5 t-81 -168t-113 -103.5t-125 -54.5t-119.5 -21.5t-96 -4q-131 0 -224.5 27.5t-156 72.5t-99 106.5t-56 127t-24.5 134.5t-5 130z" horiz-adv-x="1536" unicode="Ư"/><glyph d="M154 350v690h180v-637q0 -98 16.5 -159.5t45 -97t68.5 -48t89 -12.5q113 0 173 50t88 115.5t33 129t5 92.5v567h160q72 0 118 45t46 129q0 43 -13 91h189q12 -53 12 -93q0 -117 -70.5 -191.5t-201.5 -74.5h-29.5t-30.5 2v-948h-180v147h-4q-39 -68 -94.5 -105.5 t-107.5 -56t-94 -22.5t-56 -4q-115 0 -183.5 39t-103.5 98.5t-45 127t-10 126.5z" horiz-adv-x="1296" unicode="ư"/><glyph d="M94 561h801q0 55 -15.5 124t-51 129t-98 100t-157.5 40q-47 0 -95 -13t-88 -41t-68.5 -67.5t-36.5 -93.5h-172q25 125 91 195t142 102.5t139.5 38.5t81.5 6q127 0 215 -33.5t145.5 -87t89.5 -119t47 -127t18 -113.5t3 -77q0 -137 -31.5 -233t-81.5 -158.5t-110.5 -97.5 t-117 -52.5t-101.5 -20.5t-65 -3q-145 0 -239.5 49t-150 132t-76 192.5t-18.5 228.5zM283 434q4 -127 43 -196.5t88 -103.5t95 -41t64 -7q100 0 163 36t97.5 89t47 113.5t14.5 109.5h-612z" horiz-adv-x="1179" unicode="ǝ"/><glyph d="M98 731q0 182 49.5 321.5t141.5 233.5t221 142.5t289 48.5q143 0 248.5 -40t176 -105.5t109.5 -149.5t49 -172h-192q-4 49 -24.5 103t-65.5 98t-120 74t-185 30q-113 0 -194 -33t-135 -86t-87 -118.5t-49.5 -131t-21.5 -124t-5 -97.5q0 -27 4 -82t20.5 -121.5 t48.5 -138.5t86 -130t135 -96t196 -38q133 0 217 48t132 118.5t66.5 152.5t18.5 148h-410v162h586v-748h-150v231h-4q-61 -129 -184 -201.5t-293 -72.5q-129 0 -250 40t-215 131t-151.5 239.5t-57.5 363.5zM363 1843h192l209 -215l209 215h192l-256 -287h-290z" horiz-adv-x="1527" unicode="Ǧ"/><glyph d="M102 528q0 25 2 75t14.5 111.5t40 126t78 119t127 88t189.5 33.5q129 0 220 -47t140 -137h7v143h167v-1013q0 -100 -27.5 -170t-70.5 -117t-97 -73.5t-105.5 -41t-96.5 -17.5t-69 -3q-37 0 -102.5 4t-134.5 29.5t-127 82t-83 162.5h172q12 -45 41 -73.5t67 -46t82 -23.5 t85 -6q106 0 163.5 43t85 98t32.5 108.5t5 73.5v113q-37 -59 -71.5 -99t-74.5 -64.5t-86 -36t-104 -11.5q-92 0 -177 33t-149.5 101.5t-103.5 176t-39 258.5zM242 1434h180l198 -203l199 203h180l-243 -271h-271zM293 535q0 -158 38 -248t90 -134t106 -55.5t85 -11.5 q25 0 76 13.5t102.5 59.5t90.5 134t39 239q0 197 -82 309.5t-242 112.5q-76 0 -128 -25.5t-86 -64.5t-51.5 -88t-26.5 -95t-10 -86t-1 -60z" horiz-adv-x="1241" unicode="ǧ"/><glyph d="M98 455h193q-2 -72 24.5 -133.5t80 -106.5t130 -70.5t174.5 -25.5q96 0 163 22.5t109 59.5t61.5 85t19.5 99q0 66 -27 110t-67.5 71.5t-93 44t-101.5 26.5q-123 27 -234.5 50.5t-196.5 66.5t-135.5 115.5t-50.5 195.5q0 100 39 178t111 129t172 78t221 27 q133 0 230.5 -34t162 -91.5t98 -133t40.5 -157.5h-193q-10 88 -52 139t-95.5 77t-108.5 32t-88 6q-150 0 -241 -64.5t-91 -175.5q0 -66 30 -105.5t79 -65t113.5 -40t136.5 -28.5q96 -18 193 -42t176 -71t128 -126t49 -208q0 -106 -33.5 -180t-87 -122t-119 -74.5t-128 -39 t-116.5 -14.5t-83 -2q-76 0 -175 14.5t-189 64.5t-155 149.5t-73 269.5zM576 -123h202v-207q0 -53 -20.5 -90t-51 -59.5t-66.5 -34.5t-64 -18v112q43 4 72.5 29.5t29.5 60.5v23h-102v184z" horiz-adv-x="1355" unicode="Ș"/><glyph d="M80 309h180q2 -61 26.5 -104t64.5 -69.5t90.5 -38t101.5 -11.5q90 0 139 24.5t71.5 57.5t25.5 65.5t3 49.5q0 25 -5 48t-27.5 44.5t-66.5 41t-120 38.5l-110 24q-66 14 -125.5 32.5t-104.5 51.5t-71.5 85t-26.5 134q0 86 35 144.5t92 92.5t127 48t141 14q133 0 214 -32.5 t126 -80.5t61.5 -102.5t20.5 -97.5h-172q-2 23 -11 54.5t-35 61t-73 50t-125 20.5q-8 0 -42.5 -2t-72.5 -17t-69 -49t-31 -95q0 -55 23.5 -88t63.5 -51.5t92.5 -30t107.5 -23.5q80 -18 147.5 -37.5t117.5 -51.5t78 -83t28 -131q0 -82 -29 -138.5t-72 -94t-95 -58t-100 -31 t-84 -12.5t-48 -2q-117 0 -202 27.5t-142.5 76t-86 112t-30.5 134.5zM422 -123h202v-207q0 -53 -20.5 -90t-51 -59.5t-66.5 -34.5t-64 -18v112q43 4 72.5 29.5t29.5 60.5v23h-102v184z" horiz-adv-x="1048" unicode="ș"/><glyph d="M33 1272v162h1124v-162h-465v-1272h-192v1272h-467zM494 -123h202v-207q0 -53 -20.5 -90t-51 -59.5t-66.5 -34.5t-64 -18v112q43 4 72.5 29.5t29.5 60.5v23h-102v184z" horiz-adv-x="1189" unicode="Ț"/><glyph d="M33 913v127h186v312h180v-312h222v-127h-222v-661q0 -29 1 -54.5t10.5 -46t32 -31.5t65.5 -11q29 0 57.5 5t55.5 13v-127q-43 -18 -92.5 -29.5t-96.5 -11.5q-80 0 -124 24.5t-63.5 62.5t-22.5 83t-3 86v698h-186zM322 -123h202v-207q0 -53 -20.5 -90t-51 -59.5 t-66.5 -34.5t-64 -18v112q43 4 72.5 29.5t29.5 60.5v23h-102v184z" horiz-adv-x="667" unicode="ț"/><glyph d="M109 1163l243 271h271l243 -271h-180l-199 203l-198 -203h-180z" horiz-adv-x="974" unicode="ˆ"/><glyph d="M109 1434h180l198 -203l199 203h180l-243 -271h-271z" horiz-adv-x="974" unicode="ˇ"/><glyph d="M109 1434h151q4 -61 51 -111.5t150 -50.5q102 0 149 50t52 112h151q-6 -41 -26.5 -88.5t-61.5 -88t-105.5 -67.5t-158.5 -27q-96 0 -159.5 27t-104.5 67.5t-61.5 88t-26.5 88.5z" horiz-adv-x="921" unicode="˘"/><glyph d="M109 1245v189h188v-189h-188z" horiz-adv-x="405" unicode="˙"/><glyph d="M109 1352q0 39 14 73.5t39.5 60t60.5 40t74 14.5t74 -14.5t60.5 -40t39.5 -60t14 -73.5t-14 -74t-39.5 -60.5t-60.5 -40t-74 -14.5t-74 14.5t-60.5 40t-39.5 60.5t-14 74zM190 1352q0 -45 31 -76t76 -31t75.5 31t30.5 76t-30.5 75.5t-75.5 30.5t-76 -30.5t-31 -75.5z" horiz-adv-x="593" unicode="˚"/><glyph d="M104 -250q0 78 44.5 143.5t97.5 106.5h174q-59 -35 -95 -94.5t-36 -116.5q0 -47 22.5 -84t71.5 -37q27 0 43 11.5t26.5 26.5t15.5 33.5t5 35.5h152q-2 -41 -18.5 -83t-47.5 -76t-77 -54.5t-109 -20.5q-117 0 -193 56.5t-76 152.5z" horiz-adv-x="729" unicode="˛"/><glyph d="M109 1245q14 80 71.5 142.5t155.5 62.5q43 0 75.5 -10t75.5 -35q29 -16 68 -36.5t84 -20.5q39 0 68.5 24.5t40.5 61.5h118q-6 -31 -20.5 -68t-41 -68.5t-67.5 -52t-98 -20.5q-49 0 -89 16t-79 37q-33 16 -66.5 32.5t-70.5 16.5q-33 0 -67 -17.5t-38 -64.5h-120z" horiz-adv-x="974" unicode="˜"/><glyph d="M109 1163l143 271h217l-197 -271h-163zM422 1163l143 271h217l-196 -271h-164z" horiz-adv-x="890" unicode="˝"/><glyph d="M223 0v223h203v-286q0 -61 -20.5 -104.5t-51 -71t-65.5 -43t-66 -21.5v113q43 4 73 41.5t30 85.5v63h-103zM223 817v223h203v-223h-203z" horiz-adv-x="649" unicode=";"/><glyph d="M68 1163l143 299h225l-205 -299h-163z" horiz-adv-x="421" unicode="΄"/><glyph d="M47 1245v189h160v-189h-160zM240 1163l116 299h185l-203 -299h-98zM584 1245v189h159v-189h-159z" horiz-adv-x="790" unicode="΅"/><glyph d="M61 1163l144 299h225l-205 -299h-164zM111 0l542 1434h205l543 -1434h-207l-135 371h-606l-136 -371h-206zM506 532h500l-250 707z" horiz-adv-x="1398" unicode="Ά"/><glyph d="M162 436v226h203v-226h-203z" horiz-adv-x="524" unicode="·"/><glyph d="M61 1163l144 299h225l-205 -299h-164zM535 0v1434h1021v-162h-829v-451h752v-162h-752v-497h852v-162h-1044z" horiz-adv-x="1619" unicode="Έ"/><glyph d="M61 1163l144 299h225l-205 -299h-164zM535 0v1434h192v-598h721v598h192v-1434h-192v674h-721v-674h-192z" horiz-adv-x="1820" unicode="Ή"/><glyph d="M61 1163l144 299h225l-205 -299h-164zM535 0v1434h192v-1434h-192z" horiz-adv-x="907" unicode="Ί"/><glyph d="M61 1163l144 299h225l-205 -299h-164zM338 717q-2 365 186.5 562.5t497.5 197.5q313 0 498.5 -199t185.5 -561q0 -352 -179 -555t-505 -203q-330 0 -507 203t-177 555zM543 717q0 -297 127 -448.5t352 -149.5q213 0 346 145.5t133 452.5q0 266 -122 432t-357 166 q-236 0 -357.5 -164t-121.5 -434z" horiz-adv-x="1804" unicode="Ό"/><glyph d="M61 1163l144 299h225l-205 -299h-164zM473 1434h229l400 -664l397 664h230l-531 -836v-598h-192v598z" horiz-adv-x="1726" unicode="Ύ"/><glyph d="M0 1163l143 299h205l-184 -299h-164zM272 0v162h267v10q-143 92 -205 240.5t-62 328.5q0 139 35 271.5t113 236t204 166t308 62.5t308 -62.5t204 -166t112.5 -235.5t34.5 -272q0 -180 -61.5 -328.5t-204.5 -240.5v-10h266v-162h-540v188q55 14 114.5 48t108.5 98.5 t80.5 164t31.5 242.5q0 129 -31.5 235.5t-91 181.5t-143.5 116t-188 41t-188.5 -41t-143.5 -116t-91 -181.5t-32 -235.5q0 -143 32 -242.5t81 -164t108.5 -98t114.5 -48.5v-188h-541z" horiz-adv-x="1716" unicode="Ώ"/><glyph d="M-100 1245v189h160v-189h-160zM93 1163l116 299h185l-203 -299h-98zM154 182v858h180v-798q0 -63 17.5 -89t68.5 -26h20v-127q-20 -2 -38.5 -4t-41.5 -2q-100 0 -153 40t-53 148zM437 1245v189h159v-189h-159z" horiz-adv-x="475" unicode="ΐ"/><glyph d="M-2 0l543 1434h204l543 -1434h-207l-135 371h-606l-135 -371h-207zM393 532h500l-250 707z" unicode="Α"/><glyph d="M180 0v1434h629q131 0 214 -34t130 -86t65.5 -116.5t18.5 -128.5q0 -57 -18.5 -109.5t-51 -93.5t-75.5 -68.5t-95 -35.5v-6q45 -8 97.5 -28.5t97.5 -61.5t75.5 -105.5t30.5 -161.5q0 -78 -22.5 -149.5t-80.5 -126.5t-156.5 -89t-252.5 -34h-606zM373 162h399 q49 0 107.5 7t107.5 32.5t82 76t33 138.5q0 70 -23.5 117t-66.5 75.5t-103.5 42t-136.5 13.5h-399v-502zM373 825h387q80 0 133 18.5t86 49.5t47 71t14 85q0 31 -9 69.5t-37.5 72.5t-83 57.5t-144.5 23.5h-393v-447z" horiz-adv-x="1423" unicode="Β"/><glyph d="M180 0v1434h914v-162h-721v-1272h-193z" horiz-adv-x="1126" unicode="Γ"/><glyph d="M-2 0l543 1434h204l543 -1434h-1290zM262 162h762l-381 1077z" unicode="Δ"/><glyph d="M180 0v1434h1022v-162h-829v-451h751v-162h-751v-497h852v-162h-1045z" horiz-adv-x="1265" unicode="Ε"/><glyph d="M59 0v176l842 1096h-797v162h1022v-154l-831 -1118h872v-162h-1108z" horiz-adv-x="1226" unicode="Ζ"/><glyph d="M180 0v1434h193v-598h721v598h192v-1434h-192v674h-721v-674h-193z" horiz-adv-x="1466" unicode="Η"/><glyph d="M98 717q0 365 187.5 562.5t496.5 197.5q313 0 498.5 -199t185.5 -561q-2 -352 -180 -555t-504 -203q-330 0 -507 203t-177 555zM303 717q0 -297 127 -447.5t352 -150.5q213 0 346.5 145.5t133.5 452.5q0 266 -122 432t-358 166t-357.5 -164t-121.5 -434zM416 657v162h733 v-162h-733z" horiz-adv-x="1564" unicode="Θ"/><glyph d="M180 0v1434h193v-1434h-193z" horiz-adv-x="552" unicode="Ι"/><glyph d="M180 0v1434h193v-654l645 654h235l-682 -664l727 -770h-251l-674 748v-748h-193z" horiz-adv-x="1296" unicode="Κ"/><glyph d="M0 0l500 1434h229l502 -1434h-211l-406 1235l-405 -1235h-209z" horiz-adv-x="1228" unicode="Λ"/><glyph d="M180 0v1434h289l449 -1180l448 1180h289v-1434h-193v1149l4 55h-6l-465 -1204h-155l-467 1204h-4l4 -55v-1149h-193z" horiz-adv-x="1835" unicode="Μ"/><glyph d="M180 0v1434h213l762 -1137v1137h193v-1434h-211l-764 1137v-1137h-193z" horiz-adv-x="1527" unicode="Ν"/><glyph d="M41 0v162h1044v-162h-1044zM80 1272v162h967v-162h-967zM141 668v161h844v-161h-844z" horiz-adv-x="1126" unicode="Ξ"/><glyph d="M98 717q0 188 51.5 330.5t141.5 237.5t216 143.5t275 48.5q119 0 241 -37t220 -124t160.5 -233.5t62.5 -365.5q0 -186 -45 -316.5t-113.5 -214.5t-150.5 -130t-157.5 -68.5t-135 -26.5t-82.5 -4t-83 4t-136 26.5t-157.5 68.5t-150.5 130t-113 213.5t-44 317.5zM303 717 q0 -86 17.5 -190.5t68.5 -195.5t145.5 -151.5t247.5 -60.5q25 0 70 4t98.5 22.5t108.5 56.5t100 103.5t74 165.5t29 246q0 127 -29 236.5t-87.5 189.5t-149.5 126t-214 46q-109 0 -187.5 -34t-131.5 -87t-85 -119.5t-48.5 -133.5t-21.5 -126t-5 -98z" horiz-adv-x="1564" unicode="Ο"/><glyph d="M180 0v1434h1106v-1434h-192v1272h-721v-1272h-193z" horiz-adv-x="1466" unicode="Π"/><glyph d="M180 0v1434h584q111 0 200 -22.5t152.5 -72t98 -128t34.5 -189.5q0 -100 -26.5 -183t-86 -142.5t-155.5 -92.5t-236 -33h-372v-571h-193zM373 733h352q172 0 250 72t78 213q0 133 -81 193.5t-247 60.5h-352v-539z" horiz-adv-x="1320" unicode="Ρ"/><glyph d="M74 0v141l479 613l-447 534v146h959v-162h-715l426 -518l-461 -592h783v-162h-1024z" horiz-adv-x="1138" unicode="Σ"/><glyph d="M33 1272v162h1124v-162h-465v-1272h-192v1272h-467z" horiz-adv-x="1189" unicode="Τ"/><glyph d="M-2 1434h229l400 -664l397 664h229l-530 -836v-598h-193v598z" horiz-adv-x="1251" unicode="Υ"/><glyph d="M92 731q0 274 166 420.5t453 146.5h80v136h192v-136h80q285 0 451.5 -146t166.5 -421q0 -276 -167.5 -422.5t-450.5 -146.5h-80v-162h-192v162h-80q-285 0 -452 146.5t-167 422.5zM297 731q0 -215 112.5 -312t327.5 -95h54v813h-54q-215 0 -327.5 -98.5t-112.5 -307.5z M983 324h53q213 -2 327 95t114 312q0 209 -114 306.5t-327 99.5h-53v-813z" horiz-adv-x="1773" unicode="Φ"/><glyph d="M2 0l502 733l-475 701h239l359 -564l358 564h240l-475 -701l501 -733h-247l-377 596l-377 -596h-248z" horiz-adv-x="1253" unicode="Χ"/><glyph d="M115 1073v361h192v-363q0 -143 9.5 -207.5t31.5 -107.5q39 -82 122 -126t198 -40v844h192v-844q109 -4 193 38t127 128q20 43 30.5 107.5t10.5 207.5v363h192v-361q0 -211 -29.5 -318.5t-107.5 -181.5q-68 -66 -180.5 -105.5t-235.5 -39.5v-428h-192v428q-127 0 -241 40 t-177 105q-72 70 -103.5 180.5t-31.5 319.5z" horiz-adv-x="1527" unicode="Ψ"/><glyph d="M125 0v162h266v10q-143 92 -204.5 240.5t-61.5 328.5q0 139 35 271.5t112.5 236t203.5 166t308 62.5t308.5 -62.5t204 -166t112.5 -235.5t35 -272q0 -180 -61.5 -328.5t-204.5 -240.5v-10h266v-162h-541v188q55 14 114.5 48t109 98.5t81 164t31.5 242.5 q0 129 -31.5 235.5t-91 181.5t-143.5 116t-189 41q-104 0 -188 -41t-143.5 -116t-91 -181.5t-31.5 -235.5q0 -143 31.5 -242.5t81 -164t108.5 -98t115 -48.5v-188h-541z" horiz-adv-x="1568" unicode="Ω"/><glyph d="M41 1532v188h180v-188h-180zM197 0v1434h192v-1434h-192zM365 1532v188h180v-188h-180z" horiz-adv-x="585" unicode="Ϊ"/><glyph d="M-6 1434h227l400 -664l397 664h229l-530 -836v-598h-193v598zM328 1532v188h180v-188h-180zM733 1532v188h180v-188h-180z" horiz-adv-x="1239" unicode="Ϋ"/><glyph d="M94 520q0 246 122 403.5t353 157.5q135 0 230.5 -55t144.5 -154h4l27 168h180l-80 -489q6 -147 36 -286.5t83 -264.5h-180q-27 57 -43.5 114.5t-20.5 104.5h-4q-39 -119 -138 -188.5t-247 -69.5q-211 0 -339 136t-128 423zM285 520q0 -213 83 -323.5t232 -110.5 q129 -2 208 97.5t99 271.5l11 92l-13 100q-18 133 -96 220t-203 87q-143 0 -232 -107.5t-89 -326.5zM498 1163l143 299h225l-205 -299h-163z" horiz-adv-x="1282" unicode="ά"/><glyph d="M92 279q0 61 19.5 108t50.5 81t69.5 53.5t79.5 25.5v4q-23 6 -54.5 19.5t-59 39t-47 66.5t-19.5 102q0 35 12.5 86t54.5 99.5t123.5 83t221.5 34.5q27 0 67.5 -3t86.5 -13t93.5 -31.5t86 -57.5t64.5 -90.5t30 -131.5h-172q0 27 -10.5 61.5t-37 65t-74.5 52t-124 21.5 q-80 0 -127 -21.5t-71.5 -52t-31 -62.5t-6.5 -52q0 -57 24 -90t57.5 -48.5t70.5 -19.5t66 -4h133v-127h-154q-20 0 -59 -3t-78 -21.5t-68.5 -56.5t-29.5 -105q0 -106 75.5 -155.5t194.5 -49.5q70 0 122 19.5t86 52t51 74.5t17 87h172q-2 -43 -18 -105t-65.5 -118.5 t-139.5 -96.5t-239 -40q-137 0 -223.5 32t-135.5 79t-66.5 103t-17.5 106zM392 1163l143 299h225l-205 -299h-163z" horiz-adv-x="1069" unicode="έ"/><glyph d="M47 913v127q18 4 36.5 6.5t43.5 2.5q96 0 148.5 -34t58.5 -104q59 84 152.5 127t203.5 43q160 0 250 -94t90 -295v-1069h-180v1059q0 135 -54.5 203.5t-162.5 68.5q-145 -2 -222 -101t-77 -286v-567h-180v799q0 61 -18.5 87.5t-67.5 26.5h-21zM443 1163l143 299h225 l-205 -299h-163z" horiz-adv-x="1171" unicode="ή"/><glyph d="M101 1163l143 299h225l-205 -299h-163zM154 182v858h180v-798q0 -63 17.5 -89t68.5 -26h20v-127q-20 -2 -38.5 -4t-41.5 -2q-100 0 -153 40t-53 148z" horiz-adv-x="487" unicode="ί"/><glyph d="M141 457v583h181v-581q0 -197 52 -285t173 -88q135 -2 199.5 106.5t64.5 354.5q-2 174 -23.5 290.5t-66.5 202.5l166 25q59 -92 86.5 -225t27.5 -293q0 -283 -108.5 -433.5t-341.5 -152.5q-207 0 -308.5 118t-101.5 378zM217 1245v189h160v-189h-160zM410 1163l116 299 h185l-203 -299h-98zM754 1245v189h159v-189h-159z" horiz-adv-x="1130" unicode="ΰ"/><glyph d="M94 520q0 246 122 403.5t353 157.5q135 0 230.5 -55t144.5 -154h4l27 168h180l-80 -489q6 -147 36 -286.5t83 -264.5h-180q-27 57 -43.5 114.5t-20.5 104.5h-4q-39 -119 -138 -188.5t-247 -69.5q-211 0 -339 136t-128 423zM285 520q0 -213 83 -323.5t232 -110.5 q129 -2 208 97.5t99 271.5l11 92l-13 100q-18 133 -96 220t-203 87q-143 0 -232 -107.5t-89 -326.5z" horiz-adv-x="1282" unicode="α"/><glyph d="M154 -377v1309q0 137 9 197.5t27 109.5q45 119 142.5 177.5t255.5 58.5q184 0 295.5 -94.5t111.5 -266.5q-2 -109 -59 -188.5t-152 -106.5v-6q139 -27 217 -133.5t78 -257.5q0 -215 -122.5 -338t-333.5 -123q-94 2 -166 27.5t-123 83.5v-449h-180zM334 246 q49 -80 125 -120t155 -40q123 0 201 92t78 248q-2 162 -90 238.5t-266 78.5h-72v127h84q133 -2 199.5 61.5t66.5 170.5q0 121 -63.5 183.5t-173.5 62.5q-129 0 -187.5 -85.5t-56.5 -304.5v-712z" horiz-adv-x="1159" unicode="β"/><glyph d="M18 913v127q25 2 56.5 5.5t54.5 3.5q80 0 131 -35t88 -123l234 -590l297 739h192l-407 -938v-479h-181v479l-309 742q-18 39 -38.5 58.5t-61.5 19.5q-18 0 -30.5 -2t-25.5 -7z" horiz-adv-x="1077" unicode="γ"/><glyph d="M94 483q0 190 80 318.5t211 163.5v4q-92 20 -142 74.5t-50 146.5q-2 137 102 211t293 74q182 0 280.5 -79t96.5 -229h-181q-2 84 -52 132.5t-148 48.5q-94 0 -148.5 -43t-52.5 -119q0 -72 40 -109t263 -76q182 -31 286.5 -165t104.5 -353q-2 -250 -135 -386t-356 -136 q-225 0 -358.5 136t-133.5 386zM285 483q0 -203 80.5 -300t220.5 -97q137 -2 219 96.5t82 300.5q0 201 -82 301.5t-219 100.5q-139 -2 -220 -101.5t-81 -300.5z" horiz-adv-x="1171" unicode="δ"/><glyph d="M92 279q0 61 19.5 108t50.5 81t69.5 53.5t79.5 25.5v4q-23 6 -54.5 19.5t-59 39t-47 66.5t-19.5 102q0 35 12.5 86t54.5 99.5t123.5 83t221.5 34.5q27 0 67.5 -3t86.5 -13t93.5 -31.5t86 -57.5t64.5 -90.5t30 -131.5h-172q0 27 -10.5 61.5t-37 65t-74.5 52t-124 21.5 q-80 0 -127 -21.5t-71.5 -52t-31 -62.5t-6.5 -52q0 -57 24 -90t57.5 -48.5t70.5 -19.5t66 -4h133v-127h-154q-20 0 -59 -3t-78 -21.5t-68.5 -56.5t-29.5 -105q0 -106 75.5 -155.5t194.5 -49.5q70 0 122 19.5t86 52t51 74.5t17 87h172q-2 -43 -18 -105t-65.5 -118.5 t-139.5 -96.5t-239 -40q-137 0 -223.5 32t-135.5 79t-66.5 103t-17.5 106z" horiz-adv-x="1069" unicode="ε"/><glyph d="M96 512q0 127 27 242.5t84 226.5q117 221 330 322v4h-342v127h714v-127q-160 -14 -284.5 -91t-204.5 -200q-68 -104 -100.5 -232.5t-32.5 -269.5q0 -195 73.5 -291t249.5 -96h41q141 -2 223 -59.5t82 -180.5q0 -35 -11 -71.5t-26.5 -72.5t-33 -66.5t-29.5 -53.5l-162 51 q35 61 58.5 109.5t23.5 87.5q0 68 -41 98.5t-123 30.5h-41q-246 0 -360.5 128t-114.5 384z" horiz-adv-x="913" unicode="ζ"/><glyph d="M47 913v127q18 4 36.5 6.5t43.5 2.5q96 0 148.5 -34t58.5 -104q59 84 152.5 127t203.5 43q160 0 250 -94t90 -295v-1069h-180v1059q0 135 -54.5 203.5t-162.5 68.5q-145 -2 -222 -101t-77 -286v-567h-180v799q0 61 -18.5 87.5t-67.5 26.5h-21z" horiz-adv-x="1171" unicode="η"/><glyph d="M129 717q0 350 136 554t376 204q238 0 374 -204t138 -554q0 -352 -137 -554t-375 -202q-240 0 -376 202t-136 554zM319 707q-10 -276 76 -448.5t246 -172.5q158 0 244 173.5t78 447.5h-644zM324 834h634q-6 223 -88 367.5t-229 146.5q-150 0 -231.5 -146.5t-85.5 -367.5z" horiz-adv-x="1282" unicode="θ"/><glyph d="M154 182v858h180v-798q0 -63 17.5 -89t68.5 -26h20v-127q-20 -2 -38.5 -4t-41.5 -2q-100 0 -153 40t-53 148z" horiz-adv-x="487" unicode="ι"/><glyph d="M154 0v1040h180v-454l444 454h211l-487 -483l514 -557h-215l-467 520v-520h-180z" horiz-adv-x="1013" unicode="κ"/><glyph d="M6 0l459 1020l-72 217q-14 43 -34.5 60.5t-57.5 17.5q-18 0 -30.5 -2t-24.5 -6v127q25 2 56.5 5t53.5 3q80 -2 124 -38t75 -120l369 -1061q23 -70 42 -88t58 -16q16 0 29.5 1t25.5 7v-127q-29 0 -56.5 -3t-45.5 -3q-86 0 -137.5 36t-89.5 156l-205 627l-344 -813h-195z" horiz-adv-x="1097" unicode="λ"/><glyph d="M180 -379v1419h180v-567q0 -29 3.5 -90t25 -123.5t70.5 -110t141 -47.5q88 0 136 43t70.5 102.5t28 122t5.5 103.5v567h180v-790q0 -23 2 -46.5t10 -42t25.5 -29.5t50.5 -7l20 2v-127q-31 -4 -51 -6t-37 -2q-63 0 -102 12t-60.5 31.5t-29.5 43t-8 48.5q-27 -51 -57.5 -84 t-62.5 -51.5t-62.5 -25.5t-57.5 -7q-68 0 -133.5 38t-106.5 109v-485h-180z" horiz-adv-x="1200" unicode="μ"/><glyph d="M6 1040h205l291 -860l237 676q12 37 17.5 62.5t7.5 46.5q0 18 -5 37.5t-11 37.5l172 25q8 -27 12 -51.5t4 -44.5q0 -29 -6 -60.5t-17 -60.5l-313 -848h-213z" horiz-adv-x="954" unicode="ν"/><glyph d="M92 371q0 154 76 246t201 120v4q-100 23 -158.5 103t-58.5 192q0 92 35.5 161t109.5 106v4h-193v127h758v-127h-196q-174 0 -254 -63.5t-80 -199.5q0 -66 17.5 -112.5t59.5 -77.5t109.5 -44t165.5 -13h147v-127h-147q-242 -2 -322 -80t-79 -223q0 -125 70.5 -182.5 t193.5 -57.5h96q141 -2 223 -59.5t82 -180.5q0 -35 -11 -71.5t-26.5 -72.5t-33 -66.5t-29.5 -53.5l-162 51q35 61 58.5 109.5t23.5 87.5q0 68 -41 98.5t-123 30.5h-67q-221 0 -333 90t-112 281z" horiz-adv-x="954" unicode="ξ"/><glyph d="M94 520q0 104 26.5 204.5t87 179.5t159 128t239.5 49t239.5 -49t159 -128t87 -179t26.5 -205q0 -104 -26.5 -204.5t-87 -179.5t-158.5 -128t-240 -49q-141 0 -239.5 49t-159 128t-87 179.5t-26.5 204.5zM285 522q0 -156 38.5 -244t92 -131t106.5 -52t84 -9t84 9t106.5 52 t92.5 131.5t39 243.5q0 156 -39 244t-92.5 131t-106.5 52t-84 9t-84 -9t-106.5 -52t-92 -131t-38.5 -244z" horiz-adv-x="1212" unicode="ο"/><glyph d="M72 872v127q47 27 88 34t86 7h919v-127h-131v-663q0 -23 2 -46.5t10.5 -42t26 -29.5t49.5 -7l21 2v-127q-20 -4 -40 -6t-48 -2q-74 0 -115 16.5t-60.5 44t-22.5 61t-3 68.5v731h-438v-913h-180v913h-27q-35 0 -73 -12t-64 -29z" horiz-adv-x="1236" unicode="π"/><glyph d="M141 -377v846q0 317 126 464.5t384 147.5q238 0 356.5 -155.5t118.5 -405.5q0 -258 -123.5 -408.5t-340.5 -150.5q-113 0 -204 49t-136 140v-527h-181zM309 516q0 -195 88 -312.5t232 -117.5q147 0 227 113.5t80 320.5q-2 201 -83 317.5t-235 116.5q-150 0 -229.5 -116.5 t-79.5 -321.5z" horiz-adv-x="1220" unicode="ρ"/><glyph d="M94 528q0 125 31 227.5t93.5 175.5t155.5 111.5t216 38.5q92 0 171 -24.5t138 -70.5t97 -114.5t51 -156.5h-173q-20 123 -93.5 181t-186.5 58q-158 0 -233.5 -116.5t-75.5 -309.5t87 -297t234 -104h135q141 -2 223.5 -59.5t82.5 -180.5q0 -35 -11.5 -71.5t-27 -72.5 t-33 -66.5t-29.5 -53.5l-162 51q35 61 58.5 109.5t23.5 87.5q0 68 -41 98.5t-123 30.5h-100q-129 0 -224 37t-158.5 105.5t-94.5 166t-31 219.5z" horiz-adv-x="1118" unicode="ς"/><glyph d="M96 520q-2 262 135.5 411.5t376.5 149.5q66 0 118 -10t105 -31h383v-127h-221q63 -80 95 -181t32 -220q0 -242 -131 -396.5t-381 -154.5q-240 0 -376 148.5t-136 410.5zM287 522q-2 -221 85 -328.5t236 -107.5q147 0 234.5 107.5t87.5 328.5q0 219 -87 325.5t-235 106.5 q-150 0 -235.5 -106.5t-85.5 -325.5z" horiz-adv-x="1224" unicode="σ"/><glyph d="M12 868v133q41 18 94.5 28.5t118.5 10.5h660v-127h-332v-671q0 -63 17.5 -89t68.5 -26h20v-127q-20 -2 -38.5 -4t-40.5 -2q-100 0 -153.5 40t-53.5 148v731h-148q-66 0 -115 -10t-98 -35z" horiz-adv-x="897" unicode="τ"/><glyph d="M141 457v583h181v-581q0 -197 52 -285t173 -88q135 -2 199.5 106.5t64.5 354.5q-2 174 -23.5 290.5t-66.5 202.5l166 25q59 -92 86.5 -225t27.5 -293q0 -283 -108.5 -433.5t-341.5 -152.5q-207 0 -308.5 118t-101.5 378z" horiz-adv-x="1130" unicode="υ"/><glyph d="M94 524q0 223 136.5 369.5t359.5 146.5v-127q-141 -14 -223 -116.5t-82 -274.5q0 -190 110.5 -295.5t313.5 -99.5v913h180q315 0 464.5 -138t149.5 -376q0 -264 -162.5 -392t-451.5 -134v-377h-180v377q-319 6 -467 143.5t-148 380.5zM889 127q215 0 318.5 108.5 t105.5 292.5q0 186 -106.5 287.5t-317.5 97.5v-786z" horiz-adv-x="1597" unicode="φ"/><glyph d="M-20 -377l407 770l-233 479q-16 29 -34 39.5t-46 10.5q-18 0 -31 -2.5t-25 -6.5v127q27 2 54.5 5.5t46.5 3.5q61 0 102 -26t66 -73l213 -428l250 518h180l-350 -682l266 -534q20 -43 41.5 -62.5t58.5 -19.5q16 0 28.5 2t26.5 6v-127q-31 -2 -59.5 -5t-48.5 -3 q-61 0 -105.5 24.5t-68.5 77.5l-248 506l-301 -600h-190z" horiz-adv-x="933" unicode="χ"/><glyph d="M141 670v370h181v-354q0 -176 19 -278.5t62 -159.5q43 -61 112 -92t144 -29v1307h181v-1307q43 -2 87 8t85 33q94 49 141 145.5t47 266.5q0 82 -6 131t-23 118q-18 74 -36.5 119t-44.5 92l186 25q25 -45 44 -94t36 -107q16 -68 25.5 -139.5t9.5 -149.5q0 -193 -70 -328.5 t-217 -199.5q-53 -25 -124 -36t-140 -11v-377h-181v377q-143 0 -250.5 47t-168.5 133q-51 66 -75 161t-24 329z" horiz-adv-x="1519" unicode="ψ"/><glyph d="M94 483q0 115 19.5 198t64.5 159q66 111 168.5 165t226.5 56v-127q-80 -6 -139 -51t-94 -115q-27 -53 -41 -121.5t-14 -163.5q0 -115 18.5 -196.5t52.5 -126.5q27 -35 62 -54.5t78 -19.5q41 0 73.5 15.5t55.5 41.5q25 33 37 88.5t12 198.5v139h180v-139 q-2 -143 10.5 -198.5t38.5 -88.5q20 -27 53 -42t76 -15q41 0 76 19.5t63 54.5q33 45 52.5 127t19.5 196q0 94 -15.5 163t-39.5 122q-37 70 -96.5 115t-137.5 51v127q123 -2 225.5 -56.5t170.5 -164.5q43 -76 63.5 -159t20.5 -198q-2 -145 -36 -246.5t-95 -168.5 q-55 -59 -118 -83t-149 -24q-68 0 -117 18.5t-83 51.5q-29 25 -46.5 60.5t-23.5 76.5h-4q-8 -41 -25.5 -77t-44.5 -60q-37 -33 -86 -51.5t-114 -18.5q-88 0 -150.5 23.5t-116.5 83.5q-63 68 -97 169t-34 246z" horiz-adv-x="1527" unicode="ω"/><glyph d="M-51 1245v189h180v-189h-180zM154 182v858h180v-798q0 -63 17.5 -89t68.5 -26h20v-127q-20 -2 -38.5 -4t-41.5 -2q-100 0 -153 40t-53 148zM354 1245v189h180v-189h-180z" horiz-adv-x="487" unicode="ϊ"/><glyph d="M141 457v583h181v-581q0 -197 52 -285t173 -88q135 -2 199.5 106.5t64.5 354.5q-2 174 -23.5 290.5t-66.5 202.5l166 25q59 -92 86.5 -225t27.5 -293q0 -283 -108.5 -433.5t-341.5 -152.5q-207 0 -308.5 118t-101.5 378zM267 1245v189h180v-189h-180zM672 1245v189h180 v-189h-180z" horiz-adv-x="1130" unicode="ϋ"/><glyph d="M94 520q0 104 26.5 204.5t87 179.5t159 128t239.5 49t239.5 -49t159 -128t87 -179t26.5 -205q0 -104 -26.5 -204.5t-87 -179.5t-158.5 -128t-240 -49q-141 0 -239.5 49t-159 128t-87 179.5t-26.5 204.5zM285 522q0 -156 38.5 -244t92 -131t106.5 -52t84 -9t84 9t106.5 52 t92.5 131.5t39 243.5q0 156 -39 244t-92.5 131t-106.5 52t-84 9t-84 -9t-106.5 -52t-92 -131t-38.5 -244zM463 1163l143 299h225l-205 -299h-163z" horiz-adv-x="1212" unicode="ό"/><glyph d="M141 457v583h181v-581q0 -197 52 -285t173 -88q135 -2 199.5 106.5t64.5 354.5q-2 174 -23.5 290.5t-66.5 202.5l166 25q59 -92 86.5 -225t27.5 -293q0 -283 -108.5 -433.5t-341.5 -152.5q-207 0 -308.5 118t-101.5 378zM422 1169l143 299h225l-205 -299h-163z" horiz-adv-x="1130" unicode="ύ"/><glyph d="M94 483q0 115 19.5 198t64.5 159q66 111 168.5 165t226.5 56v-127q-80 -6 -139 -51t-94 -115q-27 -53 -41 -121.5t-14 -163.5q0 -115 18.5 -196.5t52.5 -126.5q27 -35 62 -54.5t78 -19.5q41 0 73.5 15.5t55.5 41.5q25 33 37 88.5t12 198.5v139h180v-139 q-2 -143 10.5 -198.5t38.5 -88.5q20 -27 53 -42t76 -15q41 0 76 19.5t63 54.5q33 45 52.5 127t19.5 196q0 94 -15.5 163t-39.5 122q-37 70 -96.5 115t-137.5 51v127q123 -2 225.5 -56.5t170.5 -164.5q43 -76 63.5 -159t20.5 -198q-2 -145 -36 -246.5t-95 -168.5 q-55 -59 -118 -83t-149 -24q-68 0 -117 18.5t-83 51.5q-29 25 -46.5 60.5t-23.5 76.5h-4q-8 -41 -25.5 -77t-44.5 -60q-37 -33 -86 -51.5t-114 -18.5q-88 0 -150.5 23.5t-116.5 83.5q-63 68 -97 169t-34 246zM621 1163l143 299h225l-205 -299h-163z" horiz-adv-x="1527" unicode="ώ"/><glyph d="M180 0v1434h1024v-162h-831v-451h751v-162h-751v-497h854v-162h-1047zM389 1581v162h193v-162h-193zM831 1581v162h193v-162h-193z" horiz-adv-x="1267" unicode="Ё"/><glyph d="M33 1272v162h1079v-162h-465v-461q27 2 69 4t86 4t87 4t72 2q162 0 261 -41t152 -102t70.5 -135t17.5 -139q0 -203 -113.5 -319t-318.5 -116q-51 0 -89 7.5t-73 19.5v162q35 -10 73 -18.5t73 -8.5q33 0 78 8.5t83.5 35t66.5 77.5t28 137q0 55 -13.5 104.5t-51.5 86.5 t-105.5 58.5t-175.5 21.5q-31 0 -69 -2.5t-77 -4.5t-73.5 -4t-57.5 -4v-649h-192v1272h-422z" horiz-adv-x="1560" unicode="Ђ"/><glyph d="M180 0v1434h914v-162h-721v-1272h-193zM426 1556l151 287h230l-209 -287h-172z" horiz-adv-x="1126" unicode="Ѓ"/><glyph d="M98 733q0 115 28 246t101.5 241.5t204.5 183.5t338 73q162 0 272.5 -45.5t179 -114t101.5 -149.5t41 -152h-205q-8 45 -30.5 98t-67.5 97t-117 74t-178 30q-121 0 -207 -41t-142.5 -109.5t-84 -157.5t-29.5 -188h707v-162h-707q4 -127 30.5 -216t67.5 -149.5t91.5 -94 t102.5 -51t101 -22.5t86 -5q109 0 182.5 34.5t122 90t72 122t33.5 132.5h205q-10 -80 -42 -174.5t-101.5 -176t-183.5 -136t-288 -54.5q-150 0 -259 38t-185 99.5t-123 142t-72.5 166.5t-35 172.5t-9.5 157.5z" horiz-adv-x="1495" unicode="Є"/><glyph d="M98 455h193q-2 -72 24.5 -133.5t80 -106.5t130 -70.5t174.5 -25.5q96 0 163 22.5t109 59.5t61.5 85t19.5 99q0 66 -27 110t-67.5 71.5t-93 44t-101.5 26.5q-123 27 -234.5 50.5t-196.5 66.5t-135.5 115.5t-50.5 195.5q0 100 39 178t111 129t172 78t221 27 q133 0 230.5 -34t162 -91.5t98 -133t40.5 -157.5h-193q-10 88 -52 139t-95.5 77t-108.5 32t-88 6q-150 0 -241 -64.5t-91 -175.5q0 -66 30 -105.5t79 -65t113.5 -40t136.5 -28.5q96 -18 193 -42t176 -71t128 -126t49 -208q0 -106 -33.5 -180t-87 -122t-119 -74.5t-128 -39 t-116.5 -14.5t-83 -2q-76 0 -175 14.5t-189 64.5t-155 149.5t-73 269.5z" horiz-adv-x="1355" unicode="Ѕ"/><glyph d="M180 0v1434h193v-1434h-193z" horiz-adv-x="552" unicode="І"/><glyph d="M61 1581v162h193v-162h-193zM221 0v1434h193v-1434h-193zM381 1581v162h192v-162h-192z" horiz-adv-x="634" unicode="Ї"/><glyph d="M53 401v74h193q0 -86 12 -151.5t40 -111.5t75 -69.5t121 -23.5q76 0 123 26.5t72.5 73.5t33.5 113.5t8 144.5v957h193v-938q0 -141 -23.5 -242.5t-75 -167.5t-134.5 -97.5t-199 -31.5q-55 0 -130 11.5t-143.5 56.5t-117 134t-48.5 242z" horiz-adv-x="1077" unicode="Ј"/><glyph d="M35 0v168q12 -4 24 -4h27q90 0 146.5 58.5t87 152.5t42 210.5t11.5 231.5v617h897v-584h411q20 0 62.5 -3t94.5 -16.5t106.5 -40t100.5 -74.5t74.5 -121t28.5 -175q0 -43 -13 -115t-60 -139.5t-140.5 -116.5t-253.5 -49h-604v1272h-514v-496q0 -164 -21.5 -307 t-73.5 -248.5t-140 -166t-224 -60.5q-37 0 -69 6zM1270 162h387q18 0 65 5t97.5 31.5t89.5 79t39 148.5q0 117 -73 189.5t-243 72.5h-362v-526z" horiz-adv-x="2220" unicode="Љ"/><glyph d="M180 0v1434h193v-584h721v584h192v-584h412q16 0 57 -3t92 -16.5t105.5 -40t100.5 -74.5t76 -121t30 -175q0 -70 -19.5 -143.5t-71 -135t-141.5 -101.5t-229 -40h-604v688h-721v-688h-193zM1286 162h389q16 0 63.5 5t96.5 31.5t88 79t39 148.5q0 141 -83 201.5t-228 60.5 h-365v-526z" horiz-adv-x="2230" unicode="Њ"/><glyph d="M33 1272v162h1079v-162h-465v-461q29 2 70 4t85 4t86 4t73 2q154 0 251 -20.5t152 -65.5t75.5 -116.5t20.5 -171.5v-451h-192v420q0 84 -20.5 132t-63.5 72.5t-107.5 32t-152.5 7.5q-55 0 -133 -5.5t-144 -9.5v-649h-192v1272h-422z" horiz-adv-x="1650" unicode="Ћ"/><glyph d="M180 0v1434h193v-654l645 654h235l-682 -664l727 -770h-251l-674 748v-748h-193zM510 1556l151 287h230l-209 -287h-172z" horiz-adv-x="1296" unicode="Ќ"/><glyph d="M25 1434h235l412 -863l344 863h203l-486 -1178q-43 -102 -89 -158.5t-93 -82t-93 -30.5t-89 -5q-47 0 -81 4t-79 16v168q35 -12 67.5 -17.5t67.5 -5.5q31 0 60.5 5.5t59.5 27t56.5 63.5t48.5 115zM234 1782h159q2 -80 62.5 -126t152.5 -46q63 0 104.5 18.5t65 45t33.5 56 t12 52.5h160q-8 -43 -28.5 -93.5t-63.5 -93.5t-110.5 -71.5t-172.5 -28.5q-104 0 -171.5 28.5t-110.5 71.5t-63.5 93.5t-28.5 93.5z" horiz-adv-x="1204" unicode="Ў"/><glyph d="M190 0v1434h193v-1272h729v1272h193v-1434h-465v-387h-185v387h-465z" horiz-adv-x="1495" unicode="Џ"/><glyph d="M-2 0l543 1434h204l543 -1434h-207l-135 371h-606l-135 -371h-207zM393 532h500l-250 707z" unicode="А"/><glyph d="M180 0v1434h1018v-162h-825v-430h440q35 0 85 -3t103.5 -17.5t105.5 -41t93 -75t66.5 -119t25.5 -170.5q0 -72 -20.5 -145.5t-73.5 -134t-145 -98.5t-238 -38h-635zM373 162h401q57 0 114.5 10t103.5 38t75 77t29 127q0 86 -31 138t-78 81t-103.5 38t-109.5 9h-401v-518z" horiz-adv-x="1380" unicode="Б"/><glyph d="M180 0v1434h629q131 0 214 -34t130 -86t65.5 -116.5t18.5 -128.5q0 -57 -18.5 -109.5t-51 -93.5t-75.5 -68.5t-95 -35.5v-6q45 -8 97.5 -28.5t97.5 -61.5t75.5 -105.5t30.5 -161.5q0 -78 -22.5 -149.5t-80.5 -126.5t-156.5 -89t-252.5 -34h-606zM373 162h399 q49 0 107.5 7t107.5 32.5t82 76t33 138.5q0 70 -23.5 117t-66.5 75.5t-103.5 42t-136.5 13.5h-399v-502zM373 825h387q80 0 133 18.5t86 49.5t47 71t14 85q0 31 -9 69.5t-37.5 72.5t-83 57.5t-144.5 23.5h-393v-447z" horiz-adv-x="1423" unicode="В"/><glyph d="M180 0v1434h914v-162h-721v-1272h-193z" horiz-adv-x="1126" unicode="Г"/><glyph d="M6 162h129q49 61 98.5 146t88 203t62.5 272.5t24 355.5v295h876v-1272h207l-18 -486h-168v324h-1115v-324h-167zM365 162h727v1110h-492v-178q0 -141 -11 -266.5t-38 -239t-72 -219t-114 -207.5z" horiz-adv-x="1523" unicode="Д"/><glyph d="M180 0v1434h1022v-162h-829v-451h751v-162h-751v-497h852v-162h-1045z" horiz-adv-x="1265" unicode="Е"/><glyph d="M-2 0l661 768l-632 666h229l584 -631v631h192v-631l584 631h229l-633 -666l662 -768h-234l-608 715v-715h-192v715l-609 -715h-233z" horiz-adv-x="1871" unicode="Ж"/><glyph d="M98 440h193q4 -53 22.5 -109.5t62.5 -103.5t121.5 -77.5t200.5 -30.5q106 0 175 26.5t110 67.5t57.5 92t16.5 98q0 45 -12.5 93.5t-48 87.5t-99 64.5t-168.5 25.5h-188v162h170q25 0 72.5 4t96 26.5t84 67.5t35.5 129q0 92 -43 143t-99 76t-110.5 29t-76.5 4 q-23 0 -79 -5t-115.5 -31t-108 -82t-52.5 -161h-192q6 104 39 178t82 122t107.5 77t118.5 42t116.5 17.5t97.5 4.5q117 0 211 -25t160.5 -74t103.5 -124.5t37 -178.5q0 -117 -65.5 -204t-178.5 -107v-4q166 -39 233.5 -137.5t67.5 -237.5q0 -72 -23.5 -147.5t-84 -138 t-166 -102.5t-268.5 -40q-184 0 -302 44t-185.5 113.5t-94.5 155.5t-31 170z" horiz-adv-x="1378" unicode="З"/><glyph d="M180 0v1434h193v-1153l764 1153h192v-1434h-192v1161l-764 -1161h-193z" horiz-adv-x="1509" unicode="И"/><glyph d="M180 0v1434h193v-1153l764 1153h192v-1434h-192v1161l-764 -1161h-193zM403 1757h154q2 -31 13.5 -59.5t36 -51t61.5 -37t88 -14.5t88 14.5t61.5 37t35.5 51t13 59.5h154q-16 -78 -51 -129t-81 -83t-102.5 -45t-117.5 -13t-117.5 13t-103 45t-81 83t-51.5 129z" horiz-adv-x="1509" unicode="Й"/><glyph d="M180 0v1434h193v-654l645 654h235l-682 -664l727 -770h-251l-674 748v-748h-193z" horiz-adv-x="1296" unicode="К"/><glyph d="M33 0v168q70 -12 131 11.5t107 97t73 205.5t27 335v617h899v-1434h-193v1272h-514v-496q0 -250 -43 -408.5t-114.5 -245.5t-169 -113.5t-203.5 -8.5z" horiz-adv-x="1449" unicode="Л"/><glyph d="M180 0v1434h289l449 -1180l448 1180h289v-1434h-193v1149l4 55h-6l-465 -1204h-155l-467 1204h-4l4 -55v-1149h-193z" horiz-adv-x="1835" unicode="М"/><glyph d="M180 0v1434h193v-598h721v598h192v-1434h-192v674h-721v-674h-193z" horiz-adv-x="1466" unicode="Н"/><glyph d="M98 717q0 188 51.5 330.5t141.5 237.5t216 143.5t275 48.5q119 0 241 -37t220 -124t160.5 -233.5t62.5 -365.5q0 -186 -45 -316.5t-113.5 -214.5t-150.5 -130t-157.5 -68.5t-135 -26.5t-82.5 -4t-83 4t-136 26.5t-157.5 68.5t-150.5 130t-113 213.5t-44 317.5zM303 717 q0 -86 17.5 -190.5t68.5 -195.5t145.5 -151.5t247.5 -60.5q25 0 70 4t98.5 22.5t108.5 56.5t100 103.5t74 165.5t29 246q0 127 -29 236.5t-87.5 189.5t-149.5 126t-214 46q-109 0 -187.5 -34t-131.5 -87t-85 -119.5t-48.5 -133.5t-21.5 -126t-5 -98z" horiz-adv-x="1564" unicode="О"/><glyph d="M180 0v1434h1106v-1434h-192v1272h-721v-1272h-193z" horiz-adv-x="1466" unicode="П"/><glyph d="M180 0v1434h584q111 0 200 -22.5t152.5 -72t98 -128t34.5 -189.5q0 -100 -26.5 -183t-86 -142.5t-155.5 -92.5t-236 -33h-372v-571h-193zM373 733h352q172 0 250 72t78 213q0 133 -81 193.5t-247 60.5h-352v-539z" horiz-adv-x="1320" unicode="Р"/><glyph d="M98 692q0 190 42 322.5t106.5 219.5t144.5 136t155 72.5t136 29t92 5.5q172 0 282.5 -45.5t177 -116t96.5 -156.5t38 -168h-192q-4 39 -21.5 94.5t-60.5 106.5t-120 87t-200 36q-135 0 -225 -52.5t-144.5 -138.5t-78 -196.5t-23.5 -227.5q0 -125 33 -231.5t96.5 -184 t152.5 -121.5t203 -44q86 0 159 26.5t126 74.5t85 112.5t36 142.5h192q-10 -78 -40.5 -168t-99 -168t-181.5 -130t-285 -52q-160 0 -286.5 50t-213.5 145.5t-134.5 231.5t-47.5 308z" horiz-adv-x="1470" unicode="С"/><glyph d="M33 1272v162h1124v-162h-465v-1272h-192v1272h-467z" horiz-adv-x="1189" unicode="Т"/><glyph d="M25 1434h235l412 -863l344 863h203l-486 -1178q-43 -102 -89 -158.5t-93 -82t-93 -30.5t-89 -5q-47 0 -81 4t-79 16v168q35 -12 67.5 -17.5t67.5 -5.5q31 0 60.5 5.5t59.5 27t56.5 63.5t48.5 115z" horiz-adv-x="1216" unicode="У"/><glyph d="M92 731q0 29 5 82t25.5 115.5t61.5 129t114 120t180.5 87t262.5 33.5h80v218h193v-218h80q61 0 133.5 -8t144.5 -31.5t139.5 -63.5t118.5 -103.5t82 -151.5t31 -209q0 -127 -36 -219t-92 -155.5t-128 -101.5t-143.5 -59.5t-138 -27.5t-111.5 -6h-80v-215h-193v215h-80 q-31 0 -91 4t-132 22.5t-147.5 54.5t-137 99.5t-101.5 157.5t-40 231zM297 731q0 -27 3 -68.5t16.5 -88t42 -93.5t81 -84t132 -60.5t196.5 -23.5h53v834h-53q-117 0 -196.5 -23.5t-132 -61.5t-81 -85t-42 -93t-16.5 -87t-3 -66zM1014 313h55q70 0 153 13.5t152.5 57.5 t116.5 126t47 221q0 154 -57.5 238t-135 124t-155.5 47t-121 7h-55v-834z" horiz-adv-x="1835" unicode="Ф"/><glyph d="M2 0l502 733l-475 701h239l359 -564l358 564h240l-475 -701l501 -733h-247l-377 596l-377 -596h-248z" horiz-adv-x="1253" unicode="Х"/><glyph d="M180 0v1434h193v-1272h727v1272h192v-1272h201l-14 -486h-168v324h-1131z" horiz-adv-x="1525" unicode="Ц"/><glyph d="M125 983v451h192v-420q0 -84 21.5 -132t64.5 -73t109 -32t152 -7q31 0 68.5 2t75.5 4t74 4t60 4v650h193v-1434h-193v623q-29 -2 -71 -4.5t-86 -4.5t-87 -4t-71 -2q-133 0 -227.5 15.5t-156 56.5t-90 114.5t-28.5 188.5z" horiz-adv-x="1314" unicode="Ч"/><glyph d="M180 0v1434h193v-1272h579v1272h193v-1272h579v1272h193v-1434h-1737z" horiz-adv-x="2097" unicode="Ш"/><glyph d="M180 0v1434h193v-1272h579v1272h193v-1272h579v1272h193v-1272h213l-19 -486h-167v324h-1764z" horiz-adv-x="2162" unicode="Щ"/><glyph d="M33 1272v162h504v-584h411q63 0 144.5 -15.5t152 -61.5t118.5 -131t48 -222q0 -141 -51 -224t-124 -126t-152.5 -56.5t-135.5 -13.5h-604v1272h-311zM537 162h389q16 0 63 5t97.5 31.5t89 79t38.5 148.5q0 57 -16 106.5t-53 83t-97.5 53t-148.5 19.5h-362v-526z" horiz-adv-x="1482" unicode="Ъ"/><glyph d="M180 0v1434h193v-584h413q219 0 340 -112.5t121 -317.5q0 -141 -50 -224t-123 -127t-151.5 -56.5t-136.5 -12.5h-606zM373 162h387q39 0 89 9t95 38t76 81t31 136q0 100 -40 153.5t-100.5 78t-129 27.5t-124.5 3h-284v-526zM1397 0v1434h192v-1434h-192z" horiz-adv-x="1769" unicode="Ы"/><glyph d="M180 0v1434h193v-584h411q63 0 144.5 -15.5t152 -61.5t118.5 -131t48 -222q0 -141 -51 -224t-124 -126t-152.5 -56.5t-135.5 -13.5h-604zM373 162h389q16 0 63 5t97.5 31.5t89.5 79t39 148.5q0 45 -12.5 92t-46.5 85t-95 61.5t-160 23.5h-364v-526z" horiz-adv-x="1318" unicode="Ь"/><glyph d="M98 498h193q6 -43 26.5 -107.5t68.5 -125t128 -103.5t205 -43q141 0 229 49t138.5 120.5t71 153.5t24.5 150q2 33 0 67h-676v162h676q0 29 -6.5 76t-22.5 101.5t-47 110.5t-81 102t-125 75t-179 29q-96 0 -169 -24.5t-124 -65.5t-80 -95.5t-37 -113.5h-192q6 84 43 167 t108.5 148.5t178 105.5t253.5 40q143 0 249 -35t182.5 -92.5t126 -133t77 -158.5t38.5 -167t11 -158q0 -72 -9 -156.5t-34.5 -171t-71.5 -167t-122 -143t-183.5 -100.5t-254.5 -38q-170 0 -283 54.5t-183.5 135t-104.5 175t-42 176.5z" horiz-adv-x="1484" unicode="Э"/><glyph d="M180 0v1434h193v-598h215q8 119 51 233.5t125 204.5t205 146.5t293 56.5q147 0 273 -48.5t218 -143.5t143.5 -237.5t51.5 -330.5q0 -158 -39 -296t-122 -240.5t-213 -163t-312 -60.5q-197 0 -327 66.5t-207 170t-109.5 230.5t-38.5 250h-207v-674h-193zM784 717 q0 -117 26 -225.5t82 -191.5t147.5 -132t224.5 -49q102 0 178 28.5t129 75.5t87 108.5t52.5 128t25.5 133t7 124.5q0 133 -24.5 229t-64.5 163t-92.5 106.5t-105.5 62t-103 30t-89 7.5q-37 0 -87.5 -7.5t-103.5 -29t-105.5 -62t-92 -107.5t-65.5 -163t-26 -229z" horiz-adv-x="2045" unicode="Ю"/><glyph d="M119 0l389 590q-49 2 -116.5 20.5t-128 64.5t-102.5 126t-42 205q0 88 25.5 165.5t83 136t151.5 92.5t233 34h613v-1434h-193v569h-325l-351 -569h-237zM315 1004q0 -43 12.5 -91.5t48.5 -88.5t102.5 -66.5t176.5 -26.5h377v541h-403q-96 0 -157.5 -25.5t-96.5 -65.5 t-47.5 -87t-12.5 -90z" horiz-adv-x="1404" unicode="Я"/><glyph d="M82 272q0 68 20.5 122.5t78 96t155.5 69.5t256 42q57 4 96 8t62.5 17.5t34 40t10.5 77.5q0 18 -4.5 53.5t-27 70t-69.5 60t-133 25.5q-25 0 -71 -4t-91 -25.5t-77.5 -65.5t-30.5 -126h-172q0 51 17.5 112.5t65.5 114t135 87t224 34.5q63 0 136 -12t135.5 -49 t103.5 -105.5t39 -183.5l-10 -481q0 -31 1 -54.5t11 -39t32.5 -23.5t63.5 -6v-127q-18 -4 -35.5 -6t-46.5 -2q-37 0 -68.5 5t-55 20.5t-39 45t-23.5 80.5q-27 -49 -66 -83.5t-86 -57t-99 -33t-105 -10.5q-164 0 -265.5 75t-101.5 238zM268 279q0 -92 56.5 -142.5 t144.5 -50.5q53 0 107.5 15.5t100.5 55.5t76.5 109.5t37.5 177.5l4 88q-20 -16 -43 -23t-49.5 -11t-60.5 -7.5t-77 -9.5q-59 -10 -113.5 -19t-95.5 -28.5t-64.5 -56.5t-23.5 -98z" horiz-adv-x="1144" unicode="а"/><glyph d="M94 662q0 207 33 339t88 212.5t130 119.5t159 58q104 25 174 32t114 13t67.5 18t33.5 47h154q-6 -102 -61.5 -149t-135.5 -67.5t-170 -27t-162 -26.5q-57 -16 -109.5 -45t-91 -79t-63.5 -125t-27 -181h4q14 39 42 85t75 86t118 66.5t169 26.5q133 0 227 -48t153.5 -126 t87 -179.5t27.5 -207.5q0 -102 -28.5 -199.5t-91 -174.5t-159.5 -124t-233 -47q-125 0 -212 38t-145 99.5t-91 138t-50.5 154.5t-21.5 149.5t-4 123.5zM285 492q0 -59 13 -130t49 -132.5t100.5 -102.5t166.5 -41q162 0 244 108.5t82 288.5q0 61 -10 140t-44 149t-98.5 118 t-173.5 48t-174 -47t-100 -115.5t-45 -145.5t-10 -138z" horiz-adv-x="1224" unicode="б"/><glyph d="M154 0v1040h495q39 0 95.5 -5t108.5 -29.5t89 -74.5t37 -138q0 -70 -24.5 -115t-56.5 -72.5t-63.5 -40t-43.5 -16.5v-6q76 -18 120.5 -49t68.5 -68t31 -78t7 -78q0 -90 -35 -143t-89 -81t-120.5 -37t-130.5 -9h-489zM334 127h264q23 0 62.5 3t77.5 18.5t65.5 48 t27.5 90.5q0 68 -26.5 106.5t-63 57t-77.5 23.5t-72 5h-258v-352zM334 606h250q63 0 104 15.5t65.5 38t34 51t9.5 55.5q0 51 -21.5 81t-53.5 45t-68 18t-62 3h-258v-307z" horiz-adv-x="1116" unicode="в"/><glyph d="M154 0v1040h712v-127h-532v-913h-180z" horiz-adv-x="899" unicode="г"/><glyph d="M6 127h131q39 57 71 126t53.5 158t33.5 200.5t12 254.5v174h746v-913h180l-14 -397h-152v270h-893v-270h-151zM328 127h544v786h-397v-145q0 -72 -7 -157t-24.5 -171t-46 -168t-69.5 -145z" horiz-adv-x="1247" unicode="д"/><glyph d="M94 516q0 35 4 91.5t20.5 118.5t49.5 125.5t89 115t140 83t205 31.5q156 0 249 -54t143 -136t67.5 -179.5t21.5 -181.5q0 -12 1 -25t1 -26h-800q0 -68 18.5 -137.5t57 -125.5t101 -93t152.5 -37q63 0 114.5 17.5t87.5 47t57.5 68.5t29.5 82h172q-10 -55 -37.5 -115.5 t-80 -110.5t-134.5 -83t-202 -33q-129 0 -218.5 35t-147.5 89t-91 119.5t-48.5 127t-18.5 112t-3 74.5zM285 606h610q-2 51 -14.5 112.5t-44 114t-87 87t-143.5 34.5q-98 0 -161.5 -35.5t-99.5 -89t-48 -114t-12 -109.5z" horiz-adv-x="1179" unicode="е"/><glyph d="M-2 0l477 547l-450 493h213l397 -471v471h180v-471l397 471h213l-450 -493l477 -547h-223l-414 514v-514h-180v514l-414 -514h-223z" horiz-adv-x="1449" unicode="ж"/><glyph d="M72 319h172q0 -45 17.5 -87t51 -74.5t86 -52t121.5 -19.5q119 0 195 49t76 156q0 68 -30 105.5t-69 56t-78 21.5t-59 3h-154v127h134q27 0 64.5 4t71.5 19.5t57.5 48.5t23.5 90q0 20 -6.5 52t-31 62.5t-71.5 52t-127 21.5q-78 0 -125 -21.5t-73.5 -52t-37 -65.5 t-10.5 -61h-172q6 117 58.5 182t122 97t138 40t109.5 8q139 0 221 -34.5t124 -83t54.5 -99.5t12.5 -86q0 -61 -19.5 -102t-47 -66.5t-59.5 -39t-54 -19.5v-6q41 -6 80 -25.5t69.5 -51.5t50 -79t19.5 -110q0 -49 -17.5 -105.5t-66.5 -103.5t-135 -79t-223 -32q-150 0 -240 40 t-139.5 96.5t-65.5 118.5t-18 105z" horiz-adv-x="1071" unicode="з"/><glyph d="M154 0v1040h180v-829l543 829h200v-1040h-180v831l-541 -831h-202z" horiz-adv-x="1230" unicode="и"/><glyph d="M154 0v1040h180v-829l543 829h200v-1040h-180v831l-541 -831h-202zM258 1434h154q-2 -12 3 -40t34 -61q31 -33 71 -49q23 -8 45.5 -10t44.5 -2q82 0 142.5 42t56.5 120h154q-6 -33 -21.5 -74t-46.5 -80t-80 -68.5t-123 -42.5q-41 -6 -82 -6q-78 0 -134 17.5t-97 47 t-66.5 68.5t-40.5 82q-4 14 -7 27.5t-7 28.5z" horiz-adv-x="1230" unicode="й"/><glyph d="M154 0v1040h180v-454l444 454h211l-487 -483l514 -557h-215l-467 520v-520h-180z" horiz-adv-x="1013" unicode="к"/><glyph d="M33 0v133q92 -18 142 26t74.5 121.5t29 177t4.5 191.5v391h721v-1040h-181v913h-372v-264q0 -135 -11.5 -264t-53.5 -223t-126 -141.5t-227 -20.5z" horiz-adv-x="1157" unicode="л"/><glyph d="M154 0v1040h247l355 -845l354 845h248v-1040h-180v780l6 56h-6l-353 -836h-139l-352 836h-4l4 -56v-780h-180z" horiz-adv-x="1511" unicode="м"/><glyph d="M154 0v1040h180v-428h514v428h180v-1040h-180v485h-514v-485h-180z" horiz-adv-x="1181" unicode="н"/><glyph d="M94 520q0 104 26.5 204.5t87 179.5t159 128t239.5 49t239.5 -49t159 -128t87 -179t26.5 -205q0 -104 -26.5 -204.5t-87 -179.5t-158.5 -128t-240 -49q-141 0 -239.5 49t-159 128t-87 179.5t-26.5 204.5zM285 522q0 -156 38.5 -244t92 -131t106.5 -52t84 -9t84 9t106.5 52 t92.5 131.5t39 243.5q0 156 -39 244t-92.5 131t-106.5 52t-84 9t-84 -9t-106.5 -52t-92 -131t-38.5 -244z" horiz-adv-x="1212" unicode="о"/><glyph d="M154 0v1040h886v-1040h-180v913h-526v-913h-180z" horiz-adv-x="1193" unicode="п"/><glyph d="M154 -379v1419h168v-143h6q39 59 85 95t92 56.5t89 26.5t78 6q96 0 181 -32.5t149.5 -101t101.5 -175t37 -252.5q0 -152 -39 -258t-104.5 -174t-149.5 -98.5t-172 -30.5q-16 0 -58.5 4t-93.5 23.5t-103 57.5t-87 106v-529h-180zM322 516q0 -121 30.5 -203t78.5 -133 t104.5 -72.5t107.5 -21.5q55 0 109.5 21.5t98.5 71.5t71.5 133t27.5 208q0 201 -82 317.5t-235 116.5q-35 0 -88 -13t-102.5 -58t-85 -132.5t-35.5 -234.5z" horiz-adv-x="1234" unicode="р"/><glyph d="M94 528q0 90 20.5 188.5t76 179.5t151.5 133t248 52q111 0 192.5 -29.5t137 -80.5t87 -117t40.5 -139h-173q-14 86 -51 135t-80 71.5t-85 27.5t-64 5q-84 0 -143.5 -33.5t-96.5 -91t-53 -135.5t-16 -166t18.5 -167.5t56 -141t99 -97.5t147.5 -36q76 0 128 28.5t85 70.5 t47.5 92.5t16.5 93.5h172q-4 -47 -23.5 -117t-68 -135.5t-135.5 -112.5t-226 -47q-27 0 -74 4t-104 20.5t-115.5 52.5t-105.5 98.5t-78 158.5t-31 235z" horiz-adv-x="1134" unicode="с"/><glyph d="M33 913v127h901v-127h-361v-913h-180v913h-360z" horiz-adv-x="966" unicode="т"/><glyph d="M20 1040h216l333 -841l277 841h180l-414 -1163q-12 -37 -28.5 -83t-46 -86t-76.5 -67.5t-121 -27.5q-43 0 -81 2t-66 8v133q41 -6 59 -8t31 -2q39 0 65.5 14.5t45 39t29.5 56t23 66.5l25 78z" horiz-adv-x="1032" unicode="у"/><glyph d="M94 526q0 49 8.5 109.5t33 122t68.5 119t114.5 100.5t171 67.5t239.5 20.5v369h180v-369q59 2 130 -5t141.5 -27.5t136 -58.5t116 -98.5t81 -146.5t30.5 -203t-33.5 -216t-109.5 -173t-197 -117t-295 -47v-352h-180v352q-184 4 -306 51.5t-195.5 124t-103.5 175 t-30 202.5zM285 528q0 -141 47 -225t116.5 -129t145.5 -59.5t135 -14.5v838q-68 4 -145.5 -9.5t-144 -58.5t-110.5 -128t-44 -214zM909 100q139 0 226.5 42t135.5 105.5t65.5 139.5t17.5 141q0 51 -15.5 125t-62.5 140.5t-134 109.5t-233 35v-838z" horiz-adv-x="1638" unicode="ф"/><glyph d="M6 0l393 543l-364 497h201l266 -385l266 385h201l-365 -497l393 -543h-200l-295 428l-295 -428h-201z" horiz-adv-x="1003" unicode="х"/><glyph d="M154 0v1040h180v-913h524v913h180v-913h181l-15 -397h-151v270h-899z" horiz-adv-x="1232" unicode="ц"/><glyph d="M98 692v348h181v-319q0 -41 4 -73t25.5 -53.5t69.5 -32.5t136 -11q29 0 59.5 1t59.5 3q23 2 43 2h43v483h180v-1040h-180v430q-66 -4 -120 -5t-122 -1q-137 0 -214 21.5t-113.5 58.5t-44 85t-7.5 103z" horiz-adv-x="1052" unicode="ч"/><glyph d="M154 0v1040h180v-913h434v913h180v-913h434v913h181v-1040h-1409z" horiz-adv-x="1716" unicode="ш"/><glyph d="M154 0v1040h180v-913h434v913h180v-913h434v913h181v-913h176l-17 -397h-151v270h-1417z" horiz-adv-x="1753" unicode="щ"/><glyph d="M33 913v127h450v-411h260q55 0 128 -7.5t137.5 -38t108.5 -95t44 -177.5q0 -98 -32.5 -159.5t-84 -95t-114 -45t-123.5 -11.5h-504v913h-270zM483 127h252q35 0 77 6t78 26.5t60.5 59.5t24.5 105q0 72 -31 108.5t-75 52t-90 16.5t-77 1h-219v-375z" horiz-adv-x="1220" unicode="ъ"/><glyph d="M154 0v1040h180v-411h262q55 0 127 -7.5t136.5 -38t109.5 -95t45 -177.5q0 -59 -16.5 -114.5t-57.5 -99.5t-109.5 -70.5t-173.5 -26.5h-503zM334 127h252q33 0 74.5 6t78.5 26.5t62.5 59.5t25.5 105q0 68 -26.5 103.5t-67.5 53t-89 19.5t-91 2h-219v-375zM1141 0v1040 h180v-1040h-180z" horiz-adv-x="1474" unicode="ы"/><glyph d="M154 0v1040h180v-413h260q57 0 130 -7.5t137.5 -38t107.5 -91t43 -166.5q0 -117 -43 -182.5t-101.5 -96.5t-119 -38t-93.5 -7h-501zM334 127h250q88 0 137 22.5t71.5 54.5t27.5 64.5t5 55.5q0 72 -29.5 107.5t-72.5 51t-90 16.5t-80 1h-219v-373z" horiz-adv-x="1064" unicode="ь"/><glyph d="M82 360h172q16 -135 90 -204.5t213 -69.5q72 0 122 22.5t84 57.5t53.5 79t29.5 88t12 82t2 62h-448v127h448q-4 121 -40 190.5t-83 105.5t-95 45t-77 9q-141 0 -218 -69.5t-85 -169.5h-172q14 131 73.5 204.5t131.5 109.5t142.5 44t109.5 8q70 0 157 -16t163.5 -74.5 t130 -172t53.5 -306.5q0 -178 -47.5 -286.5t-120 -168t-159.5 -79t-167 -19.5q-53 0 -126 8t-143.5 48t-128 120t-77.5 225z" horiz-adv-x="1144" unicode="э"/><glyph d="M154 0v1040h180v-428h164q8 84 39.5 168t92 150.5t152.5 108.5t222 42q100 0 192 -30.5t163 -97t114 -173t43 -258.5q0 -139 -34 -235.5t-86.5 -158.5t-113.5 -97t-117.5 -50.5t-99.5 -18.5t-57 -3q-145 0 -241.5 50t-154 127t-83 170t-31.5 179h-164v-485h-180zM688 522 q0 -59 10.5 -135t44 -142.5t97 -112.5t168.5 -46q78 0 131 26.5t89 67.5t55.5 91.5t28.5 99.5t11 89t2 62q0 33 -6 104.5t-37 144.5t-94.5 128t-179.5 55q-29 0 -83.5 -9t-106.5 -51t-91 -129t-39 -243z" horiz-adv-x="1609" unicode="ю"/><glyph d="M82 0l287 412q-53 6 -101.5 27.5t-85.5 59.5t-58.5 91t-21.5 123q0 49 13.5 106.5t51.5 106.5t106.5 81.5t179.5 32.5h518v-1040h-180v410h-238l-272 -410h-199zM289 719q0 -29 10 -61.5t38 -59.5t76 -44t124 -17h254v376h-261q-27 0 -67.5 -3t-79.5 -21.5t-66.5 -58 t-27.5 -111.5z" horiz-adv-x="1124" unicode="я"/><glyph d="M94 516q0 94 19.5 194.5t75 182.5t151.5 135t250 53q248 0 374 -139t126 -412v-51h-805q0 -68 18.5 -137.5t56 -125.5t100 -93t152.5 -37q37 0 79 7t82 30.5t74 65.5t52 112h172q-12 -53 -38.5 -113.5t-78 -110.5t-133.5 -84t-203 -34q-152 0 -252 48t-160.5 127 t-86 178.5t-25.5 203.5zM274 1245v189h181v-189h-181zM285 606h614q-10 98 -33.5 165t-59.5 108t-86 58t-114 17q-98 0 -160.5 -37.5t-97.5 -91t-48 -114t-15 -105.5zM754 1245v189h180v-189h-180z" horiz-adv-x="1183" unicode="ё"/><glyph d="M6 1178v127h164v129h180v-129h432v-127h-432v-324q70 98 153 142t189 44q125 0 201 -44t117 -128t53 -205.5t12 -275.5q0 -131 -9 -266t-54 -246t-140.5 -181.5t-267.5 -72.5v133h45q90 0 138.5 58.5t70 150.5t24.5 204t3 216t-3 199.5t-25.5 169t-71 117.5t-140.5 44 q-106 0 -165.5 -42t-88.5 -101t-35 -125.5t-6 -118.5v-526h-180v1178h-164z" horiz-adv-x="1208" unicode="ђ"/><glyph d="M154 0v1040h712v-127h-532v-913h-180zM322 1163l143 271h217l-197 -271h-163z" horiz-adv-x="899" unicode="ѓ"/><glyph d="M94 512q0 129 24.5 222t64.5 155.5t91.5 100.5t105.5 58.5t107.5 26.5t98.5 6q141 0 231 -37.5t141.5 -94t72 -120t24.5 -114.5h-172q0 61 -28 106t-72 75t-100 44t-114 14q-47 0 -95 -14t-89 -52t-68.5 -106.5t-31.5 -177.5h477v-127h-477q2 -129 33.5 -205.5 t76.5 -118.5t97.5 -54.5t97.5 -12.5t94 10t92 40t75 84t42 142h172q-4 -57 -25.5 -126.5t-74 -131t-142.5 -103.5t-231 -42q-33 0 -83 4t-105.5 21.5t-110.5 51.5t-99 95.5t-72 154.5t-28 226z" horiz-adv-x="1146" unicode="є"/><glyph d="M80 309h180q2 -61 26.5 -104t64.5 -69.5t90.5 -38t101.5 -11.5q90 0 139 24.5t71.5 57.5t25.5 65.5t3 49.5q0 25 -5 48t-27.5 44.5t-66.5 41t-120 38.5l-110 24q-66 14 -125.5 32.5t-104.5 51.5t-71.5 85t-26.5 134q0 86 35 144.5t92 92.5t127 48t141 14q133 0 214 -32.5 t126 -80.5t61.5 -102.5t20.5 -97.5h-172q-2 23 -11 54.5t-35 61t-73 50t-125 20.5q-8 0 -42.5 -2t-72.5 -17t-69 -49t-31 -95q0 -55 23.5 -88t63.5 -51.5t92.5 -30t107.5 -23.5q80 -18 147.5 -37.5t117.5 -51.5t78 -83t28 -131q0 -82 -29 -138.5t-72 -94t-95 -58t-100 -31 t-84 -12.5t-48 -2q-117 0 -202 27.5t-142.5 76t-86 112t-30.5 134.5z" horiz-adv-x="1048" unicode="ѕ"/><glyph d="M150 0v1040h180v-1040h-180zM150 1245v189h180v-189h-180z" horiz-adv-x="479" unicode="і"/><glyph d="M53 1245v189h180v-189h-180zM195 0v1040h182v-1040h-182zM338 1245v189h180v-189h-180z" horiz-adv-x="571" unicode="ї"/><glyph d="M-27 -252q72 12 109 22.5t53.5 28t18.5 47t2 80.5v1114h180v-1136q0 -70 -11.5 -124t-39 -91t-75.5 -56.5t-120 -19.5q-27 0 -62.5 3t-54.5 5v127zM156 1245v189h180v-189h-180z" horiz-adv-x="485" unicode="ј"/><glyph d="M33 0v133q10 -2 19 -3t20 -1q74 0 115.5 41t63 111.5t27 166t5.5 201.5v391h723v-407h262q57 0 129.5 -7.5t136 -39t108 -96t44.5 -179.5q0 -111 -41 -173t-98.5 -93t-118 -38t-99.5 -7h-504v913h-372v-264q0 -121 -6.5 -238.5t-40 -209.5t-104.5 -149.5t-198 -57.5 q-35 0 -71 6zM1006 127h251q78 0 125.5 18.5t74 47t34.5 63.5t8 68q0 57 -21.5 92t-59.5 55.5t-87 27.5t-104 7h-221v-379z" horiz-adv-x="1738" unicode="љ"/><glyph d="M154 0v1040h180v-411h516v411h180v-411h260h60q41 0 88 -7.5t95 -24.5t87 -53t64.5 -92.5t25.5 -140.5q0 -86 -26.5 -145.5t-73.5 -96t-112.5 -53t-143.5 -16.5h-504v502h-516v-502h-180zM1030 127h252q25 0 66 4t79.5 22.5t67.5 58.5t29 112t-32 108.5t-77 52t-91 16.5 t-73 1h-221v-375z" horiz-adv-x="1763" unicode="њ"/><glyph d="M6 1178v127h164v129h180v-129h432v-127h-432v-324q72 98 159 142t198 44q129 0 197.5 -48t100 -112.5t37 -129t5.5 -99.5v-651h-181v596q0 31 -1 84t-20.5 105.5t-64.5 90t-133 37.5q-74 0 -125 -23.5t-83.5 -60t-51 -82t-27 -88.5t-9.5 -78.5t-1 -54.5v-526h-180v1178 h-164z" horiz-adv-x="1200" unicode="ћ"/><glyph d="M154 0v1040h180v-454l444 454h211l-487 -483l514 -557h-215l-467 520v-520h-180zM379 1163l143 271h217l-197 -271h-163z" horiz-adv-x="1013" unicode="ќ"/><glyph d="M20 1040h216l333 -841l277 841h180l-414 -1163q-12 -37 -28.5 -83t-46 -86t-76.5 -67.5t-121 -27.5q-43 0 -81 2t-66 8v133q41 -6 59 -8t31 -2q39 0 65.5 14.5t45 39t29.5 56t23 66.5l25 78zM164 1434h151q4 -61 51 -111.5t150 -50.5q102 0 149 50t52 112h151 q-6 -41 -26.5 -88.5t-61.5 -88t-105.5 -67.5t-158.5 -27q-96 0 -159.5 27t-104.5 67.5t-61.5 88t-26.5 88.5z" horiz-adv-x="1019" unicode="ў"/><glyph d="M154 0v1040h180v-913h528v913h180v-1040h-364v-379h-160v379h-364z" horiz-adv-x="1196" unicode="џ"/><glyph d="M180 0v1434h731v323h179l14 -485h-731v-1272h-193z" horiz-adv-x="1136" unicode="Ґ"/><glyph d="M154 0v1040h544v273h150l18 -400h-532v-913h-180z" horiz-adv-x="899" unicode="ґ"/><glyph d="M98 455h193q-2 -72 24.5 -133.5t80 -106.5t130 -70.5t174.5 -25.5q96 0 163 22.5t109 59.5t61.5 85t19.5 99q0 66 -27 110t-67.5 71.5t-93 44t-101.5 26.5q-123 27 -234.5 50.5t-196.5 66.5t-135.5 115.5t-50.5 195.5q0 100 39 178t111 129t172 78t221 27 q133 0 230.5 -34t162 -91.5t98 -133t40.5 -157.5h-193q-10 88 -52 139t-95.5 77t-108.5 32t-88 6q-150 0 -241 -64.5t-91 -175.5q0 -66 30 -105.5t79 -65t113.5 -40t136.5 -28.5q96 -18 193 -42t176 -71t128 -126t49 -208q0 -106 -33.5 -180t-87 -122t-119 -74.5t-128 -39 t-116.5 -14.5t-83 -2q-76 0 -175 14.5t-189 64.5t-155 149.5t-73 269.5zM1441 455h193q-2 -72 24.5 -133.5t80 -106.5t130 -70.5t174.5 -25.5q96 0 163 22.5t109 59.5t61.5 85t19.5 99q0 66 -27 110t-67.5 71.5t-93 44t-101.5 26.5q-123 27 -234.5 50.5t-196.5 66.5 t-135.5 115.5t-50.5 195.5q0 100 39 178t111 129t172 78t221 27q133 0 230.5 -34t162 -91.5t98 -133t40.5 -157.5h-193q-10 88 -52 139t-95.5 77t-108.5 32t-88 6q-150 0 -241 -64.5t-91 -175.5q0 -66 30 -105.5t79 -65t113.5 -40t136.5 -28.5q96 -18 193 -42t176 -71 t128 -126t49 -208q0 -106 -33.5 -180t-87 -122t-119 -74.5t-128 -39t-116.5 -14.5t-83 -2q-76 0 -175 14.5t-189 64.5t-155 149.5t-73 269.5z" horiz-adv-x="2699" unicode="ẞ"/><glyph d="M-2 0l543 1434h204l543 -1434h-207l-135 371h-606l-135 -371h-207zM393 532h500l-250 707zM556 -190h180v-189h-180v189z" unicode="Ạ"/><glyph d="M82 272q0 68 20.5 122.5t78 96t155.5 69.5t256 42q57 4 96 8t62.5 17.5t34 40t10.5 77.5q0 18 -4.5 53.5t-27 70t-69.5 60t-133 25.5q-25 0 -71 -4t-91 -25.5t-77.5 -65.5t-30.5 -126h-172q0 51 17.5 112.5t65.5 114t135 87t224 34.5q63 0 136 -12t135.5 -49 t103.5 -105.5t39 -183.5l-10 -481q0 -31 1 -54.5t11 -39t32.5 -23.5t63.5 -6v-127q-18 -4 -35.5 -6t-46.5 -2q-37 0 -68.5 5t-55 20.5t-39 45t-23.5 80.5q-27 -49 -66 -83.5t-86 -57t-99 -33t-105 -10.5q-164 0 -265.5 75t-101.5 238zM268 279q0 -92 56.5 -142.5 t144.5 -50.5q53 0 107.5 15.5t100.5 55.5t76.5 109.5t37.5 177.5l4 88q-20 -16 -43 -23t-49.5 -11t-60.5 -7.5t-77 -9.5q-59 -10 -113.5 -19t-95.5 -28.5t-64.5 -56.5t-23.5 -98zM461 -190h180v-189h-180v189z" horiz-adv-x="1144" unicode="ạ"/><glyph d="M-2 0l543 1434h204l543 -1434h-207l-135 371h-606l-135 -371h-207zM393 532h500l-250 707zM393 1800q0 35 10.5 70.5t37 64.5t75.5 47.5t127 18.5q127 0 183.5 -45t56.5 -115q0 -59 -30 -94t-75 -68t-61 -55.5t-16 -46.5v-21h-148v25q0 29 15.5 61.5t68.5 73.5 q51 39 73.5 62.5t22.5 58.5q0 25 -17.5 45t-72.5 20q-57 0 -82.5 -27.5t-27.5 -74.5h-140z" unicode="Ả"/><glyph d="M82 272q0 68 20.5 122.5t78 96t155.5 69.5t256 42q57 4 96 8t62.5 17.5t34 40t10.5 77.5q0 18 -4.5 53.5t-27 70t-69.5 60t-133 25.5q-25 0 -71 -4t-91 -25.5t-77.5 -65.5t-30.5 -126h-172q0 51 17.5 112.5t65.5 114t135 87t224 34.5q63 0 136 -12t135.5 -49 t103.5 -105.5t39 -183.5l-10 -481q0 -31 1 -54.5t11 -39t32.5 -23.5t63.5 -6v-127q-18 -4 -35.5 -6t-46.5 -2q-37 0 -68.5 5t-55 20.5t-39 45t-23.5 80.5q-27 -49 -66 -83.5t-86 -57t-99 -33t-105 -10.5q-164 0 -265.5 75t-101.5 238zM268 279q0 -92 56.5 -142.5 t144.5 -50.5q53 0 107.5 15.5t100.5 55.5t76.5 109.5t37.5 177.5l4 88q-20 -16 -43 -23t-49.5 -11t-60.5 -7.5t-77 -9.5q-59 -10 -113.5 -19t-95.5 -28.5t-64.5 -56.5t-23.5 -98zM313 1407q0 35 10.5 70.5t37 64.5t75.5 47.5t127 18.5q127 0 183.5 -45t56.5 -115 q0 -59 -30 -94t-75 -68t-61 -55.5t-16 -46.5v-21h-148v25q0 29 15.5 61.5t68.5 73.5q51 39 73.5 62.5t22.5 58.5q0 25 -17.5 45t-72.5 20q-57 0 -82.5 -27.5t-27.5 -74.5h-140z" horiz-adv-x="1144" unicode="ả"/><glyph d="M-2 0l543 1434h204l543 -1434h-207l-135 371h-606l-135 -371h-207zM244 1556l256 287h290l256 -287h-192l-209 216l-209 -216h-192zM393 532h500l-250 707zM942 1740l151 287h230l-209 -287h-172z" unicode="Ấ"/><glyph d="M82 272q0 68 20.5 122.5t78 96t155.5 69.5t256 42q57 4 96 8t62.5 17.5t34 40t10.5 77.5q0 18 -4.5 53.5t-27 70t-69.5 60t-133 25.5q-25 0 -71 -4t-91 -25.5t-77.5 -65.5t-30.5 -126h-172q0 51 17.5 112.5t65.5 114t135 87t224 34.5q63 0 136 -12t135.5 -49 t103.5 -105.5t39 -183.5l-10 -481q0 -31 1 -54.5t11 -39t32.5 -23.5t63.5 -6v-127q-18 -4 -35.5 -6t-46.5 -2q-37 0 -68.5 5t-55 20.5t-39 45t-23.5 80.5q-27 -49 -66 -83.5t-86 -57t-99 -33t-105 -10.5q-164 0 -265.5 75t-101.5 238zM191 1163l243 271h271l243 -271h-180 l-199 203l-198 -203h-180zM268 279q0 -92 56.5 -142.5t144.5 -50.5q53 0 107.5 15.5t100.5 55.5t76.5 109.5t37.5 177.5l4 88q-20 -16 -43 -23t-49.5 -11t-60.5 -7.5t-77 -9.5q-59 -10 -113.5 -19t-95.5 -28.5t-64.5 -56.5t-23.5 -98zM828 1370l143 271h217l-197 -271h-163z" horiz-adv-x="1144" unicode="ấ"/><glyph d="M-19 2027h230l153 -287h-172zM-2 0l543 1434h204l543 -1434h-207l-135 371h-606l-135 -371h-207zM246 1556l256 287h290l256 -287h-192l-209 216l-209 -216h-192zM393 532h500l-250 707z" unicode="Ầ"/><glyph d="M-43 1641h217l144 -271h-164zM82 272q0 68 20.5 122.5t78 96t155.5 69.5t256 42q57 4 96 8t62.5 17.5t34 40t10.5 77.5q0 18 -4.5 53.5t-27 70t-69.5 60t-133 25.5q-25 0 -71 -4t-91 -25.5t-77.5 -65.5t-30.5 -126h-172q0 51 17.5 112.5t65.5 114t135 87t224 34.5 q63 0 136 -12t135.5 -49t103.5 -105.5t39 -183.5l-10 -481q0 -31 1 -54.5t11 -39t32.5 -23.5t63.5 -6v-127q-18 -4 -35.5 -6t-46.5 -2q-37 0 -68.5 5t-55 20.5t-39 45t-23.5 80.5q-27 -49 -66 -83.5t-86 -57t-99 -33t-105 -10.5q-164 0 -265.5 75t-101.5 238zM189 1163 l243 271h271l243 -271h-180l-199 203l-198 -203h-180zM268 279q0 -92 56.5 -142.5t144.5 -50.5q53 0 107.5 15.5t100.5 55.5t76.5 109.5t37.5 177.5l4 88q-20 -16 -43 -23t-49.5 -11t-60.5 -7.5t-77 -9.5q-59 -10 -113.5 -19t-95.5 -28.5t-64.5 -56.5t-23.5 -98z" horiz-adv-x="1144" unicode="ầ"/><glyph d="M-2 0l543 1434h204l543 -1434h-207l-135 371h-606l-135 -371h-207zM244 1556l256 287h290l256 -287h-192l-209 216l-209 -216h-192zM393 532h500l-250 707zM786 1985q0 35 10.5 70.5t37 64.5t75.5 47.5t127 18.5q127 0 183.5 -45t56.5 -115q0 -59 -30 -94t-75 -68 t-61 -55.5t-16 -46.5v-21h-148v25q0 29 15.5 61.5t68.5 73.5q51 39 73.5 62.5t22.5 58.5q0 25 -17.5 45t-72.5 20q-57 0 -82.5 -27.5t-27.5 -74.5h-140z" unicode="Ẩ"/><glyph d="M82 272q0 68 20.5 122.5t78 96t155.5 69.5t256 42q57 4 96 8t62.5 17.5t34 40t10.5 77.5q0 18 -4.5 53.5t-27 70t-69.5 60t-133 25.5q-25 0 -71 -4t-91 -25.5t-77.5 -65.5t-30.5 -126h-172q0 51 17.5 112.5t65.5 114t135 87t224 34.5q63 0 136 -12t135.5 -49 t103.5 -105.5t39 -183.5l-10 -481q0 -31 1 -54.5t11 -39t32.5 -23.5t63.5 -6v-127q-18 -4 -35.5 -6t-46.5 -2q-37 0 -68.5 5t-55 20.5t-39 45t-23.5 80.5q-27 -49 -66 -83.5t-86 -57t-99 -33t-105 -10.5q-164 0 -265.5 75t-101.5 238zM185 1163l243 271h271l243 -271h-180 l-199 203l-198 -203h-180zM268 279q0 -92 56.5 -142.5t144.5 -50.5q53 0 107.5 15.5t100.5 55.5t76.5 109.5t37.5 177.5l4 88q-20 -16 -43 -23t-49.5 -11t-60.5 -7.5t-77 -9.5q-59 -10 -113.5 -19t-95.5 -28.5t-64.5 -56.5t-23.5 -98zM684 1606q0 35 10.5 70.5t37 64.5 t75.5 47.5t127 18.5q127 0 183.5 -45t56.5 -115q0 -59 -30 -94t-75 -68t-61 -55.5t-16 -46.5v-21h-148v25q0 29 15.5 61.5t68.5 73.5q51 39 73.5 62.5t22.5 58.5q0 25 -17.5 45t-72.5 20q-57 0 -82.5 -27.5t-27.5 -74.5h-140z" horiz-adv-x="1144" unicode="ẩ"/><glyph d="M-2 0l543 1434h204l543 -1434h-207l-135 371h-606l-135 -371h-207zM244 1556l256 287h290l256 -287h-192l-209 216l-209 -216h-192zM244 1915q6 41 25.5 80t50 68.5t72.5 48t93 18.5q66 0 101.5 -16.5t58.5 -30.5q47 -29 86 -44t74 -15t70.5 20.5t45.5 69.5h125 q-6 -39 -22.5 -79t-46 -72t-71.5 -51.5t-97 -19.5t-92 15.5t-88 40.5q-41 20 -72 35.5t-72 15.5q-43 0 -75.5 -21.5t-38.5 -62.5h-127zM393 532h500l-250 707z" unicode="Ẫ"/><glyph d="M82 272q0 68 20.5 122.5t78 96t155.5 69.5t256 42q57 4 96 8t62.5 17.5t34 40t10.5 77.5q0 18 -4.5 53.5t-27 70t-69.5 60t-133 25.5q-25 0 -71 -4t-91 -25.5t-77.5 -65.5t-30.5 -126h-172q0 51 17.5 112.5t65.5 114t135 87t224 34.5q63 0 136 -12t135.5 -49 t103.5 -105.5t39 -183.5l-10 -481q0 -31 1 -54.5t11 -39t32.5 -23.5t63.5 -6v-127q-18 -4 -35.5 -6t-46.5 -2q-37 0 -68.5 5t-55 20.5t-39 45t-23.5 80.5q-27 -49 -66 -83.5t-86 -57t-99 -33t-105 -10.5q-164 0 -265.5 75t-101.5 238zM191 1163l243 271h271l243 -271h-180 l-199 203l-198 -203h-180zM211 1526q14 80 71.5 142.5t155.5 62.5q43 0 75.5 -10t75.5 -35q29 -16 68 -36.5t84 -20.5q39 0 68.5 24.5t40.5 61.5h118q-6 -31 -20.5 -68t-41 -68.5t-67.5 -52t-98 -20.5q-49 0 -89 16t-79 37q-33 16 -66.5 32.5t-70.5 16.5q-33 0 -67 -17.5 t-38 -64.5h-120zM268 279q0 -92 56.5 -142.5t144.5 -50.5q53 0 107.5 15.5t100.5 55.5t76.5 109.5t37.5 177.5l4 88q-20 -16 -43 -23t-49.5 -11t-60.5 -7.5t-77 -9.5q-59 -10 -113.5 -19t-95.5 -28.5t-64.5 -56.5t-23.5 -98z" horiz-adv-x="1144" unicode="ẫ"/><glyph d="M-2 0l543 1434h204l543 -1434h-207l-135 371h-606l-135 -371h-207zM246 1556l256 287h290l256 -287h-192l-209 216l-209 -216h-192zM393 532h500l-250 707zM556 -190h180v-189h-180v189z" unicode="Ậ"/><glyph d="M82 272q0 68 20.5 122.5t78 96t155.5 69.5t256 42q57 4 96 8t62.5 17.5t34 40t10.5 77.5q0 18 -4.5 53.5t-27 70t-69.5 60t-133 25.5q-25 0 -71 -4t-91 -25.5t-77.5 -65.5t-30.5 -126h-172q0 51 17.5 112.5t65.5 114t135 87t224 34.5q63 0 136 -12t135.5 -49 t103.5 -105.5t39 -183.5l-10 -481q0 -31 1 -54.5t11 -39t32.5 -23.5t63.5 -6v-127q-18 -4 -35.5 -6t-46.5 -2q-37 0 -68.5 5t-55 20.5t-39 45t-23.5 80.5q-27 -49 -66 -83.5t-86 -57t-99 -33t-105 -10.5q-164 0 -265.5 75t-101.5 238zM191 1163l243 271h271l243 -271h-180 l-199 203l-198 -203h-180zM268 279q0 -92 56.5 -142.5t144.5 -50.5q53 0 107.5 15.5t100.5 55.5t76.5 109.5t37.5 177.5l4 88q-20 -16 -43 -23t-49.5 -11t-60.5 -7.5t-77 -9.5q-59 -10 -113.5 -19t-95.5 -28.5t-64.5 -56.5t-23.5 -98zM461 -190h180v-189h-180v189z" horiz-adv-x="1144" unicode="ậ"/><glyph d="M-2 0l543 1434h204l543 -1434h-207l-135 371h-606l-135 -371h-207zM271 1843h159q2 -80 62.5 -126t152.5 -46t144.5 38t70.5 134h160q-8 -43 -28.5 -93t-63.5 -93t-110.5 -72t-172.5 -29q-104 0 -171.5 29t-110.5 72t-63.5 93t-28.5 93zM393 532h500l-250 707zM533 1802 l151 287h230l-209 -287h-172z" unicode="Ắ"/><glyph d="M82 272q0 68 20.5 122.5t78 96t155.5 69.5t256 42q57 4 96 8t62.5 17.5t34 40t10.5 77.5q0 18 -4.5 53.5t-27 70t-69.5 60t-133 25.5q-25 0 -71 -4t-91 -25.5t-77.5 -65.5t-30.5 -126h-172q0 51 17.5 112.5t65.5 114t135 87t224 34.5q63 0 136 -12t135.5 -49 t103.5 -105.5t39 -183.5l-10 -481q0 -31 1 -54.5t11 -39t32.5 -23.5t63.5 -6v-127q-18 -4 -35.5 -6t-46.5 -2q-37 0 -68.5 5t-55 20.5t-39 45t-23.5 80.5q-27 -49 -66 -83.5t-86 -57t-99 -33t-105 -10.5q-164 0 -265.5 75t-101.5 238zM213 1434h151q4 -61 51 -111.5 t150 -50.5q102 0 149 50t52 112h151q-6 -41 -26.5 -88.5t-61.5 -88t-105.5 -67.5t-158.5 -27q-96 0 -159.5 27t-104.5 67.5t-61.5 88t-26.5 88.5zM268 279q0 -92 56.5 -142.5t144.5 -50.5q53 0 107.5 15.5t100.5 55.5t76.5 109.5t37.5 177.5l4 88q-20 -16 -43 -23t-49.5 -11 t-60.5 -7.5t-77 -9.5q-59 -10 -113.5 -19t-95.5 -28.5t-64.5 -56.5t-23.5 -98zM471 1431l143 271h217l-197 -271h-163z" horiz-adv-x="1144" unicode="ắ"/><glyph d="M-2 0l543 1434h204l543 -1434h-207l-135 371h-606l-135 -371h-207zM273 1843h159q2 -80 62.5 -126t152.5 -46t144.5 38t70.5 134h160q-8 -43 -28.5 -93t-63.5 -93t-110.5 -72t-172.5 -29q-104 0 -171.5 29t-110.5 72t-63.5 93t-28.5 93zM371 2089h230l153 -287h-172z M393 532h500l-250 707z" unicode="Ằ"/><glyph d="M82 272q0 68 20.5 122.5t78 96t155.5 69.5t256 42q57 4 96 8t62.5 17.5t34 40t10.5 77.5q0 18 -4.5 53.5t-27 70t-69.5 60t-133 25.5q-25 0 -71 -4t-91 -25.5t-77.5 -65.5t-30.5 -126h-172q0 51 17.5 112.5t65.5 114t135 87t224 34.5q63 0 136 -12t135.5 -49 t103.5 -105.5t39 -183.5l-10 -481q0 -31 1 -54.5t11 -39t32.5 -23.5t63.5 -6v-127q-18 -4 -35.5 -6t-46.5 -2q-37 0 -68.5 5t-55 20.5t-39 45t-23.5 80.5q-27 -49 -66 -83.5t-86 -57t-99 -33t-105 -10.5q-164 0 -265.5 75t-101.5 238zM213 1434h151q4 -61 51 -111.5 t150 -50.5q102 0 149 50t52 112h151q-6 -41 -26.5 -88.5t-61.5 -88t-105.5 -67.5t-158.5 -27q-96 0 -159.5 27t-104.5 67.5t-61.5 88t-26.5 88.5zM268 279q0 -92 56.5 -142.5t144.5 -50.5q53 0 107.5 15.5t100.5 55.5t76.5 109.5t37.5 177.5l4 88q-20 -16 -43 -23t-49.5 -11 t-60.5 -7.5t-77 -9.5q-59 -10 -113.5 -19t-95.5 -28.5t-64.5 -56.5t-23.5 -98zM305 1702h217l144 -271h-164z" horiz-adv-x="1144" unicode="ằ"/><glyph d="M-2 0l543 1434h204l543 -1434h-207l-135 371h-606l-135 -371h-207zM273 1843h159q2 -80 62.5 -126t152.5 -46t144.5 38t70.5 134h160q-8 -43 -28.5 -93t-63.5 -93t-110.5 -72t-172.5 -29q-104 0 -171.5 29t-110.5 72t-63.5 93t-28.5 93zM393 532h500l-250 707zM401 2036 q0 35 10.5 70.5t37 64.5t75.5 47.5t127 18.5q127 0 183.5 -45t56.5 -115q0 -59 -30 -94t-75 -68t-61 -55.5t-16 -46.5v-21h-148v25q0 29 15.5 61.5t68.5 73.5q51 39 73.5 62.5t22.5 58.5q0 25 -17.5 45t-72.5 20q-57 0 -82.5 -27.5t-27.5 -74.5h-140z" unicode="Ẳ"/><glyph d="M82 272q0 68 20.5 122.5t78 96t155.5 69.5t256 42q57 4 96 8t62.5 17.5t34 40t10.5 77.5q0 18 -4.5 53.5t-27 70t-69.5 60t-133 25.5q-25 0 -71 -4t-91 -25.5t-77.5 -65.5t-30.5 -126h-172q0 51 17.5 112.5t65.5 114t135 87t224 34.5q63 0 136 -12t135.5 -49 t103.5 -105.5t39 -183.5l-10 -481q0 -31 1 -54.5t11 -39t32.5 -23.5t63.5 -6v-127q-18 -4 -35.5 -6t-46.5 -2q-37 0 -68.5 5t-55 20.5t-39 45t-23.5 80.5q-27 -49 -66 -83.5t-86 -57t-99 -33t-105 -10.5q-164 0 -265.5 75t-101.5 238zM213 1434h151q4 -61 51 -111.5 t150 -50.5q102 0 149 50t52 112h151q-6 -41 -26.5 -88.5t-61.5 -88t-105.5 -67.5t-158.5 -27q-96 0 -159.5 27t-104.5 67.5t-61.5 88t-26.5 88.5zM268 279q0 -92 56.5 -142.5t144.5 -50.5q53 0 107.5 15.5t100.5 55.5t76.5 109.5t37.5 177.5l4 88q-20 -16 -43 -23t-49.5 -11 t-60.5 -7.5t-77 -9.5q-59 -10 -113.5 -19t-95.5 -28.5t-64.5 -56.5t-23.5 -98zM323 1626q0 35 10.5 70.5t37 64.5t75.5 47.5t127 18.5q127 0 183.5 -45t56.5 -115q0 -59 -30 -94t-75 -68t-61 -55.5t-16 -46.5v-21h-148v25q0 29 15.5 61.5t68.5 73.5q51 39 73.5 62.5 t22.5 58.5q0 25 -17.5 45t-72.5 20q-57 0 -82.5 -27.5t-27.5 -74.5h-140z" horiz-adv-x="1144" unicode="ẳ"/><glyph d="M-2 0l543 1434h204l543 -1434h-207l-135 371h-606l-135 -371h-207zM246 1915q6 41 25.5 80t50 68.5t72.5 48t93 18.5q66 0 101.5 -16.5t58.5 -30.5q47 -29 86 -44t74 -15t70.5 20.5t45.5 69.5h125q-6 -39 -22.5 -79t-46 -72t-71.5 -51.5t-97 -19.5t-92 15.5t-88 40.5 q-41 20 -72 35.5t-72 15.5q-43 0 -75.5 -21.5t-38.5 -62.5h-127zM271 1843h159q2 -80 62.5 -126t152.5 -46t144.5 38t70.5 134h160q-8 -43 -28.5 -93t-63.5 -93t-110.5 -72t-172.5 -29q-104 0 -171.5 29t-110.5 72t-63.5 93t-28.5 93zM393 532h500l-250 707z" unicode="Ẵ"/><glyph d="M82 272q0 68 20.5 122.5t78 96t155.5 69.5t256 42q57 4 96 8t62.5 17.5t34 40t10.5 77.5q0 18 -4.5 53.5t-27 70t-69.5 60t-133 25.5q-25 0 -71 -4t-91 -25.5t-77.5 -65.5t-30.5 -126h-172q0 51 17.5 112.5t65.5 114t135 87t224 34.5q63 0 136 -12t135.5 -49 t103.5 -105.5t39 -183.5l-10 -481q0 -31 1 -54.5t11 -39t32.5 -23.5t63.5 -6v-127q-18 -4 -35.5 -6t-46.5 -2q-37 0 -68.5 5t-55 20.5t-39 45t-23.5 80.5q-27 -49 -66 -83.5t-86 -57t-99 -33t-105 -10.5q-164 0 -265.5 75t-101.5 238zM193 1526q14 80 71.5 142.5t155.5 62.5 q43 0 75.5 -10t75.5 -35q29 -16 68 -36.5t84 -20.5q39 0 68.5 24.5t40.5 61.5h118q-6 -31 -20.5 -68t-41 -68.5t-67.5 -52t-98 -20.5q-49 0 -89 16t-79 37q-33 16 -66.5 32.5t-70.5 16.5q-33 0 -67 -17.5t-38 -64.5h-120zM213 1434h151q4 -61 51 -111.5t150 -50.5 q102 0 149 50t52 112h151q-6 -41 -26.5 -88.5t-61.5 -88t-105.5 -67.5t-158.5 -27q-96 0 -159.5 27t-104.5 67.5t-61.5 88t-26.5 88.5zM268 279q0 -92 56.5 -142.5t144.5 -50.5q53 0 107.5 15.5t100.5 55.5t76.5 109.5t37.5 177.5l4 88q-20 -16 -43 -23t-49.5 -11 t-60.5 -7.5t-77 -9.5q-59 -10 -113.5 -19t-95.5 -28.5t-64.5 -56.5t-23.5 -98z" horiz-adv-x="1144" unicode="ẵ"/><glyph d="M-2 0l543 1434h204l543 -1434h-207l-135 371h-606l-135 -371h-207zM273 1843h159q2 -80 62.5 -126t152.5 -46t144.5 38t70.5 134h160q-8 -43 -28.5 -93t-63.5 -93t-110.5 -72t-172.5 -29q-104 0 -171.5 29t-110.5 72t-63.5 93t-28.5 93zM393 532h500l-250 707zM556 -190 h180v-189h-180v189z" unicode="Ặ"/><glyph d="M82 272q0 68 20.5 122.5t78 96t155.5 69.5t256 42q57 4 96 8t62.5 17.5t34 40t10.5 77.5q0 18 -4.5 53.5t-27 70t-69.5 60t-133 25.5q-25 0 -71 -4t-91 -25.5t-77.5 -65.5t-30.5 -126h-172q0 51 17.5 112.5t65.5 114t135 87t224 34.5q63 0 136 -12t135.5 -49 t103.5 -105.5t39 -183.5l-10 -481q0 -31 1 -54.5t11 -39t32.5 -23.5t63.5 -6v-127q-18 -4 -35.5 -6t-46.5 -2q-37 0 -68.5 5t-55 20.5t-39 45t-23.5 80.5q-27 -49 -66 -83.5t-86 -57t-99 -33t-105 -10.5q-164 0 -265.5 75t-101.5 238zM199 1434h151q4 -61 51 -111.5 t150 -50.5q102 0 149 50t52 112h151q-6 -41 -26.5 -88.5t-61.5 -88t-105.5 -67.5t-158.5 -27q-96 0 -159.5 27t-104.5 67.5t-61.5 88t-26.5 88.5zM268 279q0 -92 56.5 -142.5t144.5 -50.5q53 0 107.5 15.5t100.5 55.5t76.5 109.5t37.5 177.5l4 88q-20 -16 -43 -23t-49.5 -11 t-60.5 -7.5t-77 -9.5q-59 -10 -113.5 -19t-95.5 -28.5t-64.5 -56.5t-23.5 -98zM461 -190h180v-189h-180v189z" horiz-adv-x="1144" unicode="ặ"/><glyph d="M180 0v1434h1022v-162h-829v-451h751v-162h-751v-497h852v-162h-1045zM590 -190h180v-189h-180v189z" horiz-adv-x="1265" unicode="Ẹ"/><glyph d="M94 516q0 35 4 91.5t20.5 118.5t49.5 125.5t89 115t140 83t205 31.5q156 0 249 -54t143 -136t67.5 -179.5t21.5 -181.5q0 -12 1 -25t1 -26h-800q0 -68 18.5 -137.5t57 -125.5t101 -93t152.5 -37q63 0 114.5 17.5t87.5 47t57.5 68.5t29.5 82h172q-10 -55 -37.5 -115.5 t-80 -110.5t-134.5 -83t-202 -33q-129 0 -218.5 35t-147.5 89t-91 119.5t-48.5 127t-18.5 112t-3 74.5zM285 606h610q-2 51 -14.5 112.5t-44 114t-87 87t-143.5 34.5q-98 0 -161.5 -35.5t-99.5 -89t-48 -114t-12 -109.5zM498 -190h180v-189h-180v189z" horiz-adv-x="1179" unicode="ẹ"/><glyph d="M180 0v1434h1022v-162h-829v-451h751v-162h-751v-497h852v-162h-1045zM411 1800q0 35 10.5 70.5t37 64.5t75.5 47.5t127 18.5q127 0 183.5 -45t56.5 -115q0 -59 -30 -94t-75 -68t-61 -55.5t-16 -46.5v-21h-148v25q0 29 15.5 61.5t68.5 73.5q51 39 73.5 62.5t22.5 58.5 q0 25 -17.5 45t-72.5 20q-57 0 -82.5 -27.5t-27.5 -74.5h-140z" horiz-adv-x="1265" unicode="Ẻ"/><glyph d="M94 516q0 35 4 91.5t20.5 118.5t49.5 125.5t89 115t140 83t205 31.5q156 0 249 -54t143 -136t67.5 -179.5t21.5 -181.5q0 -12 1 -25t1 -26h-800q0 -68 18.5 -137.5t57 -125.5t101 -93t152.5 -37q63 0 114.5 17.5t87.5 47t57.5 68.5t29.5 82h172q-10 -55 -37.5 -115.5 t-80 -110.5t-134.5 -83t-202 -33q-129 0 -218.5 35t-147.5 89t-91 119.5t-48.5 127t-18.5 112t-3 74.5zM285 606h610q-2 51 -14.5 112.5t-44 114t-87 87t-143.5 34.5q-98 0 -161.5 -35.5t-99.5 -89t-48 -114t-12 -109.5zM346 1407q0 35 10.5 70.5t37 64.5t75.5 47.5 t127 18.5q127 0 183.5 -45t56.5 -115q0 -59 -30 -94t-75 -68t-61 -55.5t-16 -46.5v-21h-148v25q0 29 15.5 61.5t68.5 73.5q51 39 73.5 62.5t22.5 58.5q0 25 -17.5 45t-72.5 20q-57 0 -82.5 -27.5t-27.5 -74.5h-140z" horiz-adv-x="1179" unicode="ẻ"/><glyph d="M180 0v1434h1022v-162h-829v-451h751v-162h-751v-497h852v-162h-1045zM271 1579q6 41 25.5 80t50 68.5t72.5 48t93 18.5q66 0 101.5 -16.5t58.5 -30.5q47 -29 86 -44t74 -15t70.5 20.5t45.5 69.5h125q-6 -39 -22.5 -79t-46 -72t-71.5 -51.5t-97 -19.5t-92 15.5t-88 40.5 q-41 20 -72 35.5t-72 15.5q-43 0 -75.5 -21.5t-38.5 -62.5h-127z" horiz-adv-x="1265" unicode="Ẽ"/><glyph d="M94 516q0 35 4 91.5t20.5 118.5t49.5 125.5t89 115t140 83t205 31.5q156 0 249 -54t143 -136t67.5 -179.5t21.5 -181.5q0 -12 1 -25t1 -26h-800q0 -68 18.5 -137.5t57 -125.5t101 -93t152.5 -37q63 0 114.5 17.5t87.5 47t57.5 68.5t29.5 82h172q-10 -55 -37.5 -115.5 t-80 -110.5t-134.5 -83t-202 -33q-129 0 -218.5 35t-147.5 89t-91 119.5t-48.5 127t-18.5 112t-3 74.5zM222 1245q14 80 71.5 142.5t155.5 62.5q43 0 75.5 -10t75.5 -35q29 -16 68 -36.5t84 -20.5q39 0 68.5 24.5t40.5 61.5h118q-6 -31 -20.5 -68t-41 -68.5t-67.5 -52 t-98 -20.5q-49 0 -89 16t-79 37q-33 16 -66.5 32.5t-70.5 16.5q-33 0 -67 -17.5t-38 -64.5h-120zM285 606h610q-2 51 -14.5 112.5t-44 114t-87 87t-143.5 34.5q-98 0 -161.5 -35.5t-99.5 -89t-48 -114t-12 -109.5z" horiz-adv-x="1179" unicode="ẽ"/><glyph d="M180 0v1434h1022v-162h-829v-451h751v-162h-751v-497h852v-162h-1045zM244 1556l256 287h290l256 -287h-192l-209 216l-209 -216h-192zM932 1761l151 287h230l-209 -287h-172z" horiz-adv-x="1265" unicode="Ế"/><glyph d="M94 516q0 35 4 91.5t20.5 118.5t49.5 125.5t89 115t140 83t205 31.5q156 0 249 -54t143 -136t67.5 -179.5t21.5 -181.5q0 -12 1 -25t1 -26h-800q0 -68 18.5 -137.5t57 -125.5t101 -93t152.5 -37q63 0 114.5 17.5t87.5 47t57.5 68.5t29.5 82h172q-10 -55 -37.5 -115.5 t-80 -110.5t-134.5 -83t-202 -33q-129 0 -218.5 35t-147.5 89t-91 119.5t-48.5 127t-18.5 112t-3 74.5zM222 1163l243 271h271l243 -271h-180l-199 203l-198 -203h-180zM285 606h610q-2 51 -14.5 112.5t-44 114t-87 87t-143.5 34.5q-98 0 -161.5 -35.5t-99.5 -89t-48 -114 t-12 -109.5zM858 1370l143 271h217l-197 -271h-163z" horiz-adv-x="1179" unicode="ế"/><glyph d="M-14 2027h230l153 -287h-172zM180 0v1434h1022v-162h-829v-451h751v-162h-751v-497h852v-162h-1045zM256 1556l256 287h290l256 -287h-192l-209 216l-209 -216h-192z" horiz-adv-x="1265" unicode="Ề"/><glyph d="M-14 1641h217l144 -271h-164zM94 516q0 35 4 91.5t20.5 118.5t49.5 125.5t89 115t140 83t205 31.5q156 0 249 -54t143 -136t67.5 -179.5t21.5 -181.5q0 -12 1 -25t1 -26h-800q0 -68 18.5 -137.5t57 -125.5t101 -93t152.5 -37q63 0 114.5 17.5t87.5 47t57.5 68.5t29.5 82 h172q-10 -55 -37.5 -115.5t-80 -110.5t-134.5 -83t-202 -33q-129 0 -218.5 35t-147.5 89t-91 119.5t-48.5 127t-18.5 112t-3 74.5zM222 1163l243 271h271l243 -271h-180l-199 203l-198 -203h-180zM285 606h610q-2 51 -14.5 112.5t-44 114t-87 87t-143.5 34.5 q-98 0 -161.5 -35.5t-99.5 -89t-48 -114t-12 -109.5z" horiz-adv-x="1179" unicode="ề"/><glyph d="M180 0v1434h1022v-162h-829v-451h751v-162h-751v-497h852v-162h-1045zM244 1556l256 287h290l256 -287h-192l-209 216l-209 -216h-192zM786 1985q0 35 10.5 70.5t37 64.5t75.5 47.5t127 18.5q127 0 183.5 -45t56.5 -115q0 -59 -30 -94t-75 -68t-61 -55.5t-16 -46.5v-21 h-148v25q0 29 15.5 61.5t68.5 73.5q51 39 73.5 62.5t22.5 58.5q0 25 -17.5 45t-72.5 20q-57 0 -82.5 -27.5t-27.5 -74.5h-140z" horiz-adv-x="1265" unicode="Ể"/><glyph d="M94 516q0 35 4 91.5t20.5 118.5t49.5 125.5t89 115t140 83t205 31.5q156 0 249 -54t143 -136t67.5 -179.5t21.5 -181.5q0 -12 1 -25t1 -26h-800q0 -68 18.5 -137.5t57 -125.5t101 -93t152.5 -37q63 0 114.5 17.5t87.5 47t57.5 68.5t29.5 82h172q-10 -55 -37.5 -115.5 t-80 -110.5t-134.5 -83t-202 -33q-129 0 -218.5 35t-147.5 89t-91 119.5t-48.5 127t-18.5 112t-3 74.5zM215 1163l243 271h271l243 -271h-180l-199 203l-198 -203h-180zM285 606h610q-2 51 -14.5 112.5t-44 114t-87 87t-143.5 34.5q-98 0 -161.5 -35.5t-99.5 -89t-48 -114 t-12 -109.5zM714 1606q0 35 10.5 70.5t37 64.5t75.5 47.5t127 18.5q127 0 183.5 -45t56.5 -115q0 -59 -30 -94t-75 -68t-61 -55.5t-16 -46.5v-21h-148v25q0 29 15.5 61.5t68.5 73.5q51 39 73.5 62.5t22.5 58.5q0 25 -17.5 45t-72.5 20q-57 0 -82.5 -27.5t-27.5 -74.5h-140z" horiz-adv-x="1179" unicode="ể"/><glyph d="M180 0v1434h1022v-162h-829v-451h751v-162h-751v-497h852v-162h-1045zM244 1556l256 287h290l256 -287h-192l-209 216l-209 -216h-192zM244 1915q6 41 25.5 80t50 68.5t72.5 48t93 18.5q66 0 101.5 -16.5t58.5 -30.5q47 -29 86 -44t74 -15t70.5 20.5t45.5 69.5h125 q-6 -39 -22.5 -79t-46 -72t-71.5 -51.5t-97 -19.5t-92 15.5t-88 40.5q-41 20 -72 35.5t-72 15.5q-43 0 -75.5 -21.5t-38.5 -62.5h-127z" horiz-adv-x="1265" unicode="Ễ"/><glyph d="M94 516q0 35 4 91.5t20.5 118.5t49.5 125.5t89 115t140 83t205 31.5q156 0 249 -54t143 -136t67.5 -179.5t21.5 -181.5q0 -12 1 -25t1 -26h-800q0 -68 18.5 -137.5t57 -125.5t101 -93t152.5 -37q63 0 114.5 17.5t87.5 47t57.5 68.5t29.5 82h172q-10 -55 -37.5 -115.5 t-80 -110.5t-134.5 -83t-202 -33q-129 0 -218.5 35t-147.5 89t-91 119.5t-48.5 127t-18.5 112t-3 74.5zM222 1163l243 271h271l243 -271h-180l-199 203l-198 -203h-180zM242 1526q14 80 71.5 142.5t155.5 62.5q43 0 75.5 -10t75.5 -35q29 -16 68 -36.5t84 -20.5 q39 0 68.5 24.5t40.5 61.5h118q-6 -31 -20.5 -68t-41 -68.5t-67.5 -52t-98 -20.5q-49 0 -89 16t-79 37q-33 16 -66.5 32.5t-70.5 16.5q-33 0 -67 -17.5t-38 -64.5h-120zM285 606h610q-2 51 -14.5 112.5t-44 114t-87 87t-143.5 34.5q-98 0 -161.5 -35.5t-99.5 -89t-48 -114 t-12 -109.5z" horiz-adv-x="1179" unicode="ễ"/><glyph d="M180 0v1434h1022v-162h-829v-451h751v-162h-751v-497h852v-162h-1045zM271 1556l256 287h290l256 -287h-192l-209 216l-209 -216h-192zM590 -190h180v-189h-180v189z" horiz-adv-x="1265" unicode="Ệ"/><glyph d="M94 516q0 35 4 91.5t20.5 118.5t49.5 125.5t89 115t140 83t205 31.5q156 0 249 -54t143 -136t67.5 -179.5t21.5 -181.5q0 -12 1 -25t1 -26h-800q0 -68 18.5 -137.5t57 -125.5t101 -93t152.5 -37q63 0 114.5 17.5t87.5 47t57.5 68.5t29.5 82h172q-10 -55 -37.5 -115.5 t-80 -110.5t-134.5 -83t-202 -33q-129 0 -218.5 35t-147.5 89t-91 119.5t-48.5 127t-18.5 112t-3 74.5zM213 1163l243 271h271l243 -271h-180l-199 203l-198 -203h-180zM285 606h610q-2 51 -14.5 112.5t-44 114t-87 87t-143.5 34.5q-98 0 -161.5 -35.5t-99.5 -89t-48 -114 t-12 -109.5zM498 -190h180v-189h-180v189z" horiz-adv-x="1179" unicode="ệ"/><glyph d="M39 1800q0 35 10.5 70.5t37 64.5t75.5 47.5t127 18.5q127 0 183.5 -45t56.5 -115q0 -59 -30 -94t-75 -68t-61 -55.5t-16 -46.5v-21h-148v25q0 29 15.5 61.5t68.5 73.5q51 39 73.5 62.5t22.5 58.5q0 25 -17.5 45t-72.5 20q-57 0 -82.5 -27.5t-27.5 -74.5h-140zM180 0v1434 h193v-1434h-193z" horiz-adv-x="552" unicode="Ỉ"/><glyph d="M4 1407q0 35 10.5 70.5t37 64.5t75.5 47.5t127 18.5q127 0 183.5 -45t56.5 -115q0 -59 -30 -94t-75 -68t-61 -55.5t-16 -46.5v-21h-148v25q0 29 15.5 61.5t68.5 73.5q51 39 73.5 62.5t22.5 58.5q0 25 -17.5 45t-72.5 20q-57 0 -82.5 -27.5t-27.5 -74.5h-140zM154 0v1040 h182v-1040h-182z" horiz-adv-x="489" unicode="ỉ"/><glyph d="M180 0v1434h193v-1434h-193zM187 -190h180v-189h-180v189z" horiz-adv-x="552" unicode="Ị"/><glyph d="M150 0v1040h180v-1040h-180zM150 -190h180v-189h-180v189zM150 1245v189h180v-189h-180z" horiz-adv-x="479" unicode="ị"/><glyph d="M98 717q0 188 51.5 330.5t141.5 237.5t216 143.5t275 48.5q119 0 241 -37t220 -124t160.5 -233.5t62.5 -365.5q0 -186 -45 -316.5t-113.5 -214.5t-150.5 -130t-157.5 -68.5t-135 -26.5t-82.5 -4t-83 4t-136 26.5t-157.5 68.5t-150.5 130t-113 213.5t-44 317.5zM303 717 q0 -86 17.5 -190.5t68.5 -195.5t145.5 -151.5t247.5 -60.5q25 0 70 4t98.5 22.5t108.5 56.5t100 103.5t74 165.5t29 246q0 127 -29 236.5t-87.5 189.5t-149.5 126t-214 46q-109 0 -187.5 -34t-131.5 -87t-85 -119.5t-48.5 -133.5t-21.5 -126t-5 -98zM685 -190h180v-189h-180 v189z" horiz-adv-x="1564" unicode="Ọ"/><glyph d="M94 520q0 104 26.5 204.5t87 179.5t159 128t239.5 49t239.5 -49t159 -128t87 -179t26.5 -205q0 -104 -26.5 -204.5t-87 -179.5t-158.5 -128t-240 -49q-141 0 -239.5 49t-159 128t-87 179.5t-26.5 204.5zM285 522q0 -156 38.5 -244t92 -131t106.5 -52t84 -9t84 9t106.5 52 t92.5 131.5t39 243.5q0 156 -39 244t-92.5 131t-106.5 52t-84 9t-84 -9t-106.5 -52t-92 -131t-38.5 -244zM517 -190h180v-189h-180v189z" horiz-adv-x="1212" unicode="ọ"/><glyph d="M98 717q0 188 51.5 330.5t141.5 237.5t216 143.5t275 48.5q119 0 241 -37t220 -124t160.5 -233.5t62.5 -365.5q0 -186 -45 -316.5t-113.5 -214.5t-150.5 -130t-157.5 -68.5t-135 -26.5t-82.5 -4t-83 4t-136 26.5t-157.5 68.5t-150.5 130t-113 213.5t-44 317.5zM303 717 q0 -86 17.5 -190.5t68.5 -195.5t145.5 -151.5t247.5 -60.5q25 0 70 4t98.5 22.5t108.5 56.5t100 103.5t74 165.5t29 246q0 127 -29 236.5t-87.5 189.5t-149.5 126t-214 46q-109 0 -187.5 -34t-131.5 -87t-85 -119.5t-48.5 -133.5t-21.5 -126t-5 -98zM536 1800 q0 35 10.5 70.5t37 64.5t75.5 47.5t127 18.5q127 0 183.5 -45t56.5 -115q0 -59 -30 -94t-75 -68t-61 -55.5t-16 -46.5v-21h-148v25q0 29 15.5 61.5t68.5 73.5q51 39 73.5 62.5t22.5 58.5q0 25 -17.5 45t-72.5 20q-57 0 -82.5 -27.5t-27.5 -74.5h-140z" horiz-adv-x="1564" unicode="Ỏ"/><glyph d="M94 520q0 104 26.5 204.5t87 179.5t159 128t239.5 49t239.5 -49t159 -128t87 -179t26.5 -205q0 -104 -26.5 -204.5t-87 -179.5t-158.5 -128t-240 -49q-141 0 -239.5 49t-159 128t-87 179.5t-26.5 204.5zM285 522q0 -156 38.5 -244t92 -131t106.5 -52t84 -9t84 9t106.5 52 t92.5 131.5t39 243.5q0 156 -39 244t-92.5 131t-106.5 52t-84 9t-84 -9t-106.5 -52t-92 -131t-38.5 -244zM366 1407q0 35 10.5 70.5t37 64.5t75.5 47.5t127 18.5q127 0 183.5 -45t56.5 -115q0 -59 -30 -94t-75 -68t-61 -55.5t-16 -46.5v-21h-148v25q0 29 15.5 61.5 t68.5 73.5q51 39 73.5 62.5t22.5 58.5q0 25 -17.5 45t-72.5 20q-57 0 -82.5 -27.5t-27.5 -74.5h-140z" horiz-adv-x="1212" unicode="ỏ"/><glyph d="M98 717q0 188 51.5 330.5t141.5 237.5t216 143.5t275 48.5q119 0 241 -37t220 -124t160.5 -233.5t62.5 -365.5q0 -186 -45 -316.5t-113.5 -214.5t-150.5 -130t-157.5 -68.5t-135 -26.5t-82.5 -4t-83 4t-136 26.5t-157.5 68.5t-150.5 130t-113 213.5t-44 317.5zM303 717 q0 -86 17.5 -190.5t68.5 -195.5t145.5 -151.5t247.5 -60.5q25 0 70 4t98.5 22.5t108.5 56.5t100 103.5t74 165.5t29 246q0 127 -29 236.5t-87.5 189.5t-149.5 126t-214 46q-109 0 -187.5 -34t-131.5 -87t-85 -119.5t-48.5 -133.5t-21.5 -126t-5 -98zM383 1556l256 287h290 l256 -287h-192l-209 216l-209 -216h-192zM1071 1761l151 287h230l-209 -287h-172z" horiz-adv-x="1564" unicode="Ố"/><glyph d="M94 520q0 104 26.5 204.5t87 179.5t159 128t239.5 49t239.5 -49t159 -128t87 -179t26.5 -205q0 -104 -26.5 -204.5t-87 -179.5t-158.5 -128t-240 -49q-141 0 -239.5 49t-159 128t-87 179.5t-26.5 204.5zM232 1163l243 271h271l243 -271h-180l-199 203l-198 -203h-180z M285 522q0 -156 38.5 -244t92 -131t106.5 -52t84 -9t84 9t106.5 52t92.5 131.5t39 243.5q0 156 -39 244t-92.5 131t-106.5 52t-84 9t-84 -9t-106.5 -52t-92 -131t-38.5 -244zM869 1370l143 271h217l-197 -271h-163z" horiz-adv-x="1212" unicode="ố"/><glyph d="M98 717q0 188 51.5 330.5t141.5 237.5t216 143.5t275 48.5q119 0 241 -37t220 -124t160.5 -233.5t62.5 -365.5q0 -186 -45 -316.5t-113.5 -214.5t-150.5 -130t-157.5 -68.5t-135 -26.5t-82.5 -4t-83 4t-136 26.5t-157.5 68.5t-150.5 130t-113 213.5t-44 317.5zM102 2027 h230l153 -287h-172zM303 717q0 -86 17.5 -190.5t68.5 -195.5t145.5 -151.5t247.5 -60.5q25 0 70 4t98.5 22.5t108.5 56.5t100 103.5t74 165.5t29 246q0 127 -29 236.5t-87.5 189.5t-149.5 126t-214 46q-109 0 -187.5 -34t-131.5 -87t-85 -119.5t-48.5 -133.5t-21.5 -126 t-5 -98zM383 1556l256 287h290l256 -287h-192l-209 216l-209 -216h-192z" horiz-adv-x="1564" unicode="Ồ"/><glyph d="M-2 1641h217l144 -271h-164zM94 520q0 104 26.5 204.5t87 179.5t159 128t239.5 49t239.5 -49t159 -128t87 -179t26.5 -205q0 -104 -26.5 -204.5t-87 -179.5t-158.5 -128t-240 -49q-141 0 -239.5 49t-159 128t-87 179.5t-26.5 204.5zM230 1163l243 271h271l243 -271h-180 l-199 203l-198 -203h-180zM285 522q0 -156 38.5 -244t92 -131t106.5 -52t84 -9t84 9t106.5 52t92.5 131.5t39 243.5q0 156 -39 244t-92.5 131t-106.5 52t-84 9t-84 -9t-106.5 -52t-92 -131t-38.5 -244z" horiz-adv-x="1212" unicode="ồ"/><glyph d="M98 717q0 188 51.5 330.5t141.5 237.5t216 143.5t275 48.5q119 0 241 -37t220 -124t160.5 -233.5t62.5 -365.5q0 -186 -45 -316.5t-113.5 -214.5t-150.5 -130t-157.5 -68.5t-135 -26.5t-82.5 -4t-83 4t-136 26.5t-157.5 68.5t-150.5 130t-113 213.5t-44 317.5zM303 717 q0 -86 17.5 -190.5t68.5 -195.5t145.5 -151.5t247.5 -60.5q25 0 70 4t98.5 22.5t108.5 56.5t100 103.5t74 165.5t29 246q0 127 -29 236.5t-87.5 189.5t-149.5 126t-214 46q-109 0 -187.5 -34t-131.5 -87t-85 -119.5t-48.5 -133.5t-21.5 -126t-5 -98zM383 1556l256 287h290 l256 -287h-192l-209 216l-209 -216h-192zM934 1985q0 35 10.5 70.5t37 64.5t75.5 47.5t127 18.5q127 0 183.5 -45t56.5 -115q0 -59 -30 -94t-75 -68t-61 -55.5t-16 -46.5v-21h-148v25q0 29 15.5 61.5t68.5 73.5q51 39 73.5 62.5t22.5 58.5q0 25 -17.5 45t-72.5 20 q-57 0 -82.5 -27.5t-27.5 -74.5h-140z" horiz-adv-x="1564" unicode="Ổ"/><glyph d="M94 520q0 104 26.5 204.5t87 179.5t159 128t239.5 49t239.5 -49t159 -128t87 -179t26.5 -205q0 -104 -26.5 -204.5t-87 -179.5t-158.5 -128t-240 -49q-141 0 -239.5 49t-159 128t-87 179.5t-26.5 204.5zM226 1163l243 271h271l243 -271h-180l-199 203l-198 -203h-180z M285 522q0 -156 38.5 -244t92 -131t106.5 -52t84 -9t84 9t106.5 52t92.5 131.5t39 243.5q0 156 -39 244t-92.5 131t-106.5 52t-84 9t-84 -9t-106.5 -52t-92 -131t-38.5 -244zM725 1606q0 35 10.5 70.5t37 64.5t75.5 47.5t127 18.5q127 0 183.5 -45t56.5 -115q0 -59 -30 -94 t-75 -68t-61 -55.5t-16 -46.5v-21h-148v25q0 29 15.5 61.5t68.5 73.5q51 39 73.5 62.5t22.5 58.5q0 25 -17.5 45t-72.5 20q-57 0 -82.5 -27.5t-27.5 -74.5h-140z" horiz-adv-x="1212" unicode="ổ"/><glyph d="M98 717q0 188 51.5 330.5t141.5 237.5t216 143.5t275 48.5q119 0 241 -37t220 -124t160.5 -233.5t62.5 -365.5q0 -186 -45 -316.5t-113.5 -214.5t-150.5 -130t-157.5 -68.5t-135 -26.5t-82.5 -4t-83 4t-136 26.5t-157.5 68.5t-150.5 130t-113 213.5t-44 317.5zM303 717 q0 -86 17.5 -190.5t68.5 -195.5t145.5 -151.5t247.5 -60.5q25 0 70 4t98.5 22.5t108.5 56.5t100 103.5t74 165.5t29 246q0 127 -29 236.5t-87.5 189.5t-149.5 126t-214 46q-109 0 -187.5 -34t-131.5 -87t-85 -119.5t-48.5 -133.5t-21.5 -126t-5 -98zM383 1556l256 287h290 l256 -287h-192l-209 216l-209 -216h-192zM388 1915q6 41 25.5 80t50 68.5t72.5 48t93 18.5q66 0 101.5 -16.5t58.5 -30.5q47 -29 86 -44t74 -15t70.5 20.5t45.5 69.5h125q-6 -39 -22.5 -79t-46 -72t-71.5 -51.5t-97 -19.5t-92 15.5t-88 40.5q-41 20 -72 35.5t-72 15.5 q-43 0 -75.5 -21.5t-38.5 -62.5h-127z" horiz-adv-x="1564" unicode="Ỗ"/><glyph d="M94 520q0 104 26.5 204.5t87 179.5t159 128t239.5 49t239.5 -49t159 -128t87 -179t26.5 -205q0 -104 -26.5 -204.5t-87 -179.5t-158.5 -128t-240 -49q-141 0 -239.5 49t-159 128t-87 179.5t-26.5 204.5zM232 1163l243 271h271l243 -271h-180l-199 203l-198 -203h-180z M252 1526q14 80 71.5 142.5t155.5 62.5q43 0 75.5 -10t75.5 -35q29 -16 68 -36.5t84 -20.5q39 0 68.5 24.5t40.5 61.5h118q-6 -31 -20.5 -68t-41 -68.5t-67.5 -52t-98 -20.5q-49 0 -89 16t-79 37q-33 16 -66.5 32.5t-70.5 16.5q-33 0 -67 -17.5t-38 -64.5h-120zM285 522 q0 -156 38.5 -244t92 -131t106.5 -52t84 -9t84 9t106.5 52t92.5 131.5t39 243.5q0 156 -39 244t-92.5 131t-106.5 52t-84 9t-84 -9t-106.5 -52t-92 -131t-38.5 -244z" horiz-adv-x="1212" unicode="ỗ"/><glyph d="M98 717q0 188 51.5 330.5t141.5 237.5t216 143.5t275 48.5q119 0 241 -37t220 -124t160.5 -233.5t62.5 -365.5q0 -186 -45 -316.5t-113.5 -214.5t-150.5 -130t-157.5 -68.5t-135 -26.5t-82.5 -4t-83 4t-136 26.5t-157.5 68.5t-150.5 130t-113 213.5t-44 317.5zM303 717 q0 -86 17.5 -190.5t68.5 -195.5t145.5 -151.5t247.5 -60.5q25 0 70 4t98.5 22.5t108.5 56.5t100 103.5t74 165.5t29 246q0 127 -29 236.5t-87.5 189.5t-149.5 126t-214 46q-109 0 -187.5 -34t-131.5 -87t-85 -119.5t-48.5 -133.5t-21.5 -126t-5 -98zM373 1556l256 287h290 l256 -287h-192l-209 216l-209 -216h-192zM685 -190h180v-189h-180v189z" horiz-adv-x="1564" unicode="Ộ"/><glyph d="M94 520q0 104 26.5 204.5t87 179.5t159 128t239.5 49t239.5 -49t159 -128t87 -179t26.5 -205q0 -104 -26.5 -204.5t-87 -179.5t-158.5 -128t-240 -49q-141 0 -239.5 49t-159 128t-87 179.5t-26.5 204.5zM228 1163l243 271h271l243 -271h-180l-199 203l-198 -203h-180z M285 522q0 -156 38.5 -244t92 -131t106.5 -52t84 -9t84 9t106.5 52t92.5 131.5t39 243.5q0 156 -39 244t-92.5 131t-106.5 52t-84 9t-84 -9t-106.5 -52t-92 -131t-38.5 -244zM517 -190h180v-189h-180v189z" horiz-adv-x="1212" unicode="ộ"/><glyph d="M98 717q0 188 51.5 330.5t141.5 237.5t216 143.5t275 48.5q98 0 198.5 -25t190.5 -84q47 -10 84 -10q84 0 115 51t31 125q0 37 -9.5 79t-31.5 79h192q37 -84 37 -160q0 -117 -70.5 -190.5t-201.5 -73.5h-27q78 -90 127 -224.5t49 -326.5q0 -186 -45 -316.5t-113.5 -214.5 t-150.5 -130t-157.5 -68.5t-135 -26.5t-82.5 -4t-83 4t-136 26.5t-157.5 68.5t-150.5 130t-113 213.5t-44 317.5zM303 717q0 -86 17.5 -190.5t68.5 -195.5t145.5 -151.5t247.5 -60.5q25 0 70 4t98.5 22.5t108.5 56.5t100 103.5t74 165.5t29 246q0 127 -29 236.5t-87.5 189.5 t-149.5 126t-214 46q-109 0 -187.5 -34t-131.5 -87t-85 -119.5t-48.5 -133.5t-21.5 -126t-5 -98zM645 1556l151 287h230l-209 -287h-172z" horiz-adv-x="1615" unicode="Ớ"/><glyph d="M94 520q0 104 26.5 204.5t87 179.5t159 128t239.5 49q68 0 125 -11t105 -34h45q90 0 142 40t52 138q0 49 -16 105h188q16 -61 17 -107q0 -117 -71 -191.5t-202 -74.5h-24q82 -82 116.5 -194.5t34.5 -231.5q0 -104 -26.5 -204.5t-87 -179.5t-158.5 -128t-240 -49 q-141 0 -239.5 49t-159 128t-87 179.5t-26.5 204.5zM285 522q0 -158 38.5 -245t92 -130t106.5 -52t84 -9t84 9t106.5 52t92.5 130.5t39 244.5q0 156 -39 244t-92.5 131t-106.5 52t-84 9t-84 -9t-106.5 -52t-92 -131t-38.5 -244zM498 1163l143 271h217l-197 -271h-163z" horiz-adv-x="1269" unicode="ớ"/><glyph d="M98 717q0 188 51.5 330.5t141.5 237.5t216 143.5t275 48.5q98 0 198.5 -25t190.5 -84q47 -10 84 -10q84 0 115 51t31 125q0 37 -9.5 79t-31.5 79h192q37 -84 37 -160q0 -117 -70.5 -190.5t-201.5 -73.5h-27q78 -90 127 -224.5t49 -326.5q0 -186 -45 -316.5t-113.5 -214.5 t-150.5 -130t-157.5 -68.5t-135 -26.5t-82.5 -4t-83 4t-136 26.5t-157.5 68.5t-150.5 130t-113 213.5t-44 317.5zM303 717q0 -86 17.5 -190.5t68.5 -195.5t145.5 -151.5t247.5 -60.5q25 0 70 4t98.5 22.5t108.5 56.5t100 103.5t74 165.5t29 246q0 127 -29 236.5t-87.5 189.5 t-149.5 126t-214 46q-109 0 -187.5 -34t-131.5 -87t-85 -119.5t-48.5 -133.5t-21.5 -126t-5 -98zM500 1843h230l153 -287h-172z" horiz-adv-x="1615" unicode="Ờ"/><glyph d="M94 520q0 104 26.5 204.5t87 179.5t159 128t239.5 49q68 0 125 -11t105 -34h45q90 0 142 40t52 138q0 49 -16 105h188q16 -61 17 -107q0 -117 -71 -191.5t-202 -74.5h-24q82 -82 116.5 -194.5t34.5 -231.5q0 -104 -26.5 -204.5t-87 -179.5t-158.5 -128t-240 -49 q-141 0 -239.5 49t-159 128t-87 179.5t-26.5 204.5zM285 522q0 -158 38.5 -245t92 -130t106.5 -52t84 -9t84 9t106.5 52t92.5 130.5t39 244.5q0 156 -39 244t-92.5 131t-106.5 52t-84 9t-84 -9t-106.5 -52t-92 -131t-38.5 -244zM336 1434h217l144 -271h-164z" horiz-adv-x="1269" unicode="ờ"/><glyph d="M98 717q0 188 51.5 330.5t141.5 237.5t216 143.5t275 48.5q98 0 198.5 -25t190.5 -84q47 -10 84 -10q84 0 115 51t31 125q0 37 -9.5 79t-31.5 79h192q37 -84 37 -160q0 -117 -70.5 -190.5t-201.5 -73.5h-27q78 -90 127 -224.5t49 -326.5q0 -186 -45 -316.5t-113.5 -214.5 t-150.5 -130t-157.5 -68.5t-135 -26.5t-82.5 -4t-83 4t-136 26.5t-157.5 68.5t-150.5 130t-113 213.5t-44 317.5zM303 717q0 -86 17.5 -190.5t68.5 -195.5t145.5 -151.5t247.5 -60.5q25 0 70 4t98.5 22.5t108.5 56.5t100 103.5t74 165.5t29 246q0 127 -29 236.5t-87.5 189.5 t-149.5 126t-214 46q-109 0 -187.5 -34t-131.5 -87t-85 -119.5t-48.5 -133.5t-21.5 -126t-5 -98zM536 1800q0 35 10.5 70.5t37 64.5t75.5 47.5t127 18.5q127 0 183.5 -45t56.5 -115q0 -59 -30 -94t-75 -68t-61 -55.5t-16 -46.5v-21h-148v25q0 29 15.5 61.5t68.5 73.5 q51 39 73.5 62.5t22.5 58.5q0 25 -17.5 45t-72.5 20q-57 0 -82.5 -27.5t-27.5 -74.5h-140z" horiz-adv-x="1615" unicode="Ở"/><glyph d="M94 520q0 104 26.5 204.5t87 179.5t159 128t239.5 49q68 0 125 -11t105 -34h45q90 0 142 40t52 138q0 49 -16 105h188q16 -61 17 -107q0 -117 -71 -191.5t-202 -74.5h-24q82 -82 116.5 -194.5t34.5 -231.5q0 -104 -26.5 -204.5t-87 -179.5t-158.5 -128t-240 -49 q-141 0 -239.5 49t-159 128t-87 179.5t-26.5 204.5zM285 522q0 -158 38.5 -245t92 -130t106.5 -52t84 -9t84 9t106.5 52t92.5 130.5t39 244.5q0 156 -39 244t-92.5 131t-106.5 52t-84 9t-84 -9t-106.5 -52t-92 -131t-38.5 -244zM362 1407q0 35 10.5 70.5t37 64.5t75.5 47.5 t127 18.5q127 0 183.5 -45t56.5 -115q0 -59 -30 -94t-75 -68t-61 -55.5t-16 -46.5v-21h-148v25q0 29 15.5 61.5t68.5 73.5q51 39 73.5 62.5t22.5 58.5q0 25 -17.5 45t-72.5 20q-57 0 -82.5 -27.5t-27.5 -74.5h-140z" horiz-adv-x="1269" unicode="ở"/><glyph d="M98 717q0 188 51.5 330.5t141.5 237.5t216 143.5t275 48.5q98 0 198.5 -25t190.5 -84q47 -10 84 -10q84 0 115 51t31 125q0 37 -9.5 79t-31.5 79h192q37 -84 37 -160q0 -117 -70.5 -190.5t-201.5 -73.5h-27q78 -90 127 -224.5t49 -326.5q0 -186 -45 -316.5t-113.5 -214.5 t-150.5 -130t-157.5 -68.5t-135 -26.5t-82.5 -4t-83 4t-136 26.5t-157.5 68.5t-150.5 130t-113 213.5t-44 317.5zM303 717q0 -86 17.5 -190.5t68.5 -195.5t145.5 -151.5t247.5 -60.5q25 0 70 4t98.5 22.5t108.5 56.5t100 103.5t74 165.5t29 246q0 127 -29 236.5t-87.5 189.5 t-149.5 126t-214 46q-109 0 -187.5 -34t-131.5 -87t-85 -119.5t-48.5 -133.5t-21.5 -126t-5 -98zM369 1579q6 41 25.5 80t50 68.5t72.5 48t93 18.5q66 0 101.5 -16.5t58.5 -30.5q47 -29 86 -44t74 -15t70.5 20.5t45.5 69.5h125q-6 -39 -22.5 -79t-46 -72t-71.5 -51.5 t-97 -19.5t-92 15.5t-88 40.5q-41 20 -72 35.5t-72 15.5q-43 0 -75.5 -21.5t-38.5 -62.5h-127z" horiz-adv-x="1615" unicode="Ỡ"/><glyph d="M94 520q0 104 26.5 204.5t87 179.5t159 128t239.5 49q68 0 125 -11t105 -34h45q90 0 142 40t52 138q0 49 -16 105h188q16 -61 17 -107q0 -117 -71 -191.5t-202 -74.5h-24q82 -82 116.5 -194.5t34.5 -231.5q0 -104 -26.5 -204.5t-87 -179.5t-158.5 -128t-240 -49 q-141 0 -239.5 49t-159 128t-87 179.5t-26.5 204.5zM226 1245q14 80 71.5 142.5t155.5 62.5q43 0 75.5 -10t75.5 -35q29 -16 68 -36.5t84 -20.5q39 0 68.5 24.5t40.5 61.5h118q-6 -31 -20.5 -68t-41 -68.5t-67.5 -52t-98 -20.5q-49 0 -89 16t-79 37q-33 16 -66.5 32.5 t-70.5 16.5q-33 0 -67 -17.5t-38 -64.5h-120zM285 522q0 -158 38.5 -245t92 -130t106.5 -52t84 -9t84 9t106.5 52t92.5 130.5t39 244.5q0 156 -39 244t-92.5 131t-106.5 52t-84 9t-84 -9t-106.5 -52t-92 -131t-38.5 -244z" horiz-adv-x="1269" unicode="ỡ"/></font>
</defs>
</svg>
